<svg width="700" height="360" xmlns="http://www.w3.org/2000/svg">

 <metadata id="metadata5422">image/svg+xml</metadata>
 <g>
  <title>background</title>
  <rect fill="none" id="canvas_background" height="362" width="702" y="-1" x="-1"/>
 </g>
 <g>
  <title>Layer 1</title>
  <path fill="#000080" transform="translate(0,0) scale(0.2645833194255829) " id="path5476"/>
  <rect y="591.51971" x="37" height="91" width="178" id="rect6056"/>
  <g stroke="null" id="svg_1">
   <path stroke="null" fill="#c8c4b7" stroke-width="0.22437" d="m55.067926,170.040512c-17.602091,-6.062432 -32.971273,-25.822419 -38.579168,-49.600831c-2.719928,-11.532978 -3.643867,-29.755069 -2.19656,-43.32154c4.916992,-46.091129 44.54363,-75.52279 77.162736,-57.31064c14.622496,8.164111 27.181267,25.330901 32.2371,44.065475c2.442201,9.049518 3.337537,38.546943 1.501257,49.458786c-4.024636,23.915805 -19.608381,46.836913 -37.494341,55.147976c-6.782563,3.151626 -25.423276,4.043342 -32.631024,1.560774zm21.833039,-5.255726c14.847006,-4.154034 24.126866,-17.083437 28.898188,-40.263017c2.583242,-12.549661 2.609369,-47.074228 0.045379,-59.951695c-5.8721,-29.492327 -17.263492,-43.22098 -35.86254,-43.22098c-10.823424,0 -16.851096,3.075792 -23.655935,12.071207c-9.900403,13.087634 -13.884839,29.864678 -13.915825,58.594589c-0.049917,46.25312 12.611301,71.550948 37.107843,74.143826c0.986598,0.104319 4.308871,-0.513758 7.382845,-1.37393l0.000046,0z" id="path5466"/>
   <path stroke="null" fill="#aca793" stroke-width="0.22437" d="m50.321768,92.454598c0,-16.730714 0.388561,-26.49033 1.054712,-26.49033c0.580069,0 1.054712,2.244234 1.054712,4.987058c0,3.685458 0.828231,6.081932 3.173486,9.182132l3.173486,4.195073l12.181945,-0.468449c11.561814,-0.444233 12.283474,-0.64567 14.176042,-3.953743c1.09679,-1.917129 2.296943,-5.838372 2.667124,-8.713938c1.564925,-12.157492 2.596993,-3.707825 2.596993,21.261942c0,15.892528 -0.402816,26.49033 -1.006904,26.49033c-0.553804,0 -1.29939,-2.039036 -1.656874,-4.531291c-1.402936,-9.780772 -5.167355,-12.523406 -17.28366,-12.592166c-12.685053,-0.072201 -18.021638,3.939341 -18.021638,13.546206c0,1.967472 -0.474643,3.577251 -1.054712,3.577251c-0.666105,0 -1.054712,-9.759552 -1.054712,-26.49033l0,0.000255z" id="path5468"/>
   <path stroke="null" fill="#c8c4b7" stroke-width="0.22437" d="m395.849124,213.996698c-0.295787,-0.632415 1.57478,-2.506465 4.156509,-4.164549l4.694132,-3.014743l0,-13.058703c0,-7.18235 -0.307109,-16.946745 -0.68311,-21.698655c-0.612063,-7.740589 -0.912892,-8.5963 -2.89058,-8.221273c-1.467704,0.278227 -3.79545,3.922518 -6.946339,10.8752c-6.160645,13.593618 -17.676897,28.814921 -25.867026,34.188923c-5.915095,3.881223 -7.119924,4.152313 -18.457182,4.152313c-11.852788,0 -12.285124,-0.111202 -18.984538,-4.879808c-10.425192,-7.420749 -19.08868,-19.869213 -25.070514,-36.023527l-4.988315,-13.471519l-0.361563,-19.803257c-0.416888,-22.834122 0.554767,-30.495755 5.617062,-44.292403c6.759277,-18.421744 18.481155,-32.999544 30.980842,-38.529164c5.431147,-2.402592 8.436549,-2.846953 15.820448,-2.33893c17.218893,1.184791 28.699117,11.603523 40.380108,36.646702c7.275403,15.597924 9.762662,16.983706 10.760903,5.995839c0.368989,-4.064563 0.675547,-14.004904 0.680589,-22.08974l0.009167,-14.699516l-5.537168,-3.689154l-5.537123,-3.689026l11.337992,-0.084819l11.337946,-0.084819l0,29.278718l0,29.278782l-11.023595,0l-11.023687,0l-3.085296,-5.925485c-7.446238,-14.300338 -18.597994,-24.333783 -30.766646,-27.681175c-25.587832,-7.038903 -51.44381,15.80242 -54.951403,48.54432c-1.962103,18.315003 1.952523,34.322238 11.688737,47.796178c15.109973,20.910685 40.66659,24.235581 59.469613,7.736956c6.527662,-5.727616 12.609376,-14.253244 15.211686,-21.324457l1.667646,-4.531227l11.406335,0l11.406289,0l0,29.975879l0,29.975879l-9.957378,0c-5.476526,0 -10.199261,-0.517454 -10.49491,-1.149869l0.000367,0.000127z" id="path5470"/>
   <path stroke="null" fill="#c8c4b7" stroke-width="0.22437" d="m196.113197,350.701537c0.269064,-1.36042 9.414575,-19.084493 20.323302,-39.386914c10.908681,-20.302421 19.840638,-37.601825 19.848705,-38.443198c0.007792,-0.841373 -8.844774,-18.878722 -19.672966,-40.083055c-10.828192,-21.204333 -19.687679,-39.808524 -19.687679,-41.342724c0,-2.737217 0.698833,-2.789408 37.33469,-2.789408l37.33469,0l0.617242,9.411035c1.797365,27.402884 1.904532,31.021557 0.918805,31.021557c-0.569389,0 -1.328222,-2.82535 -1.686255,-6.278526c-0.357942,-3.453113 -1.558599,-8.629246 -2.667903,-11.502326c-4.780398,-12.381807 -9.385377,-14.286382 -34.542156,-14.286382c-10.658594,0 -19.379287,0.353041 -19.379287,0.784274c0,0.431552 7.373907,15.290255 16.386399,33.02c9.012538,17.729617 16.13787,33.092074 15.834062,34.138707c-0.303763,1.046634 -8.170877,16.315413 -17.482319,33.930706c-9.311442,17.615293 -17.199458,32.956338 -17.528889,34.091231c-0.517638,1.783177 2.532454,2.062424 22.45349,2.055732c13.60152,-0.004206 24.777065,-0.640636 27.258961,-1.55147c5.380405,-1.974609 10.13738,-8.669202 12.839295,-18.069212c1.171596,-4.076033 2.584067,-7.61097 3.138788,-7.855359c0.839919,-0.369929 -0.503062,15.802675 -3.411014,41.077497l-0.521351,4.531291l-39.098961,0c-36.919956,0 -39.071734,-0.13803 -38.60965,-2.473455z" id="path5472"/>
   <path stroke="null" fill="#00000d" stroke-width="0.22437" d="m59.061025,160.231701c-6.794297,-2.942223 -13.916971,-8.937552 -20.586728,-17.328527c-12.290762,-15.462442 -16.562872,-28.708882 -17.394357,-53.934189c-0.640849,-19.443269 0.541657,-28.937785 5.108912,-41.020144c10.423542,-27.574434 35.13891,-44.706175 58.410547,-40.487778c17.038799,3.088537 34.431781,20.057332 42.400287,41.366303l4.006347,10.713591l0,24.542421l0,24.542358l-4.118877,11.020431c-5.608491,15.006038 -16.102072,28.920643 -27.354165,36.27193c-8.050784,5.259869 -8.37884,5.345707 -22.099811,5.788666c-9.811524,0.316718 -15.241205,-0.119104 -18.372154,-1.475062zm28.489412,-5.051294c11.848388,-4.837685 20.11864,-17.24785 24.612418,-36.93264c1.538064,-6.737544 1.901873,-13.113125 1.869558,-32.764268c-0.037128,-22.614714 -0.24532,-25.214729 -2.845843,-35.552848c-3.541146,-14.077425 -8.995991,-24.812173 -15.288967,-30.087846c-6.519549,-5.465639 -10.71282,-6.844731 -20.790474,-6.837785c-10.53598,0.005289 -16.915313,3.593374 -23.779466,13.367327c-9.263038,13.189723 -12.55978,28.045559 -12.589253,56.72997c-0.028877,28.458694 3.786053,47.18014 12.091508,59.332725c9.771142,14.297279 22.283251,18.640069 36.720519,12.745363z" id="path5474"/>
   <path stroke="null" fill="#000000" stroke-width="0.22437" d="m94.091668,104.439074c-1.757257,-9.069146 -5.130181,-11.266413 -17.200787,-11.2053c-11.849442,0.059902 -16.639007,2.405078 -17.68116,8.657222c-0.349187,2.094796 -0.764884,4.436148 -0.923755,5.202961c-0.873976,4.218015 -1.556628,-29.331037 -0.751774,-36.946978c0.526714,-4.984382 1.017859,-7.523857 1.091427,-5.643307c0.073523,1.88055 1.585185,5.398791 3.359172,7.818271l3.22542,4.399123l10.22195,-0.574871c5.622059,-0.316208 11.283812,-0.864186 12.58169,-1.217865c2.79038,-0.760313 5.544319,-5.865965 6.546089,-12.136016c1.024734,-6.413562 2.06872,24.990287 1.24104,37.330481c-0.654371,9.756238 -0.654966,9.757703 -1.709312,4.31628z" id="path5478"/>
   <path stroke="null" fill="#0000d3" stroke-width="0.22437" d="m407.336499,205.472153l-4.218802,-0.913255l3.955101,-2.632643l3.955146,-2.632643l0,-17.692465c0,-9.730875 -0.30115,-19.685619 -0.670139,-22.121667c-1.115492,-7.372954 -4.303921,-5.151471 -10.859911,7.566235c-7.705722,14.948175 -17.234019,27.160343 -25.3999,32.554482c-6.216612,4.106494 -7.376749,4.39052 -17.819084,4.361908c-8.941811,-0.026128 -12.112272,-0.595964 -15.896538,-2.865051c-11.36774,-6.816309 -20.288558,-19.108963 -28.49175,-39.260928l-4.390828,-10.786494l0.347583,-25.463451l0.347583,-25.463324l4.483648,-12.336689c5.7653,-15.863214 15.487075,-29.647755 25.502758,-36.160792c6.55246,-4.260966 7.496246,-4.483178 19.040093,-4.483178c11.304531,0 12.584211,0.284026 18.47405,4.101269c8.012876,5.193148 15.230891,14.723222 23.557385,31.102998c6.7794,13.336293 9.839989,16.024887 11.110136,9.759552c0.349737,-1.725378 0.642407,-11.748754 0.650337,-22.274291l0.013751,-19.137321l-3.955055,-2.760094l-3.955146,-2.760222l4.862584,-0.061814c2.674412,-0.031863 7.064552,-0.460547 9.755924,-0.948241l4.89334,-0.886618l0,29.468303l0,29.468239l-10.810636,-0.065319l-10.810636,-0.065319l-3.6914,-6.985692c-4.980706,-9.425564 -12.005655,-17.060305 -20.714385,-22.512562c-6.85714,-4.293084 -7.868673,-4.529698 -19.364069,-4.529698c-11.449743,0 -12.526777,0.249232 -19.231233,4.447491c-9.073318,5.681734 -14.582846,11.571341 -19.307094,20.639021c-15.515265,29.779604 -7.036363,68.952462 18.368946,84.864682c6.623049,4.148298 7.642696,4.375417 19.642025,4.375417c12.052088,0 12.996653,-0.212908 19.784533,-4.46355c8.004809,-5.012485 17.576285,-16.180187 21.550224,-25.144248l2.634029,-5.944858l10.974091,0l10.974091,0l0,29.975879l0,29.975815l-5.537168,-0.197614c-3.045417,-0.108525 -7.435604,-0.608837 -9.755924,-1.111124l0.002338,-0.000127z" id="path5480"/>
   <path stroke="null" opacity="0.949" fill="#00000d" stroke-width="0.22437" d="m214.491951,343.767909c-9.679193,-0.380443 -11.342851,-0.773058 -10.82567,-2.554578c0.336032,-1.157835 8.611051,-17.291566 18.388747,-35.852869c9.777788,-18.56124 18.574617,-35.3827 19.548655,-37.380951l1.770871,-3.633075l-17.267893,-34.708098c-19.739154,-39.675273 -22.596456,-45.969859 -21.515617,-47.398656c0.427064,-0.564547 16.837161,-1.317277 36.466857,-1.67274c31.117529,-0.563464 35.768528,-0.377321 36.299918,1.453332c0.335253,1.154776 0.879247,9.551168 1.208954,18.658613c0.564438,15.592698 0.515163,16.177446 -0.84464,10.021082c-2.001981,-9.063474 -5.512325,-16.098936 -9.443728,-18.926962c-2.768515,-1.991561 -7.018578,-2.474093 -25.359884,-2.879134c-19.787375,-0.436841 -21.968396,-0.26083 -21.391261,1.727162c0.353587,1.217674 6.187001,13.351205 12.963421,26.96343c17.883347,35.923414 18.575763,37.577673 17.175668,41.035948c-0.643415,1.589387 -8.477435,16.870848 -17.408887,33.958745c-8.931406,17.087962 -16.238987,31.752174 -16.238987,32.587237c0,1.966325 45.366681,2.078228 50.68539,0.124903c4.624139,-1.698103 8.607521,-7.039987 12.004418,-16.098363c3.242288,-8.646006 3.348813,-6.616656 0.932968,17.767343l-1.768441,17.849167l-26.972021,-0.296134c-14.83463,-0.16282 -32.118657,-0.498527 -38.408837,-0.745593l0,0.000191z" id="path5482"/>
   <g font-style="normal" font-weight="normal" font-size="47.41494px" font-family="sans-serif" fill="#000000" stroke-width="1.185373" transform="matrix(3.5937976538793803,0.044777356895347786,-0.05239043838767143,8.127264630454732,-55.607959358231994,-148.8538850430134) " id="text6050">
    <path stroke="null" stroke-width="2.201089" d="m56.0976,29.515668q0.00015,-0.26333 -0.03984,-0.44317q-0.03999,-0.17987 -0.12679,-0.28259q-0.08013,-0.10922 -0.20705,-0.15416q-0.12695,-0.04492 -0.30067,-0.04487q-0.24056,0.00004 -0.5747,0.06434q-0.33414,0.06434 -0.76186,0.17366l-0.09996,-0.46243q0.47452,-0.16067 0.90893,-0.28924q0.4411,-0.13499 0.80868,-0.23139q0.36757,-0.0964 0.64825,-0.14797q0.28067,-0.0514 0.44104,-0.05144q0.38756,-0.00009 0.60126,0.22467q0.22038,0.21834 0.22006,0.75787q-0.00003,0.06426 -0.01362,0.30188q-0.01358,0.23122 -0.04045,0.59093q-0.02027,0.35968 -0.05396,0.82857q-0.03367,0.46247 -0.08077,0.98915q-0.04041,0.5267 -0.09418,1.09193q-0.05379,0.55881 -0.11427,1.11762l0.04011,0.0068q0.50881,-1.65723 1.09082,-2.79423q0.58201,-1.14341 1.18382,-1.85006q0.60181,-0.71308 1.1967,-1.02793q0.59489,-0.31486 1.13614,-0.31498q0.3742,-0.00008 0.72159,0.13475q0.34739,0.13482 0.6145,0.43019q0.27379,0.29542 0.43389,0.76426q0.16009,0.46241 0.1597,1.12399q-0.00011,0.19268 -0.02703,0.52027q-0.02024,0.32114 -0.05389,0.71939q-0.03364,0.39823 -0.08069,0.84785q-0.04036,0.44319 -0.07402,0.87353q-0.03366,0.43035 -0.06062,0.82216q-0.02026,0.38539 -0.02043,0.67442q-0.0003,0.50099 0.03961,0.81571q0.0466,0.31471 0.14671,0.50095q0.10013,0.17985 0.26714,0.25044q0.16701,0.06421 0.40757,0.06421q0.34747,-0.00007 0.72172,-0.09005q0.37426,-0.0964 0.75523,-0.2635l0.12676,0.33397q-0.24067,0.1863 -0.60829,0.37909q-0.36764,0.19276 -0.77534,0.35342q-0.40102,0.16066 -0.802,0.2571q-0.40099,0.10295 -0.70836,0.10301q-0.36084,0.00007 -0.56787,-0.18616q-0.20704,-0.1862 -0.31376,-0.50734q-0.10004,-0.32114 -0.1332,-0.75147q-0.02647,-0.43032 -0.02618,-0.9249q0.0003,-0.60376 0.04083,-1.23964q0.04716,-0.6423 0.10095,-1.2204q0.05381,-0.57808 0.09416,-1.04696q0.04706,-0.47532 0.04723,-0.75793q0.00045,-0.75147 -0.29336,-1.10468q-0.2938,-0.35963 -0.7816,-0.35953q-0.38756,0.00009 -0.8154,0.3149q-0.42784,0.31483 -0.85582,0.8673q-0.42129,0.54605 -0.81598,1.29762q-0.388,0.74514 -0.70257,1.61873q-0.31457,0.86719 -0.52227,1.81782q-0.20771,0.95065 -0.26172,1.90126l-1.39666,0.16724l-0.10691,-0.0077q0.05382,-0.6102 0.10101,-1.32959q0.04721,-0.71938 0.08774,-1.45802q0.04053,-0.74508 0.06768,-1.47089q0.03384,-0.73222 0.05427,-1.36168q0.0271,-0.63588 0.03408,-1.13687q0.01375,-0.50101 0.01392,-0.79003l-0.00001,0.0008z" id="path6062"/>
    <path stroke="null" stroke-width="2.201089" d="m69.8752,19.659858q-0.13428,1.09194 -0.2686,2.24168q-0.12763,1.14333 -0.24861,2.31875q-0.11429,1.16902 -0.21521,2.35087q-0.10091,1.18185 -0.17509,2.33158q-0.07417,1.1433 -0.11493,2.24807q-0.04075,1.10476 -0.04134,2.1196q-0.00038,0.63587 0.01283,1.09189q0.01983,0.45604 0.05299,0.77075q0.03994,0.31472 0.09993,0.5074q0.06673,0.19266 0.16021,0.29541q0.09348,0.10267 0.22042,0.14123q0.12695,0.03203 0.30068,0.03198q0.32074,-0.00007 0.6883,-0.09012q0.37426,-0.0964 0.75524,-0.2635l0.12676,0.33397q-0.24067,0.1863 -0.6083,0.37908q-0.36095,0.19277 -0.76197,0.35343q-0.40102,0.16064 -0.78864,0.25709q-0.38093,0.10294 -0.66158,0.103q-0.36084,0.00008 -0.57456,-0.17975q-0.20704,-0.17344 -0.3204,-0.57156q-0.10668,-0.39822 -0.13972,-1.03409q-0.02635,-0.64229 -0.02581,-1.56077q0.0002,-0.33399 0.0206,-0.95061q0.0204,-0.62304 0.05429,-1.44518q0.04057,-0.82217 0.08793,-1.79846q0.04736,-0.9763 0.10141,-2.01684q0.05406,-1.04695 0.11484,-2.10676q0.06076,-1.06624 0.1215,-2.05538q0.06072,-0.99558 0.1147,-1.87553q0.05396,-0.87997 0.10115,-1.55439q0.0067,-0.1542 0.09369,-0.26336q0.08693,-0.11563 0.22061,-0.17991q0.14037,-0.07062 0.30743,-0.10275q0.17376,-0.03207 0.3475,-0.03212q0.40093,-0.00008 0.84182,0.20536l-0.00007,-0.00006z" id="path6064"/>
    <path stroke="null" stroke-width="2.201089" d="m73.94817,24.957968q-0.23387,0.00005 -0.41424,-0.08989q-0.18036,-0.09623 -0.30723,-0.24401q-0.12686,-0.15417 -0.19359,-0.34679q-0.06673,-0.19911 -0.06657,-0.40465q0.00018,-0.28902 0.10053,-0.50743q0.10036,-0.22482 0.26082,-0.37259q0.16047,-0.15423 0.35428,-0.22488q0.19383,-0.07701 0.38093,-0.07707q0.22719,-0.00005 0.40755,0.08345q0.18038,0.07699 0.30726,0.21832q0.13355,0.14124 0.20026,0.32753q0.07335,0.17986 0.07328,0.39178q-0.00012,0.22482 -0.08052,0.44963q-0.08035,0.21841 -0.22743,0.39827q-0.14042,0.1799 -0.34764,0.28912q-0.20052,0.10927 -0.44775,0.10932l0.00006,-0.00011zm0.57964,2.90305q-0.11403,0.73225 -0.19466,1.47091q-0.08065,0.73224 -0.13447,1.4195q-0.04722,0.68728 -0.0743,1.30389q-0.02046,0.61019 -0.02066,1.10476q-0.00058,0.66798 0.01931,1.14971q0.01982,0.4753 0.06636,0.80285q0.04663,0.32758 0.1133,0.52668q0.07343,0.19266 0.17355,0.30183q0.10692,0.10265 0.24048,0.13485q0.1403,0.03201 0.31403,0.03197q0.32075,-0.00006 0.68832,-0.09012q0.37425,-0.0964 0.75523,-0.2635l0.12675,0.33396q-0.24066,0.18632 -0.60829,0.3791q-0.36095,0.19275 -0.76197,0.35341q-0.40102,0.16066 -0.78863,0.2571q-0.38096,0.10294 -0.6616,0.103q-0.1871,0.00004 -0.34076,-0.03194q-0.15368,-0.02565 -0.28056,-0.14121q-0.12023,-0.11558 -0.22032,-0.34037q-0.09341,-0.22479 -0.16002,-0.61015q-0.05988,-0.38537 -0.09297,-0.96343q-0.03306,-0.57806 -0.03261,-1.40021q0.00029,-0.48172 0.00691,-1.08548q0.01376,-0.61019 0.03419,-1.30388q0.02044,-0.7001 0.05433,-1.47088q0.03389,-0.77719 0.08782,-1.59934q0.01353,-0.17987 0.1004,-0.28905q0.08697,-0.11561 0.21392,-0.17354q0.127,-0.06426 0.26735,-0.08362q0.14701,-0.02571 0.26729,-0.02571q0.4477,-0.00009 0.84183,0.19893l0.00045,-0.00002z" id="path6066"/>
    <path stroke="null" stroke-width="2.201089" d="m78.38909,29.510908q0.00015,-0.26334 -0.03976,-0.44317q-0.04004,-0.17986 -0.12679,-0.28259q-0.0801,-0.10922 -0.20704,-0.15416q-0.12693,-0.04492 -0.30067,-0.04487q-0.24055,0.00005 -0.5747,0.06434q-0.33414,0.06434 -0.76186,0.17365l-0.1,-0.46241q0.47451,-0.16068 0.90894,-0.28925q0.44108,-0.135 0.80866,-0.23139q0.36758,-0.0964 0.64825,-0.14797q0.28068,-0.0514 0.44106,-0.05144q0.38756,-0.00008 0.60125,0.22467q0.22038,0.21834 0.22006,0.75787q-0.00004,0.06426 -0.01362,0.30188q-0.01357,0.23122 -0.04036,0.59093q-0.02027,0.35968 -0.05393,0.82856q-0.03366,0.46247 -0.08075,0.98916q-0.04049,0.52671 -0.09414,1.09192q-0.05382,0.55883 -0.11422,1.11763l0.0401,0.0068q0.50882,-1.65724 1.09082,-2.79424q0.58201,-1.1434 1.18383,-1.85006q0.60179,-0.71308 1.19669,-1.02794q0.59489,-0.31486 1.13615,-0.31497q0.3742,-0.00008 0.72158,0.13474q0.34739,0.13483 0.6145,0.43021q0.27379,0.29541 0.43389,0.76425q0.16009,0.46241 0.1597,1.12398q-0.00011,0.19269 -0.027,0.52028q-0.02024,0.32115 -0.05385,0.71938q-0.03369,0.39823 -0.08073,0.84786q-0.04034,0.44319 -0.07406,0.87353q-0.03363,0.43034 -0.06063,0.82215q-0.02029,0.3854 -0.02034,0.67442q-0.0003,0.50099 0.03965,0.81571q0.04655,0.31472 0.14673,0.50096q0.10015,0.17984 0.26713,0.25044q0.16701,0.06421 0.40757,0.06421q0.34747,-0.00007 0.72172,-0.09005q0.37425,-0.0964 0.75523,-0.2635l0.12676,0.33397q-0.24068,0.18631 -0.60829,0.37908q-0.36763,0.19276 -0.77534,0.35343q-0.40102,0.16065 -0.802,0.25709q-0.40099,0.10295 -0.70836,0.10302q-0.36084,0.00007 -0.56788,-0.18615q-0.20703,-0.18622 -0.31376,-0.50735q-0.10002,-0.32114 -0.13318,-0.75146q-0.02646,-0.43034 -0.02626,-0.92491q0.00041,-0.60376 0.04085,-1.23964q0.04718,-0.64231 0.10091,-1.22041q0.05383,-0.57808 0.09414,-1.04695q0.04715,-0.47531 0.04727,-0.75793q0.00079,-0.75148 -0.29337,-1.10468q-0.2938,-0.35963 -0.78159,-0.35953q-0.38756,0.00008 -0.8154,0.3149q-0.42785,0.31482 -0.85582,0.8673q-0.42131,0.54604 -0.81599,1.29762q-0.38799,0.74515 -0.70257,1.61873q-0.31456,0.86718 -0.52227,1.81782q-0.2077,0.95065 -0.26172,1.90126l-1.39666,0.16724l-0.10693,-0.0077q0.05377,-0.61019 0.10096,-1.32957q0.04716,-0.71939 0.08772,-1.45804q0.04057,-0.74507 0.06764,-1.47088q0.03386,-0.73222 0.05425,-1.36168q0.02709,-0.63588 0.03408,-1.13687q0.01368,-0.501 0.0139,-0.79003l-0.00015,0.0008z" id="path6068"/>
    <path stroke="null" stroke-width="2.201089" d="m95.66581,34.902508q0.04008,0.01931 0.10013,0.05782q0.06685,0.03198 0.12024,0.07695q0.05337,0.03853 0.09349,0.08996q0.04014,0.04498 0.04011,0.0899q-0.00003,0.02568 -0.02013,0.05138q-0.37451,0.50107 -0.80907,0.8737q-0.42788,0.36619 -0.89576,0.6168q-0.46119,0.24417 -0.94239,0.35988q-0.48118,0.12207 -0.94893,0.12218q-0.80184,0.00017 -1.46987,-0.31442q-0.66803,-0.31459 -1.14881,-0.86044q-0.48079,-0.54585 -0.75433,-1.27801q-0.26684,-0.7386 -0.26636,-1.58q0.00064,-0.68726 0.15451,-1.37454q0.16077,-0.6873 0.45515,-1.31039q0.30106,-0.62311 0.72903,-1.1563q0.42797,-0.53962 0.96946,-0.93154q0.54816,-0.39834 1.19645,-0.62328q0.65497,-0.22496 1.40337,-0.22511q0.49447,-0.00011 0.94211,0.12832q0.44762,0.12844 0.78159,0.37239q0.34064,0.23758 0.54088,0.59079q0.20027,0.35322 0.20001,0.80284q-0.00054,0.65513 -0.44838,1.14337q-0.4413,0.48825 -1.22331,0.82884q-0.78199,0.34058 -1.84458,0.55276q-1.05589,0.20576 -2.28547,0.30879l-0.00006,0.10923q-0.00099,0.82214 0.21294,1.50293q0.22012,0.68079 0.60069,1.16887q0.38063,0.48164 0.89498,0.75129q0.51437,0.26966 1.10907,0.26953q0.60139,-0.00013 1.22967,-0.28287q0.63496,-0.28916 1.28351,-0.93162l0.00006,0zm-1.2532,-5.15737q0.00018,-0.29546 -0.10655,-0.55236q-0.10008,-0.25689 -0.28706,-0.44312q-0.18037,-0.19265 -0.43416,-0.30179q-0.25385,-0.10918 -0.54787,-0.10911q-0.43432,0.00009 -0.78855,0.14781q-0.35426,0.14772 -0.63508,0.40478q-0.28078,0.25056 -0.49481,0.59102q-0.21403,0.33404 -0.36792,0.71303q-0.1472,0.37899 -0.24102,0.77724q-0.09384,0.39824 -0.13417,0.7772q0.94892,-0.06446 1.69739,-0.21875q0.75517,-0.16074 1.26986,-0.40491q0.52134,-0.2506 0.7955,-0.59108q0.27416,-0.34691 0.27442,-0.79009l0.00002,0.00013z" id="path6070"/>
    <path stroke="null" stroke-width="2.110132" fill="#0000d3" d="m142.29455,36.053268q-0.00003,-0.49749 -0.16286,-0.86274q-0.16283,-0.36525 -0.42599,-0.59826q-0.26311,-0.233 -0.5951,-0.34638q-0.33199,-0.11335 -0.66397,-0.11336q-0.44471,-0.00002 -0.75164,0.09439q-0.30692,0.0944 -0.50107,0.25817q-0.1879,0.16366 -0.2756,0.39042q-0.0815,0.2204 -0.0814,0.4786q0.00003,0.30228 0.10657,0.61084q0.11277,0.30227 0.32575,0.59197l-0.025,0.06924q-0.35703,0.17634 -0.72033,0.17634q-0.21296,-0.00002 -0.40089,-0.06304q-0.18165,-0.0693 -0.31946,-0.19523q-0.13157,-0.12602 -0.213,-0.30858q-0.0752,-0.18262 -0.0752,-0.40932q-0.00002,-0.37155 0.17535,-0.699q0.18164,-0.32747 0.47602,-0.59825q0.29437,-0.27076 0.68271,-0.48486q0.38834,-0.21411 0.80172,-0.35893q0.4134,-0.15117 0.82681,-0.22667q0.41967,-0.08193 0.7767,-0.08186q0.65769,0.00002 1.12123,0.17639q0.4698,0.17635 0.75797,0.51639q0.29441,0.33376 0.42599,0.81238q0.13781,0.47861 0.13786,1.08313q0.00004,0.41563 -0.0376,0.91312q-0.0312,0.49749 -0.075,1.04537q-0.0438,0.54157 -0.0814,1.12092q-0.0311,0.57936 -0.0311,1.15242q0.00018,0.90682 0.33209,1.36653q0.33827,0.45341 0.88324,0.45343q0.4823,0.00002 1.07733,-0.35891l0.18167,0.27079q-0.41965,0.42191 -0.91446,0.64231q-0.49483,0.22039 -1.03977,0.22037q-0.40714,-0.00001 -0.75167,-0.13853q-0.34451,-0.13852 -0.59509,-0.40935q-0.25056,-0.27708 -0.3884,-0.69272q-0.13781,-0.41562 -0.13784,-0.9635q-0.00001,-0.16367 0.007,-0.32745q0.0124,-0.16368 0.0438,-0.34636l-0.0377,0q-0.26929,0.54157 -0.62628,1.07053q-0.35075,0.52266 -0.77664,0.93828q-0.41963,0.40932 -0.90194,0.66119q-0.47602,0.2582 -1.00219,0.25818q-0.43219,-0.00001 -0.78924,-0.1512q-0.35704,-0.1512 -0.61387,-0.41565q-0.25059,-0.2645 -0.39468,-0.62345q-0.1378,-0.36525 -0.13783,-0.79346q-0.00005,-0.55416 0.20036,-1.00758q0.20666,-0.45339 0.56367,-0.81235q0.36327,-0.35893 0.86436,-0.61711q0.50107,-0.26447 1.08986,-0.43448q0.58878,-0.17632 1.24646,-0.25815q0.65768,-0.0882 1.34045,-0.08814q0.0439,-0.39673 0.0688,-0.76827q0.0311,-0.37155 0.0311,-0.81865l-0.00066,0.00009zm-3.84561,4.32616q0.00002,0.2456 0.0501,0.47231q0.0565,0.22041 0.16924,0.39043q0.11895,0.17011 0.29441,0.2708q0.18166,0.09439 0.4322,0.09442q0.28188,0.00001 0.58253,-0.13225q0.30066,-0.13225 0.58876,-0.36522q0.29438,-0.23299 0.55743,-0.55414q0.26932,-0.32745 0.48227,-0.7116q0.21294,-0.38412 0.3507,-0.80605q0.14396,-0.42821 0.18785,-0.87531q-0.46353,0.01245 -0.92077,0.063q-0.45725,0.04404 -0.87066,0.14472q-0.40713,0.10066 -0.7579,0.26449q-0.35075,0.16367 -0.60755,0.40929q-0.25053,0.2393 -0.39458,0.57305q-0.14395,0.32745 -0.14392,0.76197l-0.00011,0.00009z" id="path6074"/>
    <path stroke="null" stroke-width="2.110132" fill="#0000d3" d="m147.17455,42.690818l-0.10013,-0.0076q0.05,-0.59825 0.0938,-1.30355q0.0437,-0.7053 0.0814,-1.4295q0.0376,-0.73049 0.0626,-1.44209q0.0312,-0.71789 0.05,-1.33504q0.025,-0.62343 0.0312,-1.11461q0.0124,-0.49121 0.0123,-0.77459q-0.00001,-0.233 -0.0189,-0.40303q-0.0189,-0.1701 -0.0878,-0.28339q-0.0626,-0.11335 -0.18793,-0.16368q-0.12534,-0.05679 -0.33825,-0.05676q-0.10651,0 -0.21923,0.01249q-0.11272,0.01252 -0.25054,0.03778q-0.13778,0.02517 -0.31318,0.06922q-0.1692,0.03783 -0.39461,0.09445l-0.0939,-0.45342q1.03977,-0.37782 1.68493,-0.52893q0.64516,-0.15741 0.87066,-0.1574q0.4134,0.00001 0.58882,0.2456q0.18165,0.23931 0.18169,0.71791q0,0.04404 -0.0125,0.25819q-0.0125,0.21411 -0.0376,0.56046q-0.0188,0.34006 -0.05,0.79348q-0.0312,0.4534 -0.075,0.97607q-0.0376,0.51639 -0.0876,1.08316q-0.0501,0.56046 -0.10641,1.12091l0.0626,0.0076q0.30055,-1.23427 0.6763,-2.29851q0.38201,-1.07054 0.85173,-1.85769q0.47597,-0.78716 1.03969,-1.23425q0.56996,-0.4534 1.24646,-0.45338q0.23803,0.00001 0.44473,0.07556q0.20671,0.07551 0.35706,0.21411q0.15039,0.13226 0.23804,0.32117q0.0877,0.18263 0.0878,0.40305q0.00002,0.28337 -0.1253,0.54785q-0.11893,0.2582 -0.38206,0.45971l-0.05,-0.00001q-0.26311,-0.22042 -0.50113,-0.31488q-0.23176,-0.10068 -0.49484,-0.10069q-0.28188,-0.00001 -0.54494,0.10708q-0.26308,0.10709 -0.4823,0.30856q-0.35701,0.32745 -0.6639,0.86902q-0.30687,0.53526 -0.56364,1.19018q-0.25049,0.65491 -0.45715,1.3791q-0.20038,0.71789 -0.35065,1.40431q-0.14411,0.6801 -0.23793,1.28464q-0.0877,0.59825 -0.12526,1.00757l-1.30913,0.16377z" id="path6076"/>
    <path stroke="null" stroke-width="2.110132" fill="#0000d3" d="m155.71741,30.820568q-0.21923,-0.00001 -0.38837,-0.08823q-0.1692,-0.09439 -0.28814,-0.2393q-0.11896,-0.15119 -0.18169,-0.34005q-0.0627,-0.19524 -0.0627,-0.39675q-0.00002,-0.28338 0.0938,-0.49749q0.0939,-0.2204 0.24427,-0.36524q0.15037,-0.15118 0.33196,-0.22039q0.18166,-0.07546 0.35703,-0.07548q0.21297,0.00001 0.3821,0.08191q0.1692,0.07553 0.28814,0.2141q0.12536,0.13852 0.18796,0.32119q0.0689,0.17635 0.0689,0.38413q0.00001,0.22042 -0.075,0.44082q-0.0751,0.21411 -0.21294,0.39042q-0.13156,0.17635 -0.32569,0.28339q-0.1879,0.10708 -0.41966,0.10708l0.00003,-0.00011zm0.54516,2.84641q-0.10642,0.7179 -0.18152,1.44209q-0.0751,0.7179 -0.12522,1.39171q-0.0438,0.67381 -0.0688,1.27837q-0.0188,0.59823 -0.0187,1.08314q-0.00012,0.65492 0.019,1.12723q0.0189,0.466 0.0627,0.78716q0.0439,0.32117 0.10653,0.51639q0.0689,0.18892 0.16283,0.29598q0.10018,0.10067 0.22552,0.13227q0.13156,0.03142 0.2944,0.03142q0.30065,0.00001 0.64516,-0.08819q0.35077,-0.09443 0.70778,-0.25817l0.11899,0.32747q-0.2255,0.1826 -0.56998,0.37152q-0.33824,0.18891 -0.71406,0.34633q-0.37582,0.15741 -0.73912,0.25188q-0.35701,0.10083 -0.62008,0.10083q-0.17542,0 -0.31945,-0.03139q-0.14399,-0.02519 -0.2631,-0.13852q-0.11274,-0.11334 -0.20673,-0.33376q-0.0877,-0.22043 -0.15043,-0.59825q-0.0564,-0.37785 -0.0877,-0.94461q-0.0313,-0.56676 -0.0313,-1.37283q-0.00003,-0.47231 0.008,-1.06425q0.0125,-0.59824 0.0311,-1.27836q0.0187,-0.68641 0.05,-1.4421q0.0312,-0.76198 0.0814,-1.56804q0.0124,-0.17634 0.0939,-0.28337q0.0815,-0.11334 0.20044,-0.17009q0.11893,-0.06298 0.25053,-0.08192q0.13776,-0.02517 0.25055,-0.02514q0.41967,0.00001 0.78925,0.19524l-0.00189,-0.00004z" id="path6078"/>
    <path stroke="null" stroke-width="2.110132" fill="#0000d3" d="m161.80539,25.625418q-0.11886,1.00758 -0.23787,2.07813q-0.11886,1.07054 -0.23158,2.16628q-0.10647,1.09573 -0.21279,2.20407q-0.10003,1.10833 -0.18775,2.19146q-0.0814,1.07685 -0.14382,2.11592q-0.0626,1.03276 -0.10001,1.98366l0.0689,0.0076q0.49473,-1.22166 1.06466,-2.15366q0.56992,-0.93198 1.15868,-1.5617q0.58874,-0.62972 1.16499,-0.95087q0.5825,-0.32115 1.09614,-0.32113q0.4322,0.00001 0.7642,0.1637q0.33198,0.15743 0.57627,0.42823q0.24432,0.2645 0.40721,0.61716q0.16284,0.34635 0.26314,0.7305q0.1001,0.37783 0.13782,0.76829q0.0439,0.39043 0.044,0.73048q0.00016,0.93831 -0.18779,1.75696q-0.18158,0.81235 -0.50723,1.48616q-0.32569,0.66752 -0.77036,1.19017q-0.44469,0.52267 -0.96456,0.88161q-0.51987,0.35894 -1.09612,0.54153q-0.57626,0.18892 -1.15878,0.18889q-0.38836,-0.00001 -0.78299,-0.08817q-0.38835,-0.08823 -0.7642,-0.27079q-0.36958,-0.18264 -0.70157,-0.46604q-0.33202,-0.28968 -0.59513,-0.68012q-0.21917,0.55415 -0.44464,0.90681q-0.22547,0.35263 -0.41964,0.56675l-0.32572,-0.08195q0.34444,-0.96349 0.50719,-2.31112q0.1627,-1.35392 0.25031,-3.0605q0.0312,-0.7305 0.075,-1.6625q0.05,-0.932 0.1,-1.96477q0.05,-1.03276 0.1064,-2.10961q0.0563,-1.08315 0.11256,-2.10331q0.0564,-1.02018 0.1064,-1.93328q0.05,-0.91312 0.0937,-1.61843q0.007,-0.15118 0.0939,-0.25818q0.0877,-0.11334 0.21921,-0.17635q0.13154,-0.06921 0.29438,-0.10065q0.1692,-0.03141 0.33199,-0.03141q0.3821,0.00001 0.79551,0.20153l-0.00001,-0.00135zm4.1037,11.80767q-0.00003,-0.42823 -0.069,-0.88163q-0.0628,-0.45341 -0.20678,-0.81867q-0.1378,-0.37153 -0.36962,-0.60454q-0.22551,-0.23932 -0.55122,-0.23933q-0.3821,-0.00001 -0.75789,0.1952q-0.36956,0.1889 -0.72032,0.51634q-0.34447,0.32117 -0.6639,0.74938q-0.31941,0.4219 -0.60125,0.8879q-0.27556,0.466 -0.50103,0.94459q-0.21919,0.4723 -0.38201,0.90052q-0.15656,0.42821 -0.24424,0.78087q-0.0876,0.34634 -0.0877,0.55416q0.0939,0.39043 0.28818,0.71161q0.20047,0.31487 0.4761,0.54159q0.28188,0.22041 0.62013,0.34007q0.34453,0.11959 0.7266,0.1196q0.62638,0.00002 1.17758,-0.31484q0.55744,-0.32114 0.97082,-0.92568q0.41336,-0.60454 0.65131,-1.47356q0.24423,-0.87533 0.24414,-1.98365l0.0001,0.00007z" id="path6080"/>
    <path stroke="null" stroke-width="2.110132" fill="#0000d3" d="m172.07799,25.625728q-0.11887,1.00757 -0.23786,2.07812q-0.11887,1.07055 -0.23159,2.16628q-0.10647,1.09574 -0.2128,2.20407q-0.10023,1.10833 -0.18774,2.19147q-0.0814,1.07684 -0.14382,2.11591q-0.0626,1.03276 -0.10012,1.98367l0.0689,0.0076q0.49473,-1.22167 1.06467,-2.15366q0.56992,-0.932 1.15867,-1.5617q0.58874,-0.62972 1.16499,-0.95088q0.58251,-0.32115 1.09615,-0.32113q0.43219,0.00001 0.76418,0.1637q0.332,0.15744 0.5763,0.42824q0.24431,0.26449 0.40719,0.61715q0.16283,0.34636 0.26314,0.7305q0.1003,0.37784 0.13783,0.76829q0.0439,0.39043 0.044,0.73049q0.00016,0.9383 -0.18778,1.75694q-0.18159,0.81237 -0.50725,1.48617q-0.32567,0.66752 -0.77035,1.19018q-0.4447,0.52266 -0.96456,0.8816q-0.51988,0.35894 -1.09611,0.54153q-0.57626,0.18892 -1.15878,0.1889q-0.38837,-0.00001 -0.78299,-0.08817q-0.38836,-0.08823 -0.76421,-0.2708q-0.36958,-0.18264 -0.70158,-0.46603q-0.332,-0.28969 -0.5951,-0.68013q-0.21919,0.55415 -0.44465,0.90681q-0.22547,0.35264 -0.41965,0.56675l-0.32572,-0.08195q0.34445,-0.96349 0.5072,-2.31112q0.16269,-1.35392 0.25029,-3.0605q0.0312,-0.73049 0.0749,-1.6625q0.05,-0.932 0.1,-1.96477q0.05,-1.03275 0.10639,-2.10961q0.0563,-1.08315 0.11257,-2.10331q0.0564,-1.02018 0.10639,-1.93328q0.05,-0.91312 0.0937,-1.61843q0.007,-0.15118 0.0939,-0.25818q0.0877,-0.11334 0.21921,-0.17634q0.13155,-0.06921 0.29438,-0.10066q0.1692,-0.03141 0.33198,-0.03141q0.3821,0.00002 0.79552,0.20154l0.00021,-0.00135zm4.1037,11.80766q-0.00003,-0.42823 -0.069,-0.88164q-0.0627,-0.4534 -0.20678,-0.81866q-0.1378,-0.37154 -0.36961,-0.60454q-0.22551,-0.23931 -0.55122,-0.23932q-0.3821,-0.00002 -0.7579,0.19519q-0.36955,0.1889 -0.72031,0.51635q-0.34448,0.32117 -0.6639,0.74937q-0.31942,0.42191 -0.60126,0.88791q-0.27554,0.46599 -0.50103,0.94459q-0.21918,0.4723 -0.38201,0.90051q-0.15655,0.42821 -0.24423,0.78087q-0.0876,0.34634 -0.0877,0.55416q0.0939,0.39043 0.28818,0.71161q0.20047,0.31487 0.47609,0.54159q0.28189,0.22041 0.62013,0.34006q0.34453,0.1196 0.72662,0.11961q0.62637,0.00002 1.17757,-0.31483q0.55745,-0.32114 0.97082,-0.92569q0.41335,-0.60453 0.65131,-1.47355q0.24422,-0.87534 0.24413,-1.98365l0.0001,0.00006z" id="path6082"/>
    <path stroke="null" stroke-width="2.110132" fill="#0000d3" d="m185.60265,40.576038q0.0377,0.01893 0.0939,0.05672q0.0627,0.03146 0.11275,0.07547q0.0501,0.03788 0.0877,0.08822q0.0376,0.04411 0.0377,0.08816q0,0.02518 -0.0188,0.05037q-0.35072,0.49117 -0.75784,0.8564q-0.40086,0.35894 -0.8393,0.60453q-0.43218,0.23929 -0.88317,0.35262q-0.45098,0.11958 -0.88945,0.11956q-0.75165,-0.00002 -1.37806,-0.30861q-0.6264,-0.3086 -1.07742,-0.84388q-0.45105,-0.53529 -0.70791,-1.25319q-0.2506,-0.72422 -0.25066,-1.54917q0.00016,-0.67381 0.14387,-1.34761q0.15033,-0.67382 0.42586,-1.28466q0.28181,-0.61084 0.68265,-1.1335q0.40084,-0.52897 0.90819,-0.9131q0.51358,-0.39041 1.12116,-0.61079q0.61382,-0.22041 1.31537,-0.22038q0.46352,0.00001 0.88321,0.12604q0.41967,0.12602 0.73289,0.36528q0.31947,0.23301 0.50741,0.57936q0.18795,0.34637 0.18798,0.78719q-0.0001,0.64232 -0.41961,1.12091q-0.41335,0.47859 -1.14619,0.81232q-0.73284,0.33374 -1.72876,0.54151q-0.98966,0.20149 -2.1422,0.30222l0.00001,0.10708q-0.00041,0.80607 0.20055,1.4736q0.20677,0.66752 0.56384,1.14614q0.35708,0.47231 0.8394,0.73681q0.48234,0.2645 1.03981,0.26452q0.56374,0.00002 1.15251,-0.27706q0.59504,-0.28335 1.20258,-0.91308l0.00003,0zm-1.17799,-5.0568q-0.00003,-0.28967 -0.10034,-0.54158q-0.094,-0.25188 -0.26936,-0.43452q-0.1692,-0.18892 -0.40717,-0.29599q-0.23803,-0.1071 -0.51365,-0.10711q-0.40714,-0.00001 -0.73911,0.14474q-0.33197,0.14474 -0.59502,0.39671q-0.26306,0.2456 -0.46347,0.57935q-0.20043,0.32745 -0.34445,0.69899q-0.13774,0.37154 -0.22543,0.76197q-0.0877,0.39043 -0.12529,0.76198q0.88946,-0.06297 1.59099,-0.21408q0.70779,-0.15741 1.19009,-0.3967q0.48855,-0.24556 0.74533,-0.57932q0.2568,-0.34005 0.25676,-0.77457l0.00012,0.00013z" id="path6084"/>
    <path stroke="null" stroke-width="2.110132" fill="#0000d3" d="m192.40476,36.054748q-0.00004,-0.49749 -0.16288,-0.86274q-0.16283,-0.36525 -0.42598,-0.59826q-0.26309,-0.23301 -0.59508,-0.34637q-0.33199,-0.11336 -0.66398,-0.11336q-0.44473,-0.00002 -0.75162,0.09439q-0.30694,0.0944 -0.50109,0.25817q-0.18791,0.16367 -0.27559,0.39042q-0.0815,0.2204 -0.0814,0.4786q0.00002,0.30227 0.10657,0.61083q0.11276,0.30228 0.32576,0.59198l-0.025,0.06923q-0.35703,0.17634 -0.72032,0.17633q-0.21297,0 -0.40088,-0.06304q-0.18167,-0.0693 -0.31949,-0.19522q-0.13156,-0.12602 -0.21297,-0.30858q-0.0752,-0.18262 -0.0752,-0.40932q-0.00003,-0.37155 0.17535,-0.699q0.18162,-0.32747 0.476,-0.59825q0.29438,-0.27077 0.68271,-0.48486q0.38833,-0.21411 0.80174,-0.35893q0.41339,-0.15116 0.8268,-0.22667q0.41967,-0.08193 0.77671,-0.08186q0.65769,0.00002 1.12123,0.17638q0.4698,0.17637 0.75794,0.5164q0.29443,0.33376 0.42601,0.81237q0.13781,0.47861 0.13785,1.08314q0.00003,0.41564 -0.0376,0.91312q-0.0312,0.49749 -0.0751,1.04537q-0.0438,0.54157 -0.0814,1.12091q-0.0312,0.57937 -0.0311,1.15243q0.00019,0.90683 0.3321,1.36653q0.33828,0.45342 0.88322,0.45343q0.48232,0.00002 1.07734,-0.35891l0.18167,0.2708q-0.41963,0.4219 -0.91445,0.6423q-0.49483,0.22038 -1.03978,0.22038q-0.40714,-0.00002 -0.75165,-0.13854q-0.34454,-0.13852 -0.5951,-0.40935q-0.25057,-0.27708 -0.38841,-0.69271q-0.13781,-0.41562 -0.13785,-0.9635q-0.00002,-0.16368 0.007,-0.32746q0.0124,-0.16367 0.0438,-0.34636l-0.0377,-0.00001q-0.26929,0.54158 -0.62628,1.07054q-0.35074,0.52267 -0.77665,0.93828q-0.41964,0.40932 -0.90192,0.6612q-0.47602,0.25819 -1.00218,0.25818q-0.4322,-0.00003 -0.78926,-0.15121q-0.35705,-0.1512 -0.61387,-0.41565q-0.25058,-0.2645 -0.39467,-0.62345q-0.1378,-0.36525 -0.13783,-0.79347q-0.00004,-0.55415 0.20036,-1.00757q0.20667,-0.45339 0.56367,-0.81234q0.36328,-0.35894 0.86436,-0.61711q0.50108,-0.26447 1.08986,-0.43449q0.58878,-0.17633 1.24647,-0.25815q0.6577,-0.0882 1.34044,-0.08814q0.0439,-0.39673 0.0688,-0.76827q0.0311,-0.37155 0.0311,-0.81865l-0.00058,0.00009zm-3.84563,4.32616q0.00002,0.2456 0.0502,0.47231q0.0563,0.22042 0.16904,0.39044q0.11896,0.1701 0.29444,0.27079q0.18164,0.09439 0.4322,0.09442q0.28187,0 0.58252,-0.13225q0.30065,-0.13225 0.58875,-0.36522q0.29438,-0.233 0.55745,-0.55415q0.26931,-0.32745 0.48225,-0.71158q0.21294,-0.38413 0.3507,-0.80606q0.14413,-0.42822 0.18785,-0.87531q-0.46351,0.01245 -0.92077,0.063q-0.45725,0.04404 -0.87064,0.14472q-0.40715,0.10066 -0.7579,0.26449q-0.35077,0.16367 -0.60756,0.4093q-0.25053,0.23929 -0.39457,0.57304q-0.14414,0.32746 -0.1441,0.76198l0.00014,0.00008z" id="path6086"/>
    <path stroke="null" stroke-width="2.110132" fill="#0000d3" d="m197.51593,35.286618q-0.00002,-0.25819 -0.0377,-0.43451q-0.0376,-0.17636 -0.11897,-0.27709q-0.0751,-0.1071 -0.1942,-0.1512q-0.11896,-0.04407 -0.28187,-0.04406q-0.2255,0 -0.53868,0.06295q-0.31319,0.063 -0.71406,0.17008l-0.0939,-0.4534q0.44473,-0.15741 0.85187,-0.28336q0.41338,-0.13225 0.75789,-0.22668q0.34451,-0.09442 0.60759,-0.14492q0.26307,-0.05033 0.41339,-0.05033q0.36331,0.00001 0.56375,0.22042q0.20674,0.21412 0.20677,0.74309q0.00001,0.063 -0.0124,0.29598q-0.0123,0.22669 -0.0377,0.57936q-0.0188,0.35264 -0.05,0.81234q-0.0312,0.45342 -0.075,0.96979q-0.0376,0.5164 -0.0877,1.07056q-0.0501,0.54787 -0.10647,1.09572l0.0376,0.0067q0.47592,-1.6247 1.02078,-2.73932q0.54487,-1.1209 1.10855,-1.8136q0.56369,-0.69899 1.12113,-1.00754q0.55746,-0.30856 1.06483,-0.30854q0.35076,0 0.6765,0.13228q0.32572,0.13227 0.57629,0.42193q0.25685,0.2897 0.4072,0.7494q0.15042,0.45341 0.15047,1.10205q0.00002,0.18891 -0.025,0.51009q-0.0188,0.31486 -0.05,0.70531q-0.0313,0.39042 -0.0751,0.83124q-0.0376,0.43451 -0.0688,0.85643q-0.0312,0.42191 -0.0564,0.80607q-0.0188,0.37784 -0.0188,0.66121q0.00004,0.49118 0.0377,0.79977q0.0439,0.30857 0.13782,0.49119q0.0939,0.17635 0.25057,0.2456q0.15659,0.063 0.38209,0.06305q0.32571,0.00001 0.67649,-0.08812q0.35075,-0.09443 0.70778,-0.25816l0.11897,0.32746q-0.22548,0.18261 -0.56998,0.37153q-0.3445,0.18891 -0.72656,0.34633q-0.37583,0.15741 -0.75165,0.25188q-0.37581,0.10083 -0.66396,0.10082q-0.33822,-0.00001 -0.53241,-0.18264q-0.19421,-0.18263 -0.29445,-0.4975q-0.094,-0.31488 -0.1254,-0.7368q-0.0251,-0.42192 -0.025,-0.90682q0.00001,-0.59195 0.0376,-1.21538q0.0439,-0.62973 0.0938,-1.1965q0.05,-0.56676 0.0876,-1.02647q0.0438,-0.466 0.0439,-0.74309q0.00027,-0.73677 -0.2757,-1.08314q-0.27561,-0.35267 -0.7329,-0.35268q-0.36329,-0.00002 -0.76414,0.30855q-0.40086,0.30855 -0.8017,0.85012q-0.39457,0.53526 -0.76407,1.27205q-0.36325,0.73048 -0.65758,1.58691q-0.29434,0.85013 -0.48843,1.78213q-0.19411,0.93201 -0.24415,1.86402l-1.3091,0.16363l-0.10014,-0.0076q0.05,-0.59824 0.0938,-1.30354q0.0437,-0.70531 0.0814,-1.4295q0.0376,-0.73049 0.0626,-1.4421q0.0312,-0.71788 0.05,-1.33503q0.025,-0.62344 0.0312,-1.11462q0.0123,-0.49121 0.0124,-0.77458l-0.00026,0.00078z" id="path6088"/>
    <path stroke="null" stroke-width="1.824405" d="m108.36561,45.930318q-0.20901,1.30412 -0.40091,2.66984q-0.1919,1.36572 -0.33785,2.72113q-0.14592,1.35542 -0.23435,2.66974q-0.0884,1.31432 -0.0905,2.52077q-0.001,0.58012 0.01,0.99597q0.0166,0.41583 0.0447,0.70331q0.034,0.28746 0.0853,0.45685q0.0572,0.16939 0.13744,0.26176q0.0859,0.09235 0.19506,0.12313q0.10904,0.02552 0.25843,0.02548q0.27569,-0.00015 0.59169,-0.07227q0.32178,-0.07716 0.64938,-0.21086l0.10861,0.2669q-0.20702,0.14899 -0.52318,0.3032q-0.3104,0.15419 -0.65524,0.28274q-0.34483,0.12854 -0.67809,0.20575q-0.32752,0.08237 -0.56875,0.08251q-0.17804,0.00009 -0.31009,-0.0358q-0.13212,-0.03585 -0.2295,-0.12821q-0.0918,-0.08725 -0.16043,-0.23608q-0.0628,-0.14883 -0.10272,-0.37984q-0.0512,-0.30798 -0.0849,-0.71868q-0.028,-0.41069 -0.0271,-0.89327q0.001,-0.5134 0.042,-1.0422q0.0468,-0.53395 0.14543,-1.06279l-0.0517,-0.01016q-0.44407,1.04244 -0.96819,1.8847q-0.51837,0.84225 -1.07077,1.4381q-0.55238,0.59584 -1.11007,0.9196q-0.55767,0.31864 -1.06884,0.31893q-0.51691,0.0003 -0.88983,-0.23564q-0.37293,-0.2308 -0.6135,-0.61056q-0.23481,-0.38491 -0.34882,-0.87769q-0.11407,-0.49792 -0.11317,-1.02156q0.001,-0.63147 0.15729,-1.2425q0.15606,-0.61614 0.44427,-1.16563q0.29386,-0.54951 0.70246,-1.01692q0.40861,-0.47255 0.91461,-0.81168q0.50602,-0.33913 1.09218,-0.52942q0.59192,-0.19544 1.24092,-0.19582q0.45374,-0.00026 0.90155,0.10221q0.45356,0.10246 0.90114,0.33831q0.0301,-0.87277 0.072,-1.77121q0.0475,-0.90359 0.10642,-1.75585q0.059,-0.85225 0.12911,-1.61211q0.0701,-0.75985 0.15163,-1.35542q0.0175,-0.12326 0.0922,-0.21054q0.0749,-0.09245 0.18979,-0.14387q0.11503,-0.05657 0.2586,-0.08222q0.14362,-0.02569 0.29296,-0.02579q0.34461,-0.00021 0.72339,0.16385l-0.00006,-0.00019zm-2.07443,7.2348q-0.77479,-0.32812 -1.53867,-0.32767q-0.55713,0.00033 -1.02837,0.15977q-0.46548,0.15941 -0.83931,0.44199q-0.3738,0.27745 -0.6559,0.65752q-0.28206,0.37494 -0.46661,0.81142q-0.18454,0.43136 -0.28299,0.89858q-0.0926,0.46724 -0.0935,0.92928q-0.00028,0.16429 0.0166,0.37991q0.0169,0.21048 0.0625,0.44146q0.0514,0.22587 0.1314,0.44658q0.08,0.21558 0.20035,0.39005q0.12032,0.17448 0.28669,0.28219q0.17212,0.10264 0.40187,0.1025q0.41353,-0.00024 0.84477,-0.27772q0.43124,-0.27747 0.83981,-0.73463q0.41433,-0.45715 0.77718,-1.04776q0.36861,-0.5906 0.65111,-1.21196q0.28825,-0.62651 0.46735,-1.2324q0.18486,-0.61104 0.22592,-1.10905l-0.0002,-0.00006z" id="path6092"/>
    <path stroke="null" stroke-width="1.824405" d="m112.3561,53.279648q-0.00061,0.34911 -0.0301,0.74958q-0.0237,0.39531 -0.0646,0.80604q-0.0352,0.41073 -0.0818,0.82147q-0.0409,0.40559 -0.0818,0.77011q-0.0351,0.36454 -0.0642,0.67258q-0.0235,0.30292 -0.0238,0.50826q-0.001,0.61094 0.2569,0.89314q0.25798,0.28222 0.68874,0.28196q0.4882,-0.00029 1.00017,-0.46777q0.51198,-0.47261 0.97877,-1.37643q0.46677,-0.90384 0.79612,-2.02835q0.32932,-1.12962 0.42347,-2.43369l1.21785,-0.13415l0.092,0.0062q-0.0526,0.48775 -0.0995,1.0371q-0.0412,0.54421 -0.0766,1.09355q-0.0355,0.54421 -0.0536,1.06788q-0.0181,0.52366 -0.0189,0.96517q-0.001,0.83683 0.10669,1.37068q0.10816,0.52871 0.27999,0.83664q0.17178,0.30281 0.38982,0.42076q0.22381,0.11279 0.44779,0.11266q0.13219,-0.00008 0.25852,-0.031q0.13208,-0.03088 0.2471,-0.07201q0.115,-0.04634 0.20693,-0.09761q0.0977,-0.05138 0.16673,-0.0925l0.18911,0.23605q-0.16682,0.15411 -0.37957,0.29286q-0.21274,0.13355 -0.4484,0.23127q-0.23566,0.10288 -0.4942,0.15945q-0.25857,0.05655 -0.52276,0.05679q-0.33312,0.0002 -0.64881,-0.11763q-0.30995,-0.11783 -0.55069,-0.39499q-0.24076,-0.27708 -0.38928,-0.73905q-0.14278,-0.46196 -0.14159,-1.14989q0.00038,-0.22076 0.0123,-0.44666q0.0117,-0.22589 0.0354,-0.47745q0.0234,-0.25158 0.0584,-0.53911q0.0407,-0.29265 0.093,-0.64178l-0.0631,-0.01015q-0.39281,1.28884 -0.85379,2.16186q-0.45525,0.87302 -0.93863,1.40722q-0.47762,0.5342 -0.96046,0.76036q-0.48287,0.23131 -0.91936,0.23157q-0.32737,0.00019 -0.63161,-0.10236q-0.29849,-0.09732 -0.53358,-0.32312q-0.23508,-0.23089 -0.37801,-0.60558q-0.13724,-0.37469 -0.13629,-0.92401q0.00063,-0.35937 0.0473,-0.83172q0.0467,-0.47746 0.0994,-1.01141q0.0584,-0.5391 0.1053,-1.10898q0.0469,-0.57502 0.0479,-1.13461q0.0004,-0.22589 -0.0166,-0.39017q-0.0169,-0.16427 -0.0742,-0.27205q-0.0573,-0.10779 -0.17203,-0.15905q-0.10898,-0.05131 -0.30431,-0.05116q-0.19527,0.00012 -0.51126,0.05164q-0.31024,0.05156 -0.655,0.13906l-0.0855,-0.36958q0.47122,-0.14917 0.87345,-0.2572q0.40798,-0.11316 0.724,-0.18524q0.32175,-0.0721 0.54006,-0.10815q0.22407,-0.03609 0.32745,-0.03613q0.20677,-0.00011 0.33875,0.06657q0.13206,0.06674 0.21217,0.19496q0.0802,0.12829 0.10853,0.30796q0.0342,0.17968 0.0338,0.41069l0.00002,-0.00135z" id="path6094"/>
    <path stroke="null" stroke-width="1.824405" d="m124.54748,54.427648q0.16132,-0.28246 0.16182,-0.57509q0.00035,-0.20022 -0.0798,-0.37472q-0.0744,-0.17965 -0.22921,-0.31304q-0.1549,-0.13858 -0.39018,-0.21539q-0.22958,-0.08193 -0.53974,-0.08175q-0.44798,0.00026 -0.80433,0.14423q-0.35634,0.13889 -0.63245,0.38541q-0.27036,0.24658 -0.46621,0.57014q-0.19008,0.32354 -0.31709,0.69324q-0.12126,0.36972 -0.17935,0.75992q-0.0581,0.38507 -0.0587,0.75472q-0.001,0.66226 0.18744,1.20634q0.19435,0.53893 0.52107,0.92378q0.32671,0.37971 0.76285,0.58995q0.43615,0.21023 0.93007,0.20994q0.52267,-0.0003 1.05723,-0.2419q0.54031,-0.24674 1.04668,-0.79123q0.0345,0.01537 0.086,0.04628q0.0575,0.02553 0.10327,0.06149q0.0458,0.03596 0.0803,0.07184q0.0345,0.03596 0.0345,0.06681q-0.00004,0.02051 -0.007,0.02564l-0.0114,0.02051q-0.55851,0.80634 -1.3403,1.20724q-0.78181,0.4009 -1.71226,0.40144q-0.50542,0.00029 -0.93022,-0.1278q-0.42479,-0.123 -0.76902,-0.34353q-0.34422,-0.22567 -0.6079,-0.52842q-0.25793,-0.30788 -0.43536,-0.66202q-0.17167,-0.35927 -0.2629,-0.74938q-0.0854,-0.39526 -0.0847,-0.79569q0.001,-0.53906 0.13387,-1.0782q0.13314,-0.54426 0.38664,-1.04239q0.25932,-0.50327 0.6219,-0.93472q0.36834,-0.4366 0.82837,-0.75516q0.46579,-0.3237 1.02322,-0.50372q0.55741,-0.18514 1.18921,-0.18552q0.47096,-0.00027 0.87858,0.10223q0.40759,0.10248 0.70019,0.29223q0.29834,0.18464 0.46445,0.45149q0.17185,0.26173 0.17128,0.58516q-0.00037,0.21049 -0.0754,0.37483q-0.0691,0.15918 -0.2015,0.27733q-0.12652,0.11299 -0.3047,0.17473q-0.1724,0.05653 -0.37918,0.05675q-0.12632,0.00008 -0.26416,-0.02035q-0.13214,-0.02552 -0.26406,-0.07683l-0.02182,-0.05682z" id="path6096"/>
    <path stroke="null" stroke-width="1.824405" d="m131.79001,54.418278q0.0007,-0.40557 -0.14806,-0.70325q-0.14877,-0.29767 -0.38972,-0.48748q-0.2409,-0.18982 -0.54514,-0.28206q-0.30424,-0.09222 -0.60865,-0.09204q-0.40778,0.00024 -0.68934,0.07737q-0.28157,0.07713 -0.45985,0.21075q-0.17254,0.13354 -0.25327,0.31844q-0.075,0.17973 -0.0753,0.39023q-0.00042,0.24642 0.0968,0.49792q0.10294,0.24636 0.29782,0.48241l-0.0231,0.05648q-0.32764,0.14396 -0.66076,0.14416q-0.19527,0.0001 -0.36749,-0.05117q-0.16646,-0.05643 -0.29263,-0.15899q-0.12045,-0.10265 -0.19486,-0.25145q-0.0686,-0.14882 -0.0683,-0.33364q0.00053,-0.3029 0.16183,-0.56995q0.16704,-0.26708 0.43735,-0.48799q0.27033,-0.2209 0.62672,-0.39567q0.3564,-0.17476 0.73567,-0.29305q0.3793,-0.12347 0.75846,-0.18526q0.38494,-0.06703 0.71232,-0.06717q0.60305,-0.00036 1.02782,0.14317q0.43051,0.14351 0.69423,0.42055q0.26949,0.27194 0.38942,0.66205q0.12565,0.39011 0.12479,0.88294q-0.00057,0.33884 -0.0358,0.74444q-0.0293,0.40559 -0.0703,0.85226q-0.0409,0.44154 -0.0763,0.91386q-0.0295,0.47234 -0.0303,0.93952q-0.0009,0.73928 0.30247,1.11387q0.3095,0.36945 0.80919,0.36916q0.44224,-0.00026 0.98837,-0.29321l0.16619,0.22065q-0.38542,0.3442 -0.83946,0.52415q-0.45404,0.17995 -0.95371,0.18025q-0.37333,0.00021 -0.68904,-0.11252q-0.31568,-0.11274 -0.54504,-0.33338q-0.22934,-0.22575 -0.35512,-0.56452q-0.12573,-0.33875 -0.12497,-0.7854q0.00023,-0.13343 0.007,-0.26696q0.0116,-0.13345 0.0407,-0.28239l-0.0345,0.00002q-0.24773,0.44166 -0.57585,0.87309q-0.32238,0.42629 -0.71353,0.76536q-0.38538,0.33393 -0.82799,0.53954q-0.43687,0.21075 -0.91932,0.21103q-0.3963,0.00023 -0.72346,-0.12282q-0.32717,-0.12306 -0.56229,-0.33852q-0.22935,-0.21548 -0.36096,-0.50803q-0.1258,-0.29769 -0.1252,-0.64678q0.00078,-0.45178 0.18519,-0.82154q0.19019,-0.36973 0.51808,-0.66257q0.33363,-0.29282 0.79346,-0.50357q0.45985,-0.21589 0.99999,-0.35482q0.54013,-0.14409 1.14331,-0.21115q0.60318,-0.07227 1.22923,-0.0726q0.0408,-0.32345 0.0642,-0.62636q0.0292,-0.30292 0.0298,-0.66742l-0.0008,0.00006zm-3.5326,3.52901q-0.00034,0.20023 0.0453,0.38502q0.0513,0.17966 0.15458,0.3182q0.10884,0.13861 0.26956,0.2206q0.16644,0.07686 0.39617,0.07671q0.25847,-0.00015 0.53434,-0.10814q0.27586,-0.10799 0.5404,-0.29808q0.27027,-0.19011 0.51195,-0.45207q0.24743,-0.2671 0.44325,-0.58039q0.19582,-0.31327 0.32278,-0.65733q0.13262,-0.34917 0.17353,-0.71369q-0.42504,0.01045 -0.84438,0.05191q-0.41934,0.03617 -0.79855,0.11848q-0.37348,0.0823 -0.69533,0.21605q-0.32186,0.13361 -0.5577,0.334q-0.23008,0.19523 -0.36264,0.4674q-0.13249,0.26703 -0.13311,0.62127l-0.00015,0.00006z" id="path6098"/>
    <path stroke="null" stroke-width="1.824405" d="m138.37062,48.592648q-0.24292,0.97557 -0.41128,2.01784q-0.16262,1.03712 -0.27922,2.04856q0.26991,0.01 0.52262,0.01508q0.25844,0.006 0.47669,0.0099q0.22399,0.006 0.40204,0.0058q0.18379,-0.00011 0.3044,-0.00018q0.52264,-0.0003 0.85588,-0.05696q0.0285,0.08729 0.0456,0.15912q0.0171,0.07187 0.017,0.13342q-0.00039,0.22589 -0.21301,0.29275q-0.20688,0.0669 -0.60318,0.06712q-0.37906,0.00022 -0.84997,-0.04054q-0.46514,-0.04075 -1.02219,-0.0764q-0.0641,0.54935 -0.11092,1.07303q-0.0411,0.51855 -0.0706,0.98061q-0.0237,0.46207 -0.036,0.85739q-0.0121,0.3953 -0.0125,0.68792q-0.001,0.54933 0.0614,0.98053q0.0624,0.43122 0.22273,0.73401q0.16032,0.29769 0.44144,0.45667q0.28116,0.15899 0.71193,0.15873q0.31014,-0.00018 0.68938,-0.0979q0.38497,-0.09771 0.87355,-0.31366q0.15489,0.13857 0.17747,0.33872q-0.35648,0.21071 -0.71861,0.38546q-0.36213,0.16963 -0.7127,0.29306q-0.35057,0.12345 -0.67805,0.19035q-0.32749,0.06699 -0.62042,0.06715q-0.38481,0.00023 -0.70623,-0.12793q-0.31566,-0.12306 -0.55059,-0.44119q-0.22919,-0.3233 -0.36035,-0.86741q-0.12539,-0.54411 -0.12395,-1.3758q0.00083,-0.46717 0.019,-0.96003q0.0181,-0.498 0.0477,-1.00626q0.0298,-0.50828 0.0765,-1.01656q0.0467,-0.50827 0.10511,-1.00116q-0.45375,0.006 -0.84437,0.03641q-0.38485,0.02581 -0.66064,0.08769q-0.0172,-0.03081 -0.0172,-0.07187q0.0002,-0.10782 0.11529,-0.20029q0.12079,-0.09756 0.32767,-0.17474q0.21263,-0.07713 0.50563,-0.12864q0.29303,-0.05155 0.64341,-0.07224q0.13388,-1.07304 0.28494,-2.02803q0.15093,-0.95498 0.3016,-1.70462q0.0289,-0.13345 0.10376,-0.22081q0.0806,-0.08736 0.18403,-0.13878q0.10347,-0.0514 0.22412,-0.07199q0.12067,-0.02059 0.23552,-0.02065q0.18953,-0.00011 0.3388,0.03575q0.15508,0.03588 0.28699,0.10256l-0.00022,-0.00099z" id="path6100"/>
    <path stroke="null" stroke-width="1.824405" d="m142.86506,50.145578q-0.20101,0.00012 -0.35597,-0.07171q-0.15501,-0.07686 -0.26385,-0.19494q-0.10887,-0.12318 -0.1661,-0.27711q-0.0572,-0.15913 -0.0569,-0.32342q0.0004,-0.23101 0.0868,-0.40562q0.0864,-0.17973 0.22452,-0.29789q0.1381,-0.12333 0.30471,-0.17986q0.16666,-0.06162 0.32748,-0.06173q0.19529,-0.00011 0.35023,0.06656q0.15504,0.06148 0.26391,0.17439q0.11474,0.11285 0.17185,0.26173q0.0629,0.14373 0.0626,0.31312q-0.00031,0.1797 -0.0695,0.35942q-0.0692,0.1746 -0.19582,0.31841q-0.12088,0.14383 -0.29906,0.2312q-0.17245,0.08741 -0.38496,0.08753l0.00006,-0.00008zm0.49567,2.32019q-0.0986,0.58533 -0.1686,1.17576q-0.0698,0.5853 -0.1169,1.13464q-0.0412,0.54935 -0.065,1.04221q-0.0181,0.48774 -0.0188,0.88305q-0.001,0.53392 0.0157,0.91894q0.0166,0.3799 0.0563,0.64169q0.0397,0.26182 0.0969,0.42093q0.0628,0.15397 0.14887,0.2412q0.0918,0.082 0.20657,0.10771q0.1206,0.02552 0.2699,0.02548q0.27569,-0.00017 0.59171,-0.07227q0.32176,-0.07715 0.64938,-0.21086l0.10861,0.26689q-0.20702,0.14899 -0.52318,0.3032q-0.31042,0.1542 -0.65524,0.28274q-0.34483,0.12854 -0.67809,0.20576q-0.32752,0.08245 -0.56874,0.08251q-0.16083,0.00009 -0.29288,-0.02539q-0.13199,-0.02047 -0.24103,-0.11277q-0.10321,-0.09235 -0.18907,-0.27198q-0.0801,-0.17965 -0.13704,-0.48763q-0.0511,-0.30801 -0.0791,-0.77004q-0.0278,-0.46204 -0.0267,-1.11916q0.00067,-0.38504 0.008,-0.86763q0.0123,-0.48773 0.0304,-1.04219q0.0182,-0.5596 0.0479,-1.17569q0.0297,-0.62121 0.0769,-1.27837q0.0116,-0.14377 0.0865,-0.23107q0.0749,-0.09244 0.18404,-0.13878q0.10915,-0.05141 0.22984,-0.06693q0.12636,-0.0206 0.22978,-0.02064q0.38481,-0.00023 0.7234,0.15872l-0.00033,-0.00003z" id="path6102"/>
    <path stroke="null" stroke-width="1.824405" d="m145.5416,56.735858q0.001,-0.51853 0.12245,-1.05251q0.12155,-0.53398 0.35789,-1.03211q0.23635,-0.50325 0.58171,-0.93984q0.35111,-0.4417 0.80542,-0.77054q0.45429,-0.32883 1.01175,-0.51911q0.55745,-0.19028 1.2122,-0.19066q0.73516,-0.00043 1.29755,0.27647q0.56812,0.27688 0.95213,0.73359q0.38405,0.45154 0.57831,1.03157q0.20003,0.57999 0.19898,1.18578q-0.001,0.51853 -0.12245,1.05253q-0.12155,0.53399 -0.36364,1.03723q-0.23635,0.49812 -0.58746,0.93984q-0.34537,0.43659 -0.79966,0.76542q-0.45431,0.32883 -1.01177,0.51911q-0.55744,0.19028 -1.21218,0.19066q-0.73517,0.00043 -1.30329,-0.27647q-0.5624,-0.2769 -0.94642,-0.72845q-0.37828,-0.45668 -0.57829,-1.03669q-0.19428,-0.58002 -0.19323,-1.18582zm1.37354,-0.48852q-0.00061,0.3491 0.0562,0.70844q0.0625,0.35934 0.18834,0.69297q0.12575,0.33363 0.30907,0.62614q0.18903,0.28739 0.44137,0.50285q0.25809,0.21547 0.57376,0.33851q0.32142,0.12306 0.70623,0.12283q0.41929,-0.00024 0.73544,-0.15957q0.32193,-0.16447 0.55212,-0.43156q0.23594,-0.2671 0.38587,-0.61116q0.15572,-0.34406 0.24819,-0.7086q0.0926,-0.3697 0.1276,-0.72909q0.0408,-0.3594 0.0413,-0.66228q0.00062,-0.35424 -0.0619,-0.70844q-0.0569,-0.35934 -0.18261,-0.68784q-0.12574,-0.33362 -0.31481,-0.621q-0.18329,-0.29254 -0.44137,-0.50287q-0.25234,-0.21548 -0.57376,-0.33849q-0.31568,-0.12307 -0.70049,-0.12284q-0.41929,0.00025 -0.74119,0.15958q-0.31617,0.15935 -0.55212,0.42645q-0.23019,0.26709 -0.38585,0.61114q-0.14989,0.34407 -0.24246,0.70861q-0.0925,0.36457 -0.13328,0.72909q-0.0351,0.35938 -0.0356,0.65715l-0.00005,-0.00002z" id="path6104"/>
    <path stroke="null" stroke-width="1.824405" d="m155.04066,53.778348q0.00036,-0.21048 -0.0339,-0.35422q-0.0342,-0.14375 -0.10868,-0.22583q-0.0687,-0.08727 -0.17783,-0.12315q-0.10901,-0.03586 -0.25841,-0.03576q-0.20676,0.00012 -0.49401,0.05162q-0.28727,0.05154 -0.65501,0.13907l-0.0855,-0.36959q0.40802,-0.12858 0.78152,-0.23149q0.37925,-0.10804 0.69528,-0.18522q0.31602,-0.07717 0.55731,-0.11848q0.24131,-0.04118 0.37915,-0.04126q0.33312,-0.0002 0.51661,0.17937q0.18923,0.17445 0.18849,0.60569q-0.00009,0.05136 -0.0118,0.2413q-0.0117,0.18482 -0.0353,0.47234q-0.0177,0.2875 -0.047,0.66229q-0.0294,0.36966 -0.0702,0.79065q-0.0353,0.421 -0.082,0.8728q-0.0467,0.44668 -0.0993,0.89334l0.0344,0.0058q0.4388,-1.32478 0.94006,-2.23377q0.50125,-0.91411 1.01914,-1.47914q0.5179,-0.57015 1.02951,-0.82201q0.51161,-0.25186 0.97684,-0.25214q0.32162,-0.00018 0.62009,0.10747q0.29847,0.10765 0.5278,0.34365q0.23508,0.23603 0.37228,0.61071q0.13725,0.36956 0.13633,0.89835q-0.00026,0.154 -0.0236,0.41586q-0.0177,0.25669 -0.0469,0.57502q-0.0292,0.31831 -0.0701,0.67771q-0.0351,0.35425 -0.0644,0.69823q-0.0292,0.34399 -0.0528,0.65717q-0.0178,0.30804 -0.0182,0.53906q-0.0007,0.40043 0.0333,0.65198q0.0397,0.25153 0.12564,0.40035q0.0858,0.14372 0.22938,0.20009q0.14349,0.05123 0.35027,0.05117q0.29866,-0.00017 0.62041,-0.07219q0.32177,-0.07715 0.64938,-0.21086l0.1086,0.2669q-0.20702,0.14899 -0.52315,0.3032q-0.31617,0.1542 -0.66675,0.28274q-0.34481,0.12854 -0.68957,0.20577q-0.34476,0.08245 -0.60895,0.08252q-0.31015,0.00018 -0.48794,-0.1486q-0.17779,-0.14878 -0.26924,-0.40542q-0.0857,-0.25664 -0.11389,-0.60059q-0.0223,-0.34395 -0.0216,-0.73926q0.00089,-0.48258 0.0363,-0.99085q0.0412,-0.5134 0.0878,-0.97549q0.0467,-0.46207 0.0819,-0.83686q0.0409,-0.37994 0.0413,-0.60583q0.001,-0.60064 -0.25119,-0.88286q-0.25221,-0.28736 -0.67149,-0.28711q-0.33312,0.00019 -0.70115,0.25197q-0.36801,0.25178 -0.73636,0.69351q-0.36259,0.43659 -0.7025,1.03744q-0.33415,0.59572 -0.6053,1.29408q-0.27113,0.69323 -0.4505,1.45314q-0.17938,0.75992 -0.22663,1.51976l-1.20062,0.13413l-0.092,-0.0058q0.0468,-0.48775 0.0879,-1.06276q0.0412,-0.57501 0.0768,-1.16543q0.0355,-0.59554 0.0595,-1.17569q0.0297,-0.58526 0.0478,-1.0884q0.0238,-0.50826 0.0303,-0.9087q0.0121,-0.40045 0.0126,-0.63146l-0.00022,-0.00003z" id="path6106"/>
    <path stroke="null" stroke-width="2.201089" id="path6109" d="m56.0976,29.515668q0.00015,-0.26333 -0.03984,-0.44317q-0.03999,-0.17987 -0.12679,-0.28259q-0.08013,-0.10922 -0.20705,-0.15416q-0.12695,-0.04492 -0.30067,-0.04487q-0.24056,0.00004 -0.5747,0.06434q-0.33414,0.06434 -0.76186,0.17366l-0.09996,-0.46243q0.47452,-0.16067 0.90893,-0.28924q0.4411,-0.13499 0.80868,-0.23139q0.36757,-0.0964 0.64825,-0.14797q0.28067,-0.0514 0.44104,-0.05144q0.38756,-0.00009 0.60126,0.22467q0.22038,0.21834 0.22006,0.75787q-0.00003,0.06426 -0.01362,0.30188q-0.01358,0.23122 -0.04045,0.59093q-0.02027,0.35968 -0.05396,0.82857q-0.03367,0.46247 -0.08077,0.98915q-0.04041,0.5267 -0.09418,1.09193q-0.05379,0.55881 -0.11427,1.11762l0.04011,0.0068q0.50881,-1.65723 1.09082,-2.79423q0.58201,-1.14341 1.18382,-1.85006q0.60181,-0.71308 1.1967,-1.02793q0.59489,-0.31486 1.13614,-0.31498q0.3742,-0.00008 0.72159,0.13475q0.34739,0.13482 0.6145,0.43019q0.27379,0.29542 0.43389,0.76426q0.16009,0.46241 0.1597,1.12399q-0.00011,0.19268 -0.02703,0.52027q-0.02024,0.32114 -0.05389,0.71939q-0.03364,0.39823 -0.08069,0.84785q-0.04036,0.44319 -0.07402,0.87353q-0.03366,0.43035 -0.06062,0.82216q-0.02026,0.38539 -0.02043,0.67442q-0.0003,0.50099 0.03961,0.81571q0.0466,0.31471 0.14671,0.50095q0.10013,0.17985 0.26714,0.25044q0.16701,0.06421 0.40757,0.06421q0.34747,-0.00007 0.72172,-0.09005q0.37426,-0.0964 0.75523,-0.2635l0.12676,0.33397q-0.24067,0.1863 -0.60829,0.37909q-0.36764,0.19276 -0.77534,0.35342q-0.40102,0.16066 -0.802,0.2571q-0.40099,0.10295 -0.70836,0.10301q-0.36084,0.00007 -0.56787,-0.18616q-0.20704,-0.1862 -0.31376,-0.50734q-0.10004,-0.32114 -0.1332,-0.75147q-0.02647,-0.43032 -0.02618,-0.9249q0.0003,-0.60376 0.04083,-1.23964q0.04716,-0.6423 0.10095,-1.2204q0.05381,-0.57808 0.09416,-1.04696q0.04706,-0.47532 0.04723,-0.75793q0.00045,-0.75147 -0.29336,-1.10468q-0.2938,-0.35963 -0.7816,-0.35953q-0.38756,0.00009 -0.8154,0.3149q-0.42784,0.31483 -0.85582,0.8673q-0.42129,0.54605 -0.81598,1.29762q-0.388,0.74514 -0.70257,1.61873q-0.31457,0.86719 -0.52227,1.81782q-0.20771,0.95065 -0.26172,1.90126l-1.39666,0.16724l-0.10691,-0.0077q0.05382,-0.6102 0.10101,-1.32959q0.04721,-0.71938 0.08774,-1.45802q0.04053,-0.74508 0.06768,-1.47089q0.03384,-0.73222 0.05427,-1.36168q0.0271,-0.63588 0.03408,-1.13687q0.01375,-0.50101 0.01392,-0.79003l-0.00001,0.0008z"/>
    <path stroke="null" stroke-width="2.201089" id="path6111" d="m69.8752,19.659858q-0.13428,1.09194 -0.2686,2.24168q-0.12763,1.14333 -0.24861,2.31875q-0.11429,1.16902 -0.21521,2.35087q-0.10091,1.18185 -0.17509,2.33158q-0.07417,1.1433 -0.11493,2.24807q-0.04075,1.10476 -0.04134,2.1196q-0.00038,0.63587 0.01283,1.09189q0.01983,0.45604 0.05299,0.77075q0.03994,0.31472 0.09993,0.5074q0.06673,0.19266 0.16021,0.29541q0.09348,0.10267 0.22042,0.14123q0.12695,0.03203 0.30068,0.03198q0.32074,-0.00007 0.6883,-0.09012q0.37426,-0.0964 0.75524,-0.2635l0.12676,0.33397q-0.24067,0.1863 -0.6083,0.37908q-0.36095,0.19277 -0.76197,0.35343q-0.40102,0.16064 -0.78864,0.25709q-0.38093,0.10294 -0.66158,0.103q-0.36084,0.00008 -0.57456,-0.17975q-0.20704,-0.17344 -0.3204,-0.57156q-0.10668,-0.39822 -0.13972,-1.03409q-0.02635,-0.64229 -0.02581,-1.56077q0.0002,-0.33399 0.0206,-0.95061q0.0204,-0.62304 0.05429,-1.44518q0.04057,-0.82217 0.08793,-1.79846q0.04736,-0.9763 0.10141,-2.01684q0.05406,-1.04695 0.11484,-2.10676q0.06076,-1.06624 0.1215,-2.05538q0.06072,-0.99558 0.1147,-1.87553q0.05396,-0.87997 0.10115,-1.55439q0.0067,-0.1542 0.09369,-0.26336q0.08693,-0.11563 0.22061,-0.17991q0.14037,-0.07062 0.30743,-0.10275q0.17376,-0.03207 0.3475,-0.03212q0.40093,-0.00008 0.84182,0.20536l-0.00007,-0.00006z"/>
    <path stroke="null" stroke-width="2.201089" id="path6113" d="m73.94817,24.957968q-0.23387,0.00005 -0.41424,-0.08989q-0.18036,-0.09623 -0.30723,-0.24401q-0.12686,-0.15417 -0.19359,-0.34679q-0.06673,-0.19911 -0.06657,-0.40465q0.00018,-0.28902 0.10053,-0.50743q0.10036,-0.22482 0.26082,-0.37259q0.16047,-0.15423 0.35428,-0.22488q0.19383,-0.07701 0.38093,-0.07707q0.22719,-0.00005 0.40755,0.08345q0.18038,0.07699 0.30726,0.21832q0.13355,0.14124 0.20026,0.32753q0.07335,0.17986 0.07328,0.39178q-0.00012,0.22482 -0.08052,0.44963q-0.08035,0.21841 -0.22743,0.39827q-0.14042,0.1799 -0.34764,0.28912q-0.20052,0.10927 -0.44775,0.10932l0.00006,-0.00011zm0.57964,2.90305q-0.11403,0.73225 -0.19466,1.47091q-0.08065,0.73224 -0.13447,1.4195q-0.04722,0.68728 -0.0743,1.30389q-0.02046,0.61019 -0.02066,1.10476q-0.00058,0.66798 0.01931,1.14971q0.01982,0.4753 0.06636,0.80285q0.04663,0.32758 0.1133,0.52668q0.07343,0.19266 0.17355,0.30183q0.10692,0.10265 0.24048,0.13485q0.1403,0.03201 0.31403,0.03197q0.32075,-0.00006 0.68832,-0.09012q0.37425,-0.0964 0.75523,-0.2635l0.12675,0.33396q-0.24066,0.18632 -0.60829,0.3791q-0.36095,0.19275 -0.76197,0.35341q-0.40102,0.16066 -0.78863,0.2571q-0.38096,0.10294 -0.6616,0.103q-0.1871,0.00004 -0.34076,-0.03194q-0.15368,-0.02565 -0.28056,-0.14121q-0.12023,-0.11558 -0.22032,-0.34037q-0.09341,-0.22479 -0.16002,-0.61015q-0.05988,-0.38537 -0.09297,-0.96343q-0.03306,-0.57806 -0.03261,-1.40021q0.00029,-0.48172 0.00691,-1.08548q0.01376,-0.61019 0.03419,-1.30388q0.02044,-0.7001 0.05433,-1.47088q0.03389,-0.77719 0.08782,-1.59934q0.01353,-0.17987 0.1004,-0.28905q0.08697,-0.11561 0.21392,-0.17354q0.127,-0.06426 0.26735,-0.08362q0.14701,-0.02571 0.26729,-0.02571q0.4477,-0.00009 0.84183,0.19893l0.00045,-0.00002z"/>
    <path stroke="null" stroke-width="2.201089" id="path6115" d="m78.38909,29.510908q0.00015,-0.26334 -0.03976,-0.44317q-0.04004,-0.17986 -0.12679,-0.28259q-0.0801,-0.10922 -0.20704,-0.15416q-0.12693,-0.04492 -0.30067,-0.04487q-0.24055,0.00005 -0.5747,0.06434q-0.33414,0.06434 -0.76186,0.17365l-0.1,-0.46241q0.47451,-0.16068 0.90894,-0.28925q0.44108,-0.135 0.80866,-0.23139q0.36758,-0.0964 0.64825,-0.14797q0.28068,-0.0514 0.44106,-0.05144q0.38756,-0.00008 0.60125,0.22467q0.22038,0.21834 0.22006,0.75787q-0.00004,0.06426 -0.01362,0.30188q-0.01357,0.23122 -0.04036,0.59093q-0.02027,0.35968 -0.05393,0.82856q-0.03366,0.46247 -0.08075,0.98916q-0.04049,0.52671 -0.09414,1.09192q-0.05382,0.55883 -0.11422,1.11763l0.0401,0.0068q0.50882,-1.65724 1.09082,-2.79424q0.58201,-1.1434 1.18383,-1.85006q0.60179,-0.71308 1.19669,-1.02794q0.59489,-0.31486 1.13615,-0.31497q0.3742,-0.00008 0.72158,0.13474q0.34739,0.13483 0.6145,0.43021q0.27379,0.29541 0.43389,0.76425q0.16009,0.46241 0.1597,1.12398q-0.00011,0.19269 -0.027,0.52028q-0.02024,0.32115 -0.05385,0.71938q-0.03369,0.39823 -0.08073,0.84786q-0.04034,0.44319 -0.07406,0.87353q-0.03363,0.43034 -0.06063,0.82215q-0.02029,0.3854 -0.02034,0.67442q-0.0003,0.50099 0.03965,0.81571q0.04655,0.31472 0.14673,0.50096q0.10015,0.17984 0.26713,0.25044q0.16701,0.06421 0.40757,0.06421q0.34747,-0.00007 0.72172,-0.09005q0.37425,-0.0964 0.75523,-0.2635l0.12676,0.33397q-0.24068,0.18631 -0.60829,0.37908q-0.36763,0.19276 -0.77534,0.35343q-0.40102,0.16065 -0.802,0.25709q-0.40099,0.10295 -0.70836,0.10302q-0.36084,0.00007 -0.56788,-0.18615q-0.20703,-0.18622 -0.31376,-0.50735q-0.10002,-0.32114 -0.13318,-0.75146q-0.02646,-0.43034 -0.02626,-0.92491q0.00041,-0.60376 0.04085,-1.23964q0.04718,-0.64231 0.10091,-1.22041q0.05383,-0.57808 0.09414,-1.04695q0.04715,-0.47531 0.04727,-0.75793q0.00079,-0.75148 -0.29337,-1.10468q-0.2938,-0.35963 -0.78159,-0.35953q-0.38756,0.00008 -0.8154,0.3149q-0.42785,0.31482 -0.85582,0.8673q-0.42131,0.54604 -0.81599,1.29762q-0.38799,0.74515 -0.70257,1.61873q-0.31456,0.86718 -0.52227,1.81782q-0.2077,0.95065 -0.26172,1.90126l-1.39666,0.16724l-0.10693,-0.0077q0.05377,-0.61019 0.10096,-1.32957q0.04716,-0.71939 0.08772,-1.45804q0.04057,-0.74507 0.06764,-1.47088q0.03386,-0.73222 0.05425,-1.36168q0.02709,-0.63588 0.03408,-1.13687q0.01368,-0.501 0.0139,-0.79003l-0.00015,0.0008z"/>
    <path stroke="null" stroke-width="2.201089" id="path6117" d="m95.66581,34.902508q0.04008,0.01931 0.10013,0.05782q0.06685,0.03198 0.12024,0.07695q0.05337,0.03853 0.09349,0.08996q0.04014,0.04498 0.04011,0.0899q-0.00003,0.02568 -0.02013,0.05138q-0.37451,0.50107 -0.80907,0.8737q-0.42788,0.36619 -0.89576,0.6168q-0.46119,0.24417 -0.94239,0.35988q-0.48118,0.12207 -0.94893,0.12218q-0.80184,0.00017 -1.46987,-0.31442q-0.66803,-0.31459 -1.14881,-0.86044q-0.48079,-0.54585 -0.75433,-1.27801q-0.26684,-0.7386 -0.26636,-1.58q0.00064,-0.68726 0.15451,-1.37454q0.16077,-0.6873 0.45515,-1.31039q0.30106,-0.62311 0.72903,-1.1563q0.42797,-0.53962 0.96946,-0.93154q0.54816,-0.39834 1.19645,-0.62328q0.65497,-0.22496 1.40337,-0.22511q0.49447,-0.00011 0.94211,0.12832q0.44762,0.12844 0.78159,0.37239q0.34064,0.23758 0.54088,0.59079q0.20027,0.35322 0.20001,0.80284q-0.00054,0.65513 -0.44838,1.14337q-0.4413,0.48825 -1.22331,0.82884q-0.78199,0.34058 -1.84458,0.55276q-1.05589,0.20576 -2.28547,0.30879l-0.00006,0.10923q-0.00099,0.82214 0.21294,1.50293q0.22012,0.68079 0.60069,1.16887q0.38063,0.48164 0.89498,0.75129q0.51437,0.26966 1.10907,0.26953q0.60139,-0.00013 1.22967,-0.28287q0.63496,-0.28916 1.28351,-0.93162l0.00006,0zm-1.2532,-5.15737q0.00018,-0.29546 -0.10655,-0.55236q-0.10008,-0.25689 -0.28706,-0.44312q-0.18037,-0.19265 -0.43416,-0.30179q-0.25385,-0.10918 -0.54787,-0.10911q-0.43432,0.00009 -0.78855,0.14781q-0.35426,0.14772 -0.63508,0.40478q-0.28078,0.25056 -0.49481,0.59102q-0.21403,0.33404 -0.36792,0.71303q-0.1472,0.37899 -0.24102,0.77724q-0.09384,0.39824 -0.13417,0.7772q0.94892,-0.06446 1.69739,-0.21875q0.75517,-0.16074 1.26986,-0.40491q0.52134,-0.2506 0.7955,-0.59108q0.27416,-0.34691 0.27442,-0.79009l0.00002,0.00013z"/>
   </g>
  </g>
 </g>
</svg>