<?xml version="1.0" encoding="UTF-8" standalone="no"?>
<!-- Created with Inkscape (http://www.inkscape.org/) -->

<svg
   xmlns:dc="http://purl.org/dc/elements/1.1/"
   xmlns:cc="http://creativecommons.org/ns#"
   xmlns:rdf="http://www.w3.org/1999/02/22-rdf-syntax-ns#"
   xmlns:svg="http://www.w3.org/2000/svg"
   xmlns="http://www.w3.org/2000/svg"
   xmlns:sodipodi="http://sodipodi.sourceforge.net/DTD/sodipodi-0.dtd"
   xmlns:inkscape="http://www.inkscape.org/namespaces/inkscape"
   width="210mm"
   height="297mm"
   viewBox="0 0 210 297"
   version="1.1"
   id="svg5425"
   inkscape:version="0.92.1 r15371"
   sodipodi:docname="drawing.svg">
  <defs
     id="defs5419" />
  <sodipodi:namedview
     id="base"
     pagecolor="#ffffff"
     bordercolor="#666666"
     borderopacity="1.0"
     inkscape:pageopacity="0.0"
     inkscape:pageshadow="2"
     inkscape:zoom="0.70710678"
     inkscape:cx="527.93937"
     inkscape:cy="925.66799"
     inkscape:document-units="mm"
     inkscape:current-layer="layer1"
     showgrid="false"
     inkscape:window-width="1920"
     inkscape:window-height="1018"
     inkscape:window-x="-8"
     inkscape:window-y="-8"
     inkscape:window-maximized="1" />
  <metadata
     id="metadata5422">
    <rdf:RDF>
      <cc:Work
         rdf:about="">
        <dc:format>image/svg+xml</dc:format>
        <dc:type
           rdf:resource="http://purl.org/dc/dcmitype/StillImage" />
        <dc:title></dc:title>
      </cc:Work>
    </rdf:RDF>
  </metadata>
  <g
     inkscape:label="Layer 1"
     inkscape:groupmode="layer"
     id="layer1">
    <path
       style="fill:#000080;fill-opacity:1"
       d=""
       id="path5476"
       inkscape:connector-curvature="0"
       transform="scale(0.26458333)" />
    <g
       id="g6154"
       inkscape:export-xdpi="86.677238"
       inkscape:export-ydpi="86.677238">
      <path
         inkscape:connector-curvature="0"
         id="path5466"
         d="m 25.235099,53.632152 c -3.84014,-0.951328 -7.19314,-4.052111 -8.41658,-7.783467 -0.593391,-1.809787 -0.794961,-4.66923 -0.479213,-6.798119 1.072719,-7.232716 9.717816,-11.851191 16.834126,-8.993302 3.190101,1.281131 5.929965,3.974978 7.032972,6.914845 0.532798,1.420076 0.728129,6.04887 0.327517,7.761182 -0.878034,3.752921 -4.277838,7.349747 -8.179911,8.653941 -1.479715,0.494563 -5.546436,0.634483 -7.118911,0.24492 z m 4.763179,-0.824737 c 3.239077,-0.651865 5.263613,-2.680774 6.304537,-6.31816 0.563571,-1.969322 0.569273,-7.386991 0.0099,-9.407755 -1.281077,-4.628 -3.766263,-6.782334 -7.823909,-6.782334 -2.361274,0 -3.676299,0.482664 -5.160862,1.894247 -2.15991,2.053733 -3.029173,4.68643 -3.035931,9.194786 -0.01089,7.258143 2.751329,11.227936 8.095585,11.634814 0.21524,0.01637 0.940044,-0.08062 1.610677,-0.215598 z"
         style="fill:#c8c4b7;fill-opacity:1;stroke-width:0.22436956" />
      <path
         inkscape:connector-curvature="0"
         id="path5468"
         d="m 24.199664,41.457204 c 0,-2.625421 0.08477,-4.156921 0.230096,-4.156921 0.126554,0 0.230098,0.352162 0.230098,0.782582 0,0.578328 0.180694,0.954388 0.692339,1.44088 l 0.692341,0.658299 2.657664,-0.07351 c 2.522372,-0.06971 2.679811,-0.101321 3.092703,-0.620435 0.239273,-0.300836 0.501109,-0.916168 0.581864,-1.36741 0.34141,-1.907775 0.566567,-0.581843 0.566567,3.336476 0,2.493885 -0.08788,4.156913 -0.219671,4.156913 -0.120817,0 -0.283477,-0.31997 -0.361464,-0.711055 -0.306068,-1.534825 -1.127333,-1.965204 -3.770676,-1.975995 -2.767413,-0.01133 -3.931667,0.618169 -3.931667,2.125698 0,0.308741 -0.103544,0.561352 -0.230098,0.561352 -0.145324,0 -0.230096,-1.531492 -0.230096,-4.156913 z"
         style="fill:#aca793;fill-opacity:1;stroke-width:0.22436956" />
      <path
         inkscape:connector-curvature="0"
         id="path5470"
         d="m 99.581239,60.52985 c -0.06453,-0.09924 0.343558,-0.393317 0.906801,-0.65351 l 1.02409,-0.473081 v -2.0492 c 0,-1.127071 -0.067,-2.659316 -0.14903,-3.405001 -0.13353,-1.214673 -0.19916,-1.348946 -0.63062,-1.290103 -0.3202,0.04366 -0.828033,0.615539 -1.515445,1.706565 -1.344028,2.133139 -3.856457,4.521702 -5.643244,5.365003 -1.290457,0.609048 -1.553311,0.651584 -4.026693,0.651584 -2.585845,0 -2.680168,-0.01745 -4.141739,-0.765746 -2.274404,-1.16448 -4.164463,-3.117917 -5.469476,-5.652891 l -1.08827,-2.11398 -0.07888,-3.107572 c -0.09095,-3.583174 0.12103,-4.78546 1.225433,-6.95046 1.47463,-2.890774 4.031925,-5.178355 6.758907,-6.046075 1.184881,-0.377027 1.840549,-0.446752 3.451449,-0.36703 3.756542,0.185913 6.261109,1.820843 8.809481,5.750672 1.587227,2.447661 2.129857,2.665129 2.347637,0.940885 0.0805,-0.637816 0.14738,-2.19768 0.14848,-3.466366 l 0.002,-2.306682 -1.20801,-0.578908 -1.208003,-0.578899 2.473543,-0.01331 2.47353,-0.01331 v 4.594486 4.594486 h -2.40495 -2.40497 L 98.560163,43.37157 c -1.624501,-2.244036 -4.057417,-3.818511 -6.712174,-4.343793 -5.582334,-1.104554 -11.223175,2.479753 -11.988412,7.61768 -0.428062,2.87403 0.425975,5.385925 2.550065,7.500286 3.29645,3.281346 8.871975,3.803097 12.974118,1.214102 1.424098,-0.898795 2.750907,-2.236652 3.318644,-3.346283 l 0.363813,-0.711055 h 2.488453 2.48844 v 4.703878 4.703885 h -2.17234 c -1.19478,0 -2.22511,-0.0812 -2.289612,-0.180439 z"
         style="fill:#c8c4b7;fill-opacity:1;stroke-width:0.22436956" />
      <path
         inkscape:connector-curvature="0"
         id="path5472"
         d="m 56.006076,81.981869 c 0.0587,-0.213482 2.05392,-2.994782 4.433813,-6.180678 2.379885,-3.185897 4.328507,-5.900565 4.330272,-6.032589 0.0017,-0.132032 -1.929611,-2.962491 -4.291929,-6.289921 -2.362326,-3.327429 -4.295138,-6.246839 -4.295138,-6.487592 0,-0.429527 0.152451,-0.437722 8.145073,-0.437722 h 8.145081 l 0.134666,1.476802 c 0.392111,4.300124 0.415496,4.867968 0.200447,4.867968 -0.124221,0 -0.289769,-0.443353 -0.367882,-0.985232 -0.07809,-0.541878 -0.340027,-1.354121 -0.582035,-1.804974 -1.042918,-1.942985 -2.047554,-2.241853 -7.535852,-2.241853 -2.325322,0 -4.227861,0.0554 -4.227861,0.123068 0,0.06772 1.608717,2.399386 3.574923,5.181571 1.966207,2.782177 3.520692,5.192884 3.454415,5.357124 -0.06627,0.16424 -1.782587,2.560252 -3.814009,5.324477 -2.031422,2.764233 -3.752298,5.171583 -3.824167,5.349673 -0.112933,0.279824 0.552484,0.323642 4.898532,0.322592 2.967364,-6.62e-4 5.405463,-0.100535 5.94692,-0.243466 1.173819,-0.309857 2.211615,-1.360389 2.801076,-2.835454 0.255601,-0.639619 0.563747,-1.194331 0.684768,-1.232682 0.183237,-0.05805 -0.109751,2.479786 -0.744156,6.445974 L 72.95929,82.37001 h -8.529982 c -8.054593,0 -8.524034,-0.02166 -8.423232,-0.388141 z"
         style="fill:#c8c4b7;fill-opacity:1;stroke-width:0.22436956" />
      <path
         inkscape:connector-curvature="0"
         id="path5474"
         d="m 26.106254,52.092928 c -1.482271,-0.461694 -3.036181,-1.402496 -4.491281,-2.719225 -2.681399,-2.426401 -3.613422,-4.505064 -3.794819,-8.463471 -0.139818,-3.051086 0.118162,-4.540986 1.114577,-6.436969 2.274043,-4.327041 7.666044,-7.015389 12.743073,-6.353436 3.717247,0.484665 7.511766,3.147446 9.250206,6.491289 l 0.874044,1.681203 v 3.851249 3.85124 l -0.898593,1.729354 c -1.223571,2.354775 -3.512892,4.53829 -5.967696,5.691871 -1.756383,0.825382 -1.827952,0.838861 -4.821371,0.908362 -2.140524,0.0497 -3.325082,-0.01869 -4.00814,-0.231467 z m 6.215357,-0.792662 c 2.584886,-0.759139 4.389163,-2.706565 5.369535,-5.795548 0.335555,-1.057271 0.414922,-2.057734 0.407875,-5.141442 -0.0081,-3.548742 -0.05352,-3.956745 -0.620861,-5.579023 -0.772554,-2.209066 -1.962596,-3.893586 -3.335502,-4.721457 -1.42233,-0.857674 -2.337149,-1.074083 -4.535724,-1.072991 -2.298578,8.27e-4 -3.690315,0.563874 -5.187827,2.097624 -2.020858,2.069758 -2.740085,4.400974 -2.746512,8.902194 -0.0063,4.465795 0.825978,7.403604 2.637929,9.310618 2.131709,2.243557 4.861401,2.925041 8.011087,2.000025 z"
         style="fill:#00000d;fill-opacity:1;stroke-width:0.22436956" />
      <path
         inkscape:connector-curvature="0"
         id="path5478"
         d="m 33.748673,43.337832 c -0.383369,-1.423151 -1.11922,-1.767954 -3.752593,-1.758362 -2.585119,0.0094 -3.630027,0.377408 -3.857387,1.358505 -0.07618,0.328727 -0.166871,0.696137 -0.201535,0.816468 -0.19067,0.661896 -0.339598,-4.602689 -0.16401,-5.797805 0.114914,-0.782161 0.222063,-1.180662 0.23811,-0.885557 0.01604,0.295098 0.345831,0.847188 0.732851,1.226861 l 0.703673,0.690317 2.230059,-0.09021 c 1.226532,-0.04962 2.461723,-0.135604 2.744866,-0.191106 0.60876,-0.119314 1.209572,-0.920502 1.428125,-1.90441 0.223555,-1.006433 0.451318,3.921527 0.270748,5.857979 -0.14276,1.530964 -0.14289,1.531195 -0.372907,0.677317 z"
         style="fill:#000000;fill-opacity:1;stroke-width:0.22436956" />
      <path
         inkscape:connector-curvature="0"
         id="path5480"
         d="m 102.08737,59.192159 -0.92039,-0.143311 0.86286,-0.413121 0.86287,-0.413121 v -2.776339 c 0,-1.526986 -0.0657,-3.089107 -0.1462,-3.471377 -0.24336,-1.156979 -0.93896,-0.808381 -2.36924,1.18731 -1.681115,2.345704 -3.759838,4.262055 -5.541338,5.108523 -1.356238,0.644398 -1.609343,0.688969 -3.887478,0.684478 -1.950787,-0.0041 -2.642468,-0.09352 -3.468051,-0.449587 -2.480034,-1.069634 -4.426238,-2.998628 -6.215878,-6.160916 l -0.957916,-1.69264 0.07583,-3.995774 0.07583,-3.995766 0.97817,-1.935899 c 1.257784,-2.489287 3.37872,-4.652394 5.563784,-5.674431 1.429507,-0.668635 1.635407,-0.703505 4.153854,-0.703505 2.466241,0 2.745418,0.04457 4.03037,0.643579 1.748123,0.814922 3.322836,2.310395 5.139373,4.880744 1.47902,2.092762 2.14673,2.514665 2.42383,1.531493 0.0763,-0.270745 0.14015,-1.843641 0.14188,-3.495332 l 0.003,-3.003068 -0.86285,-0.433124 -0.86287,-0.433133 1.06084,-0.0097 c 0.58346,-0.005 1.54123,-0.07227 2.12839,-0.148801 l 1.06755,-0.139127 v 4.624222 4.624222 l -2.35849,-0.01025 -2.35849,-0.01025 -0.80533,-1.096211 c -1.08661,-1.479075 -2.619197,-2.677135 -4.519127,-3.532716 -1.495983,-0.673679 -1.716667,-0.710807 -4.224547,-0.710807 -2.497915,0 -2.732887,0.03911 -4.195554,0.697907 -1.979468,0.891593 -3.181447,1.815799 -4.212111,3.238719 -3.384875,4.673083 -1.535083,10.820165 4.007438,13.317151 1.444908,0.650955 1.667357,0.686595 4.28518,0.686595 2.629328,0 2.835402,-0.03341 4.31627,-0.700429 1.746366,-0.786568 3.834507,-2.539026 4.701481,-3.945689 l 0.57465,-0.93288 h 2.39415 2.39415 v 4.703877 4.703877 l -1.20801,-0.03101 c -0.6644,-0.01703 -1.62218,-0.09554 -2.12839,-0.174361 z"
         style="fill:#0000d3;fill-opacity:1;stroke-width:0.22436956" />
      <path
         inkscape:connector-curvature="0"
         id="path5482"
         d="m 60.015662,80.893829 c -2.111656,-0.0597 -2.474599,-0.121307 -2.36177,-0.400867 0.07331,-0.181687 1.878615,-2.713428 4.011761,-5.626107 2.133154,-2.912679 4.052312,-5.552331 4.264804,-5.865901 l 0.386345,-0.570117 -3.767231,-5.446471 c -4.306373,-6.225926 -4.929734,-7.213688 -4.693936,-7.437895 0.09317,-0.08859 3.673264,-0.20671 7.955757,-0.262492 6.788713,-0.08842 7.803393,-0.05921 7.919327,0.22806 0.07314,0.181216 0.19182,1.498788 0.26375,2.927952 0.123143,2.446842 0.112394,2.538604 -0.184272,1.572531 -0.436759,-1.422266 -1.202587,-2.526283 -2.060277,-2.970057 -0.603994,-0.312521 -1.531204,-0.38824 -5.532607,-0.451804 -4.316897,-0.06855 -4.792712,-0.04093 -4.666803,0.271034 0.07714,0.191073 1.349785,2.095094 2.828149,4.231153 3.901505,5.637179 4.052565,5.896777 3.747115,6.43945 -0.140371,0.249411 -1.849472,2.647408 -3.79799,5.328884 -1.948517,2.681477 -3.542763,4.982619 -3.542763,5.113658 0,0.30856 9.897369,0.326123 11.057717,0.0196 1.008819,-0.26647 1.87785,-1.104727 2.618936,-2.526192 0.707344,-1.356743 0.73059,-1.038294 0.203534,2.788097 l -0.385805,2.800923 -5.884322,-0.04647 c -3.236383,-0.02555 -7.007127,-0.07823 -8.379419,-0.116998 z"
         style="opacity:0.94899998;fill:#00000d;fill-opacity:1;stroke-width:0.22436956" />
      <g
         id="text6050"
         style="font-style:normal;font-weight:normal;font-size:47.41493988px;line-height:1.25;font-family:sans-serif;letter-spacing:0px;word-spacing:0px;fill:#000000;fill-opacity:1;stroke:none;stroke-width:1.18537343"
         transform="matrix(0.78403675,0.00702656,-0.0114297,1.275348,0.52916667,0.26458333)"
         aria-label="online caribbean education">
        <path
           inkscape:connector-curvature="0"
           id="path6062"
           style="font-style:normal;font-variant:normal;font-weight:normal;font-stretch:normal;font-size:14.45115471px;font-family:Gabriola;-inkscape-font-specification:'Gabriola, Normal';font-variant-ligatures:normal;font-variant-caps:normal;font-variant-numeric:normal;font-feature-settings:normal;text-align:start;writing-mode:lr-tb;text-anchor:start;stroke-width:2.20108867"
           d="m 56.850385,32.119409 q 1.55e-4,-0.26333 -0.03984,-0.443173 -0.03999,-0.179862 -0.126785,-0.282589 -0.08013,-0.109216 -0.207054,-0.154158 -0.126945,-0.04492 -0.300669,-0.04487 -0.240556,4.3e-5 -0.574697,0.06434 -0.334143,0.06434 -0.761862,0.173664 l -0.09996,-0.462429 q 0.474524,-0.160672 0.908935,-0.289241 0.441099,-0.134991 0.808672,-0.231396 0.367573,-0.0964 0.64825,-0.147966 0.280679,-0.0514 0.44105,-0.05144 0.38756,-8.8e-5 0.601256,0.224668 0.220381,0.218344 0.220064,0.757875 -3.8e-5,0.06426 -0.01363,0.301875 -0.01358,0.231224 -0.04045,0.59093 -0.02026,0.359681 -0.05395,0.828569 -0.03368,0.462472 -0.08077,0.989151 -0.04041,0.526704 -0.09419,1.091933 -0.05379,0.558813 -0.11426,1.117622 l 0.0401,0.0068 q 0.508813,-1.657237 1.090824,-2.794231 0.582015,-1.143411 1.183821,-1.850066 0.601808,-0.713073 1.1967,-1.02793 0.594892,-0.314858 1.136142,-0.314976 0.374198,-7.6e-5 0.721589,0.134747 0.34739,0.134824 0.614499,0.430196 0.273792,0.295416 0.433887,0.764259 0.160091,0.462409 0.159702,1.123986 -1.14e-4,0.192679 -0.02703,0.520267 -0.02024,0.321148 -0.05389,0.719394 -0.03364,0.398226 -0.08069,0.847848 -0.04036,0.443191 -0.07402,0.873535 -0.03366,0.430344 -0.06062,0.822159 -0.02026,0.385384 -0.02043,0.674416 -2.95e-4,0.500988 0.03961,0.815709 0.0466,0.314715 0.146714,0.500953 0.100125,0.179851 0.267138,0.250442 0.167011,0.06421 0.407571,0.06421 0.347469,-7.5e-5 0.721718,-0.09005 0.374255,-0.0964 0.755233,-0.263499 l 0.126756,0.333965 q -0.240665,0.186306 -0.608293,0.379095 -0.367631,0.192759 -0.775333,0.353414 -0.40102,0.16066 -0.802002,0.257103 -0.400987,0.102946 -0.708363,0.103007 -0.360835,7.4e-5 -0.56787,-0.186153 -0.207037,-0.186207 -0.313759,-0.507347 -0.100035,-0.321136 -0.133196,-0.751463 -0.02647,-0.430323 -0.02618,-0.924905 2.98e-4,-0.603757 0.04083,-1.239637 0.04716,-0.6423 0.100946,-1.2204 0.05381,-0.57808 0.09416,-1.046964 0.04706,-0.475314 0.04723,-0.757931 4.52e-4,-0.751466 -0.293362,-1.104676 -0.293801,-0.359635 -0.781596,-0.359532 -0.387561,8.7e-5 -0.815401,0.314904 -0.427839,0.314826 -0.855817,0.867301 -0.421294,0.546042 -0.81598,1.297612 -0.388001,0.745149 -0.702574,1.618738 -0.314568,0.867182 -0.522272,1.817818 -0.207703,0.950645 -0.26172,1.90126 l -1.396657,0.167239 -0.106907,-0.0077 q 0.05382,-0.610198 0.101009,-1.329586 0.04721,-0.719387 0.08774,-1.458027 0.04053,-0.745074 0.06768,-1.47089 0.03384,-0.732219 0.05427,-1.361675 0.0271,-0.635878 0.03408,-1.136871 0.01375,-0.501008 0.01392,-0.790032 z" />
        <path
           inkscape:connector-curvature="0"
           id="path6064"
           style="font-style:normal;font-variant:normal;font-weight:normal;font-stretch:normal;font-size:14.45115471px;font-family:Gabriola;-inkscape-font-specification:'Gabriola, Normal';font-variant-ligatures:normal;font-variant-caps:normal;font-variant-numeric:normal;font-feature-settings:normal;text-align:start;writing-mode:lr-tb;text-anchor:start;stroke-width:2.20108867"
           d="m 70.627994,22.263604 q -0.134288,1.091937 -0.268603,2.241674 -0.127631,1.143336 -0.248607,2.318754 -0.114293,1.169017 -0.215211,2.350863 -0.100918,1.181857 -0.175096,2.331584 -0.07417,1.1433 -0.114923,2.248069 -0.04075,1.104759 -0.04134,2.119604 -3.83e-4,0.635866 0.01283,1.091884 0.01983,0.45604 0.05299,0.770757 0.03994,0.31472 0.09993,0.507398 0.06673,0.192662 0.160202,0.295413 0.09348,0.102662 0.220429,0.141227 0.126945,0.03203 0.300675,0.03198 0.320737,-7.2e-5 0.688303,-0.09012 0.37426,-0.0964 0.755242,-0.263499 l 0.126752,0.333965 q -0.240669,0.186306 -0.608297,0.379085 -0.360946,0.192764 -0.761969,0.353423 -0.401022,0.160649 -0.788638,0.257091 -0.380934,0.102939 -0.661587,0.103007 -0.360832,7.6e-5 -0.574556,-0.17975 -0.207041,-0.173444 -0.320402,-0.571568 -0.106678,-0.398217 -0.139716,-1.034084 -0.02635,-0.642288 -0.02581,-1.560771 1.97e-4,-0.333991 0.0206,-0.950607 0.0204,-0.62304 0.05429,-1.445187 0.04057,-0.822162 0.08793,-1.798454 0.04736,-0.976302 0.101409,-2.016846 0.05406,-1.04695 0.114843,-2.106756 0.06076,-1.066241 0.121495,-2.055377 0.06072,-0.99558 0.114704,-1.875534 0.05396,-0.879973 0.101144,-1.554392 0.0067,-0.154198 0.09369,-0.263359 0.08693,-0.115624 0.220616,-0.179913 0.140365,-0.07062 0.307432,-0.102742 0.173754,-0.03207 0.347494,-0.03212 0.400927,-8e-5 0.841825,0.205357 z" />
        <path
           inkscape:connector-curvature="0"
           id="path6066"
           style="font-style:normal;font-variant:normal;font-weight:normal;font-stretch:normal;font-size:14.45115471px;font-family:Gabriola;-inkscape-font-specification:'Gabriola, Normal';font-variant-ligatures:normal;font-variant-caps:normal;font-variant-numeric:normal;font-feature-settings:normal;text-align:start;writing-mode:lr-tb;text-anchor:start;stroke-width:2.20108867"
           d="m 74.700962,27.561713 q -0.233876,4.8e-5 -0.414244,-0.08989 -0.180354,-0.09623 -0.307229,-0.244014 -0.126862,-0.154166 -0.193585,-0.346789 -0.06673,-0.199107 -0.06657,-0.404646 1.74e-4,-0.289023 0.100523,-0.507438 0.100362,-0.224812 0.26082,-0.372586 0.160472,-0.15423 0.354284,-0.224876 0.193825,-0.07701 0.380931,-0.07707 0.227188,-5.2e-5 0.407552,0.08345 0.180377,0.07699 0.307258,0.218311 0.13355,0.141241 0.20026,0.327536 0.07335,0.179855 0.07328,0.391781 -1.26e-4,0.224815 -0.08052,0.44963 -0.08035,0.218408 -0.227428,0.39827 -0.140428,0.179895 -0.347644,0.289116 -0.20052,0.109274 -0.447754,0.109324 z m 0.579636,2.903044 q -0.114024,0.732255 -0.194659,1.470909 -0.08065,0.732246 -0.134465,1.419502 -0.04722,0.68728 -0.0743,1.303891 -0.02046,0.61019 -0.02066,1.104761 -5.82e-4,0.667984 0.01931,1.149707 0.01982,0.475298 0.06636,0.802855 0.04663,0.327577 0.113293,0.526674 0.07343,0.192666 0.173555,0.301837 0.106916,0.102651 0.240479,0.134844 0.140303,0.03201 0.314034,0.03197 0.320746,-6.2e-5 0.688311,-0.09012 0.374258,-0.0964 0.755232,-0.263499 l 0.126752,0.333964 q -0.24066,0.186317 -0.608286,0.379096 -0.360956,0.192754 -0.761969,0.353413 -0.401023,0.160659 -0.788639,0.2571 -0.380951,0.10294 -0.661596,0.102998 -0.187098,3.8e-5 -0.340758,-0.03194 -0.153684,-0.02565 -0.280566,-0.141207 -0.120221,-0.115579 -0.220313,-0.340371 -0.09341,-0.224796 -0.160018,-0.610147 -0.05989,-0.385376 -0.09298,-0.963432 -0.03305,-0.578066 -0.0326,-1.400214 2.85e-4,-0.481721 0.0069,-1.085483 0.01377,-0.610185 0.0342,-1.303877 0.02044,-0.700099 0.05433,-1.47088 0.03389,-0.777187 0.08782,-1.59934 0.01353,-0.179868 0.100393,-0.289047 0.08697,-0.115616 0.213927,-0.173541 0.126991,-0.06426 0.267342,-0.08362 0.147017,-0.02571 0.26729,-0.02571 0.447706,-8.9e-5 0.84183,0.198932 z" />
        <path
           inkscape:connector-curvature="0"
           id="path6068"
           style="font-style:normal;font-variant:normal;font-weight:normal;font-stretch:normal;font-size:14.45115471px;font-family:Gabriola;-inkscape-font-specification:'Gabriola, Normal';font-variant-ligatures:normal;font-variant-caps:normal;font-variant-numeric:normal;font-feature-settings:normal;text-align:start;writing-mode:lr-tb;text-anchor:start;stroke-width:2.20108867"
           d="m 79.141883,32.114651 q 1.46e-4,-0.26334 -0.03976,-0.443174 -0.04004,-0.179862 -0.126791,-0.282589 -0.0801,-0.109216 -0.207044,-0.154158 -0.126927,-0.04492 -0.300666,-0.04487 -0.240555,5.3e-5 -0.574706,0.06434 -0.334135,0.06434 -0.761852,0.173654 l -0.1,-0.462419 q 0.474508,-0.160672 0.908935,-0.289241 0.441086,-0.135001 0.808665,-0.231396 0.367571,-0.0964 0.648246,-0.147965 0.280676,-0.0514 0.441058,-0.05144 0.38756,-8.8e-5 0.601247,0.224668 0.22038,0.218334 0.220069,0.757865 -4e-5,0.06426 -0.01362,0.301885 -0.01357,0.231223 -0.04036,0.590929 -0.02027,0.359682 -0.05393,0.82856 -0.03366,0.462472 -0.08075,0.989162 -0.04049,0.526703 -0.09414,1.091922 -0.05382,0.558823 -0.114219,1.117622 l 0.04009,0.0068 q 0.508822,-1.657237 1.090824,-2.794241 0.582016,-1.1434 1.183827,-1.850056 0.601798,-0.713082 1.196695,-1.02794 0.594889,-0.314858 1.136152,-0.314965 0.374194,-8.7e-5 0.72158,0.134736 0.347385,0.134834 0.614494,0.430206 0.273796,0.295416 0.433894,0.76425 0.160085,0.462418 0.1597,1.123986 -1.11e-4,0.192689 -0.027,0.520277 -0.02024,0.321148 -0.05385,0.719384 -0.03369,0.398226 -0.08073,0.847857 -0.04034,0.443191 -0.07406,0.873535 -0.03363,0.430335 -0.06063,0.82215 -0.02029,0.385393 -0.02034,0.674415 -2.99e-4,0.500988 0.03965,0.815709 0.04655,0.314725 0.146725,0.500963 0.100152,0.179841 0.267133,0.250442 0.167012,0.06421 0.407567,0.06421 0.34747,-7.4e-5 0.721723,-0.09005 0.37425,-0.0964 0.755231,-0.263499 l 0.126762,0.333965 q -0.240678,0.186306 -0.608295,0.379085 -0.367626,0.19276 -0.775336,0.353424 -0.401022,0.16065 -0.801996,0.257093 -0.400997,0.102947 -0.708367,0.103017 -0.360836,7.5e-5 -0.567873,-0.186152 -0.207037,-0.186218 -0.313763,-0.507347 -0.10002,-0.321136 -0.133186,-0.751464 -0.02646,-0.430333 -0.02626,-0.924905 4.11e-4,-0.603757 0.04085,-1.239636 0.04718,-0.642311 0.100913,-1.220411 0.05383,-0.57808 0.09414,-1.046953 0.04715,-0.475315 0.04727,-0.757931 7.92e-4,-0.751477 -0.293371,-1.104676 -0.293802,-0.359635 -0.781591,-0.359533 -0.387561,7.8e-5 -0.815398,0.314904 -0.427845,0.314817 -0.855818,0.867291 -0.421306,0.546042 -0.81599,1.297622 -0.387992,0.745149 -0.702569,1.618728 -0.314564,0.867183 -0.522275,1.817828 -0.207702,0.950645 -0.26172,1.90126 l -1.396658,0.16724 -0.106927,-0.0077 q 0.05377,-0.610189 0.10096,-1.329577 0.04716,-0.719387 0.08772,-1.458037 0.04057,-0.745074 0.06764,-1.47088 0.03386,-0.732219 0.05425,-1.361684 0.02709,-0.635879 0.03408,-1.136862 0.01368,-0.501008 0.0139,-0.790032 z" />
        <path
           inkscape:connector-curvature="0"
           id="path6070"
           style="font-style:normal;font-variant:normal;font-weight:normal;font-stretch:normal;font-size:14.45115471px;font-family:Gabriola;-inkscape-font-specification:'Gabriola, Normal';font-variant-ligatures:normal;font-variant-caps:normal;font-variant-numeric:normal;font-feature-settings:normal;text-align:start;writing-mode:lr-tb;text-anchor:start;stroke-width:2.20108867"
           d="m 96.418602,37.506254 q 0.04008,0.01931 0.100132,0.05782 0.06685,0.03198 0.120232,0.07695 0.05337,0.03853 0.09349,0.08996 0.04014,0.04498 0.04011,0.0899 -2.8e-5,0.02568 -0.02013,0.05138 -0.374511,0.501065 -0.80907,0.873698 -0.427876,0.366191 -0.895755,0.616796 -0.461196,0.244172 -0.942393,0.359881 -0.481175,0.122075 -0.948927,0.122181 -0.801846,1.68e-4 -1.469876,-0.314422 -0.66803,-0.314588 -1.148807,-0.860439 -0.480793,-0.545849 -0.75433,-1.278007 -0.266841,-0.738599 -0.266354,-1.580004 6.31e-4,-0.68726 0.154508,-1.37454 0.160769,-0.687296 0.455147,-1.310389 0.301065,-0.623107 0.729032,-1.156295 0.427971,-0.539623 0.96946,-0.931543 0.548156,-0.398342 1.196451,-0.623276 0.654966,-0.22496 1.403372,-0.225114 0.494468,-1.08e-4 0.942103,0.128324 0.447618,0.128431 0.781589,0.372384 0.340647,0.237579 0.540888,0.590788 0.200267,0.353228 0.200006,0.802841 -5.45e-4,0.655133 -0.448385,1.143377 -0.441299,0.48825 -1.223304,0.828838 -0.781996,0.340579 -1.844585,0.552753 -1.055888,0.205763 -2.285463,0.308793 l -6.5e-5,0.109234 q -9.85e-4,0.822138 0.212941,1.502932 0.220118,0.680788 0.600693,1.168862 0.380623,0.481648 0.894976,0.751298 0.51437,0.269651 1.109074,0.269527 0.601391,-1.28e-4 1.229667,-0.282876 0.634961,-0.28916 1.28351,-0.931619 z m -1.253205,-5.157371 q 1.79e-4,-0.295459 -0.106551,-0.552362 -0.100078,-0.25689 -0.287052,-0.443124 -0.180377,-0.192646 -0.434164,-0.301787 -0.253848,-0.109179 -0.547869,-0.10911 -0.434322,8.7e-5 -0.788556,0.147808 -0.354251,0.14772 -0.635073,0.40478 -0.280782,0.250566 -0.494817,0.591025 -0.214021,0.334041 -0.367914,0.713032 -0.147204,0.378986 -0.241018,0.777233 -0.09384,0.398237 -0.134173,0.777202 0.948918,-0.06446 1.697388,-0.218747 0.755171,-0.160738 1.269859,-0.404917 0.521346,-0.2506 0.795499,-0.591079 0.274159,-0.346905 0.274424,-0.790092 z" />
        <path
           inkscape:connector-curvature="0"
           id="path6074"
           style="font-style:normal;font-variant:normal;font-weight:normal;font-stretch:normal;font-size:14.45115471px;font-family:Gabriola;-inkscape-font-specification:'Gabriola, Normal';font-variant-ligatures:normal;font-variant-caps:normal;font-variant-numeric:normal;font-feature-settings:normal;text-align:start;writing-mode:lr-tb;text-anchor:start;stroke-width:2.11013222;fill:#0000d3;fill-opacity:1"
           d="m 143.04734,38.657009 q -3e-5,-0.497488 -0.16286,-0.862742 -0.16283,-0.365244 -0.42599,-0.598253 -0.26311,-0.233009 -0.5951,-0.346384 -0.33199,-0.113346 -0.66397,-0.113362 -0.44471,-1.3e-5 -0.75164,0.09439 -0.30692,0.0944 -0.50107,0.258173 -0.1879,0.163662 -0.2756,0.390416 -0.0815,0.220402 -0.0814,0.478601 3e-5,0.302278 0.10657,0.610839 0.11277,0.302276 0.32575,0.591977 l -0.025,0.06924 q -0.35703,0.176338 -0.72033,0.176333 -0.21296,-1.3e-5 -0.40089,-0.06304 -0.18165,-0.0693 -0.31946,-0.195223 -0.13157,-0.126022 -0.213,-0.308581 -0.0752,-0.182622 -0.0752,-0.409321 -2e-5,-0.371548 0.17535,-0.699001 0.18164,-0.327474 0.47602,-0.598253 0.29437,-0.27076 0.68271,-0.484859 0.38834,-0.21411 0.80172,-0.358927 0.4134,-0.151174 0.82681,-0.226672 0.41967,-0.08193 0.7767,-0.08186 0.65769,1.6e-5 1.12123,0.176385 0.4698,0.176355 0.75797,0.51639 0.29441,0.333768 0.42599,0.812381 0.13781,0.478609 0.13786,1.083137 4e-5,0.415629 -0.0376,0.913121 -0.0312,0.497489 -0.075,1.045364 -0.0438,0.541577 -0.0814,1.120919 -0.0311,0.579358 -0.0311,1.152425 1.8e-4,0.906817 0.33209,1.366531 0.33827,0.45341 0.88324,0.453429 0.4823,1.8e-5 1.07733,-0.358914 l 0.18167,0.270792 q -0.41965,0.421909 -0.91446,0.642307 -0.49483,0.220388 -1.03977,0.22037 -0.40714,-7e-6 -0.75167,-0.138526 -0.34451,-0.138519 -0.59509,-0.409354 -0.25056,-0.277078 -0.3884,-0.692718 -0.13781,-0.41562 -0.13784,-0.963497 -1e-5,-0.163671 0.007,-0.327453 0.0124,-0.16368 0.0438,-0.346357 l -0.0377,-6e-6 q -0.26929,0.541572 -0.62628,1.07053 -0.35075,0.522664 -0.77664,0.938288 -0.41963,0.409318 -0.90194,0.661188 -0.47602,0.258196 -1.00219,0.258176 -0.43219,-1.2e-5 -0.78924,-0.151199 -0.35704,-0.151197 -0.61387,-0.415652 -0.25059,-0.264497 -0.39468,-0.623444 -0.1378,-0.365249 -0.13783,-0.793468 -5e-5,-0.554158 0.20036,-1.007575 0.20666,-0.453392 0.56367,-0.81235 0.36327,-0.358933 0.86436,-0.617106 0.50107,-0.264472 1.08986,-0.434481 0.58878,-0.176328 1.24646,-0.258153 0.65768,-0.0882 1.34045,-0.08814 0.0439,-0.396728 0.0688,-0.768272 0.0311,-0.371548 0.0311,-0.818647 z m -3.84561,4.326164 q 2e-5,0.245599 0.0501,0.472306 0.0565,0.220412 0.16924,0.39043 0.11895,0.170109 0.29441,0.270799 0.18166,0.09439 0.4322,0.09442 0.28188,8e-6 0.58253,-0.132245 0.30066,-0.132252 0.58876,-0.365228 0.29438,-0.232989 0.55743,-0.554138 0.26932,-0.327452 0.48227,-0.711598 0.21294,-0.384116 0.3507,-0.806053 0.14396,-0.428211 0.18785,-0.875309 -0.46353,0.01245 -0.92077,0.063 -0.45725,0.04404 -0.87066,0.144726 -0.40713,0.100655 -0.7579,0.264486 -0.35075,0.163668 -0.60755,0.409291 -0.25053,0.239301 -0.39458,0.573052 -0.14395,0.327452 -0.14392,0.761971 z" />
        <path
           inkscape:connector-curvature="0"
           id="path6076"
           style="font-style:normal;font-variant:normal;font-weight:normal;font-stretch:normal;font-size:14.45115471px;font-family:Gabriola;-inkscape-font-specification:'Gabriola, Normal';font-variant-ligatures:normal;font-variant-caps:normal;font-variant-numeric:normal;font-feature-settings:normal;text-align:start;writing-mode:lr-tb;text-anchor:start;stroke-width:2.11013222;fill:#0000d3;fill-opacity:1"
           d="m 147.92734,45.294557 -0.10013,-0.0076 q 0.05,-0.59825 0.0938,-1.303545 0.0437,-0.705306 0.0814,-1.429498 0.0376,-0.730491 0.0626,-1.442095 0.0312,-0.717887 0.05,-1.335036 0.025,-0.623434 0.0312,-1.114617 0.0124,-0.491205 0.0123,-0.774584 -1e-5,-0.233 -0.0189,-0.403027 -0.0189,-0.170104 -0.0878,-0.283392 -0.0626,-0.113349 -0.18793,-0.16368 -0.12534,-0.05679 -0.33825,-0.05676 -0.10651,-10e-7 -0.21923,0.01249 -0.11272,0.01252 -0.25054,0.03778 -0.13778,0.02517 -0.31318,0.06922 -0.1692,0.03783 -0.39461,0.09445 l -0.0939,-0.453427 q 1.03977,-0.377819 1.68493,-0.528925 0.64516,-0.157406 0.87066,-0.157402 0.4134,1.4e-5 0.58882,0.2456 0.18165,0.239312 0.18169,0.71791 0,0.04404 -0.0125,0.258188 -0.0125,0.214116 -0.0376,0.560461 -0.0188,0.340061 -0.05,0.79348 -0.0312,0.453398 -0.075,0.976074 -0.0376,0.516392 -0.0876,1.083153 -0.0501,0.56046 -0.10641,1.120914 l 0.0626,0.0076 q 0.30055,-1.234269 0.6763,-2.298507 0.38201,-1.070542 0.85173,-1.857692 0.47597,-0.787164 1.03969,-1.234247 0.56996,-0.453406 1.24646,-0.453382 0.23803,7e-6 0.44473,0.07556 0.20671,0.07551 0.35706,0.214109 0.15039,0.132262 0.23804,0.321175 0.0877,0.182623 0.0878,0.403041 2e-5,0.28337 -0.1253,0.54785 -0.11893,0.258205 -0.38206,0.459714 l -0.05,-7e-6 q -0.26311,-0.22042 -0.50113,-0.314886 -0.23176,-0.100674 -0.49484,-0.100685 -0.28188,-8e-6 -0.54494,0.10708 -0.26308,0.107088 -0.4823,0.30856 -0.35701,0.327449 -0.6639,0.869015 -0.30687,0.535266 -0.56364,1.190179 -0.25049,0.65491 -0.45715,1.379109 -0.20038,0.717887 -0.35065,1.404301 -0.14411,0.680101 -0.23793,1.284649 -0.0877,0.598244 -0.12526,1.007567 z" />
        <path
           inkscape:connector-curvature="0"
           id="path6078"
           style="font-style:normal;font-variant:normal;font-weight:normal;font-stretch:normal;font-size:14.45115471px;font-family:Gabriola;-inkscape-font-specification:'Gabriola, Normal';font-variant-ligatures:normal;font-variant-caps:normal;font-variant-numeric:normal;font-feature-settings:normal;text-align:start;writing-mode:lr-tb;text-anchor:start;stroke-width:2.11013222;fill:#0000d3;fill-opacity:1"
           d="m 156.4702,33.424311 q -0.21923,-9e-6 -0.38837,-0.08823 -0.1692,-0.09439 -0.28814,-0.239303 -0.11896,-0.151191 -0.18169,-0.340052 -0.0627,-0.195239 -0.0627,-0.396748 -2e-5,-0.283379 0.0938,-0.497488 0.0939,-0.220401 0.24427,-0.365237 0.15037,-0.151184 0.33196,-0.220393 0.18166,-0.07546 0.35703,-0.07548 0.21297,1.3e-5 0.3821,0.08191 0.1692,0.07553 0.28814,0.214104 0.12536,0.13852 0.18796,0.321187 0.0689,0.176354 0.0689,0.384134 1e-5,0.220419 -0.075,0.440817 -0.0751,0.214107 -0.21294,0.390416 -0.13156,0.176352 -0.32569,0.283388 -0.1879,0.10708 -0.41966,0.107079 z m 0.54516,2.846408 q -0.10642,0.717905 -0.18152,1.442092 -0.0751,0.717904 -0.12522,1.391705 -0.0438,0.673815 -0.0688,1.278369 -0.0188,0.59824 -0.0187,1.083148 -1.2e-4,0.654917 0.019,1.127224 0.0189,0.466006 0.0627,0.787166 0.0439,0.321171 0.10653,0.516389 0.0689,0.188916 0.16283,0.295975 0.10018,0.100678 0.22552,0.132273 0.13156,0.03142 0.2944,0.03142 0.30065,6e-6 0.64516,-0.08819 0.35077,-0.09443 0.70778,-0.258166 l 0.11899,0.327462 q -0.2255,0.182605 -0.56998,0.371526 -0.33824,0.188908 -0.71406,0.34633 -0.37582,0.157412 -0.73912,0.251876 -0.35701,0.100835 -0.62008,0.100835 -0.17542,-7e-6 -0.31945,-0.03139 -0.14399,-0.02519 -0.2631,-0.138521 -0.11274,-0.113338 -0.20673,-0.333766 -0.0877,-0.220422 -0.15043,-0.598251 -0.0564,-0.377841 -0.0877,-0.944609 -0.0313,-0.566758 -0.0313,-1.372824 -3e-5,-0.472308 0.008,-1.064251 0.0125,-0.598246 0.0311,-1.278365 0.0187,-0.68641 0.05,-1.442097 0.0312,-0.761978 0.0814,-1.568037 0.0124,-0.176346 0.0939,-0.28337 0.0815,-0.113342 0.20044,-0.170095 0.11893,-0.06298 0.25053,-0.08192 0.13776,-0.02517 0.25055,-0.02514 0.41967,1e-5 0.78925,0.19524 z" />
        <path
           inkscape:connector-curvature="0"
           id="path6080"
           style="font-style:normal;font-variant:normal;font-weight:normal;font-stretch:normal;font-size:14.45115471px;font-family:Gabriola;-inkscape-font-specification:'Gabriola, Normal';font-variant-ligatures:normal;font-variant-caps:normal;font-variant-numeric:normal;font-feature-settings:normal;text-align:start;writing-mode:lr-tb;text-anchor:start;stroke-width:2.11013222;fill:#0000d3;fill-opacity:1"
           d="m 162.55818,28.229164 q -0.11886,1.007573 -0.23787,2.078125 -0.11886,1.070543 -0.23158,2.166282 -0.10647,1.095734 -0.21279,2.204068 -0.10003,1.10833 -0.18775,2.191464 -0.0814,1.076848 -0.14382,2.115914 -0.0626,1.032766 -0.10001,1.983667 l 0.0689,0.0076 q 0.49473,-1.221665 1.06466,-2.15366 0.56992,-0.931983 1.15868,-1.561701 0.58874,-0.629718 1.16499,-0.950877 0.5825,-0.321145 1.09614,-0.321127 0.4322,1.2e-5 0.7642,0.1637 0.33198,0.157435 0.57627,0.428236 0.24432,0.264492 0.40721,0.617155 0.16284,0.346354 0.26314,0.730498 0.1001,0.377834 0.13782,0.768288 0.0439,0.39043 0.044,0.730489 1.6e-4,0.938306 -0.18779,1.756954 -0.18158,0.812355 -0.50723,1.486161 -0.32569,0.667518 -0.77036,1.190173 -0.44469,0.522665 -0.96456,0.881609 -0.51987,0.358934 -1.09612,0.541526 -0.57626,0.18892 -1.15878,0.188895 -0.38836,-9e-6 -0.78299,-0.08817 -0.38835,-0.08823 -0.7642,-0.270796 -0.36958,-0.182641 -0.70157,-0.466035 -0.33202,-0.289685 -0.59513,-0.680124 -0.21917,0.55415 -0.44464,0.906812 -0.22547,0.352635 -0.41964,0.566749 l -0.32572,-0.08195 q 0.34444,-0.963489 0.50719,-2.311119 0.1627,-1.35392 0.25031,-3.0605 0.0312,-0.730497 0.075,-1.662501 0.05,-0.932 0.1,-1.964767 0.05,-1.032759 0.1064,-2.109612 0.0563,-1.083151 0.11256,-2.103314 0.0564,-1.020181 0.1064,-1.933281 0.05,-0.913119 0.0937,-1.618424 0.007,-0.151182 0.0939,-0.25818 0.0877,-0.113346 0.21921,-0.176349 0.13154,-0.06921 0.29438,-0.100654 0.1692,-0.03141 0.33199,-0.03141 0.3821,1.3e-5 0.79551,0.201535 z m 4.1037,11.807667 q -3e-5,-0.428228 -0.069,-0.881631 -0.0628,-0.453408 -0.20678,-0.818674 -0.1378,-0.37153 -0.36962,-0.604539 -0.22551,-0.239314 -0.55122,-0.239324 -0.3821,-1.3e-5 -0.75789,0.195198 -0.36956,0.188898 -0.72032,0.516344 -0.34447,0.32117 -0.6639,0.749375 -0.31941,0.421904 -0.60125,0.887904 -0.27556,0.465996 -0.50103,0.94459 -0.21919,0.472299 -0.38201,0.900513 -0.15656,0.428209 -0.24424,0.780874 -0.0876,0.346336 -0.0877,0.554155 0.0939,0.390438 0.28818,0.711611 0.20047,0.31487 0.4761,0.541591 0.28188,0.220408 0.62013,0.340069 0.34453,0.11959 0.7266,0.119604 0.62638,1.5e-5 1.17758,-0.314838 0.55744,-0.321139 0.97082,-0.925683 0.41336,-0.604535 0.65131,-1.473555 0.24423,-0.875334 0.24414,-1.983651 z" />
        <path
           inkscape:connector-curvature="0"
           id="path6082"
           style="font-style:normal;font-variant:normal;font-weight:normal;font-stretch:normal;font-size:14.45115471px;font-family:Gabriola;-inkscape-font-specification:'Gabriola, Normal';font-variant-ligatures:normal;font-variant-caps:normal;font-variant-numeric:normal;font-feature-settings:normal;text-align:start;writing-mode:lr-tb;text-anchor:start;stroke-width:2.11013222;fill:#0000d3;fill-opacity:1"
           d="m 172.83078,28.229468 q -0.11887,1.007573 -0.23786,2.078125 -0.11887,1.070543 -0.23159,2.166281 -0.10647,1.095735 -0.2128,2.204069 -0.10023,1.10833 -0.18774,2.191464 -0.0814,1.076848 -0.14382,2.115914 -0.0626,1.032756 -0.10012,1.983667 l 0.0689,0.0076 q 0.49473,-1.221665 1.06467,-2.15366 0.56992,-0.931993 1.15867,-1.561701 0.58874,-0.629718 1.16499,-0.950877 0.58251,-0.321145 1.09615,-0.321127 0.43219,1.2e-5 0.76418,0.1637 0.332,0.157435 0.5763,0.428236 0.24431,0.264491 0.40719,0.617155 0.16283,0.346354 0.26314,0.730498 0.1003,0.377834 0.13783,0.768288 0.0439,0.39043 0.044,0.730489 1.6e-4,0.938305 -0.18778,1.756944 -0.18159,0.812364 -0.50725,1.486171 -0.32567,0.667518 -0.77035,1.190173 -0.4447,0.522665 -0.96456,0.881608 -0.51988,0.358935 -1.09611,0.541526 -0.57626,0.18892 -1.15878,0.188896 -0.38837,-9e-6 -0.78299,-0.08817 -0.38836,-0.08823 -0.76421,-0.270796 -0.36958,-0.182641 -0.70158,-0.466035 -0.332,-0.289685 -0.5951,-0.680124 -0.21919,0.55415 -0.44465,0.906812 -0.22547,0.352635 -0.41965,0.566749 l -0.32572,-0.08195 q 0.34445,-0.963489 0.5072,-2.311119 0.16269,-1.35392 0.25029,-3.0605 0.0312,-0.730497 0.0749,-1.662501 0.05,-0.932 0.1,-1.964768 0.05,-1.032758 0.10639,-2.109611 0.0563,-1.083151 0.11257,-2.103314 0.0564,-1.020181 0.10639,-1.933281 0.05,-0.913119 0.0937,-1.618424 0.007,-0.151182 0.0939,-0.25818 0.0877,-0.113346 0.21921,-0.176349 0.13155,-0.06921 0.29438,-0.100654 0.1692,-0.03141 0.33198,-0.03141 0.3821,1.4e-5 0.79552,0.201536 z m 4.1037,11.807667 q -3e-5,-0.428237 -0.069,-0.881641 -0.0627,-0.453399 -0.20678,-0.818664 -0.1378,-0.37154 -0.36961,-0.604539 -0.22551,-0.239314 -0.55122,-0.239324 -0.3821,-1.3e-5 -0.7579,0.195198 -0.36955,0.188898 -0.72031,0.516343 -0.34448,0.321171 -0.6639,0.749376 -0.31942,0.421904 -0.60126,0.887904 -0.27554,0.465996 -0.50103,0.94459 -0.21918,0.472299 -0.38201,0.900513 -0.15655,0.428209 -0.24423,0.780874 -0.0876,0.346336 -0.0877,0.554155 0.0939,0.390428 0.28818,0.711611 0.20047,0.31487 0.47609,0.541591 0.28189,0.220408 0.62013,0.340059 0.34453,0.1196 0.72662,0.119614 0.62637,1.5e-5 1.17757,-0.314838 0.55745,-0.321139 0.97082,-0.925684 0.41335,-0.604534 0.65131,-1.473554 0.24422,-0.875334 0.24413,-1.983651 z" />
        <path
           inkscape:connector-curvature="0"
           id="path6084"
           style="font-style:normal;font-variant:normal;font-weight:normal;font-stretch:normal;font-size:14.45115471px;font-family:Gabriola;-inkscape-font-specification:'Gabriola, Normal';font-variant-ligatures:normal;font-variant-caps:normal;font-variant-numeric:normal;font-feature-settings:normal;text-align:start;writing-mode:lr-tb;text-anchor:start;stroke-width:2.11013222;fill:#0000d3;fill-opacity:1"
           d="m 186.35544,43.179778 q 0.0377,0.01893 0.0939,0.05672 0.0627,0.03146 0.11275,0.07547 0.0501,0.03788 0.0877,0.08822 0.0376,0.04411 0.0377,0.08816 0,0.02518 -0.0188,0.05037 -0.35072,0.491174 -0.75784,0.856406 -0.40086,0.358937 -0.8393,0.604528 -0.43218,0.239288 -0.88317,0.352619 -0.45098,0.119574 -0.88945,0.119556 -0.75165,-1.5e-5 -1.37806,-0.30861 -0.6264,-0.308594 -1.07742,-0.843881 -0.45105,-0.535288 -0.70791,-1.253189 -0.2506,-0.724215 -0.25066,-1.549163 1.6e-4,-0.673817 0.14387,-1.347617 0.15033,-0.673815 0.42586,-1.28466 0.28181,-0.610839 0.68265,-1.133496 0.40084,-0.528967 0.90819,-0.913102 0.51358,-0.39041 1.12116,-0.610792 0.61382,-0.220404 1.31537,-0.220377 0.46352,1.2e-5 0.88321,0.126037 0.41967,0.126026 0.73289,0.365285 0.31947,0.233013 0.50741,0.579361 0.18795,0.346368 0.18798,0.787185 -1e-4,0.642319 -0.41961,1.120908 -0.41335,0.478594 -1.14619,0.812326 -0.73284,0.333741 -1.72876,0.541513 -0.98966,0.201487 -2.1422,0.302211 l 1e-5,0.107087 q -4.1e-4,0.806067 0.20055,1.473595 0.20677,0.667525 0.56384,1.146142 0.35708,0.472308 0.8394,0.736815 0.48234,0.264499 1.03981,0.264519 0.56374,1.6e-5 1.15251,-0.277062 0.59504,-0.283353 1.20258,-0.913082 z m -1.17799,-5.056802 q -3e-5,-0.289669 -0.10034,-0.541573 -0.094,-0.251888 -0.26936,-0.434525 -0.1692,-0.18892 -0.40717,-0.295986 -0.23803,-0.107104 -0.51365,-0.107116 -0.40714,-8e-6 -0.73911,0.14474 -0.33197,0.144746 -0.59502,0.396712 -0.26306,0.245598 -0.46347,0.579347 -0.20043,0.327457 -0.34445,0.698999 -0.13774,0.371537 -0.22543,0.761963 -0.0877,0.390435 -0.12529,0.761978 0.88946,-0.06297 1.59099,-0.214076 0.70779,-0.157405 1.19009,-0.396695 0.48855,-0.245565 0.74533,-0.57932 0.2568,-0.340054 0.25676,-0.774572 z" />
        <path
           inkscape:connector-curvature="0"
           id="path6086"
           style="font-style:normal;font-variant:normal;font-weight:normal;font-stretch:normal;font-size:14.45115471px;font-family:Gabriola;-inkscape-font-specification:'Gabriola, Normal';font-variant-ligatures:normal;font-variant-caps:normal;font-variant-numeric:normal;font-feature-settings:normal;text-align:start;writing-mode:lr-tb;text-anchor:start;stroke-width:2.11013222;fill:#0000d3;fill-opacity:1"
           d="m 193.15755,38.658487 q -4e-5,-0.497488 -0.16288,-0.862732 -0.16283,-0.365254 -0.42598,-0.598263 -0.26309,-0.233009 -0.59508,-0.346375 -0.33199,-0.113355 -0.66398,-0.113361 -0.44473,-1.4e-5 -0.75162,0.09439 -0.30694,0.0944 -0.50109,0.258172 -0.18791,0.163673 -0.27559,0.390418 -0.0815,0.220402 -0.0814,0.478609 2e-5,0.30227 0.10657,0.61083 0.11276,0.302276 0.32576,0.591977 l -0.025,0.06923 q -0.35703,0.176338 -0.72032,0.176332 -0.21297,-2e-6 -0.40088,-0.06304 -0.18167,-0.0693 -0.31949,-0.195223 -0.13156,-0.126022 -0.21297,-0.308582 -0.0752,-0.18262 -0.0752,-0.40932 -3e-5,-0.371548 0.17535,-0.699 0.18162,-0.327466 0.476,-0.598244 0.29438,-0.27077 0.68271,-0.484869 0.38833,-0.214109 0.80174,-0.358926 0.41339,-0.151164 0.8268,-0.226672 0.41967,-0.08193 0.77671,-0.08186 0.65769,2.6e-5 1.12123,0.176385 0.4698,0.176366 0.75794,0.5164 0.29443,0.333759 0.42601,0.812371 0.13781,0.478609 0.13785,1.083138 3e-5,0.415638 -0.0376,0.91312 -0.0312,0.497489 -0.0751,1.045365 -0.0438,0.541576 -0.0814,1.120918 -0.0312,0.579368 -0.0311,1.152425 1.9e-4,0.906827 0.3321,1.366531 0.33828,0.45342 0.88322,0.453429 0.48232,1.9e-5 1.07734,-0.358913 l 0.18167,0.270801 q -0.41963,0.421899 -0.91445,0.642307 -0.49483,0.220379 -1.03978,0.220371 -0.40714,-1.8e-5 -0.75165,-0.138537 -0.34454,-0.138519 -0.5951,-0.409344 -0.25057,-0.277088 -0.38841,-0.692718 -0.13781,-0.415619 -0.13785,-0.963497 -2e-5,-0.163682 0.007,-0.327463 0.0124,-0.16367 0.0438,-0.346357 l -0.0377,-5e-6 q -0.26929,0.541571 -0.62628,1.070539 -0.35074,0.522664 -0.77665,0.938277 -0.41964,0.40932 -0.90192,0.6612 -0.47602,0.258185 -1.00218,0.258175 -0.4322,-2.1e-5 -0.78926,-0.151209 -0.35705,-0.151197 -0.61387,-0.415651 -0.25058,-0.264498 -0.39467,-0.623444 -0.1378,-0.36525 -0.13783,-0.793468 -4e-5,-0.554158 0.20036,-1.007575 0.20667,-0.453393 0.56367,-0.812341 0.36328,-0.358933 0.86436,-0.617105 0.50108,-0.264472 1.08986,-0.434491 0.58878,-0.176329 1.24647,-0.258153 0.6577,-0.0882 1.34044,-0.08814 0.0439,-0.396727 0.0688,-0.768272 0.0311,-0.371548 0.0311,-0.818647 z m -3.84563,4.326164 q 2e-5,0.245599 0.0502,0.472306 0.0563,0.220422 0.16904,0.390439 0.11896,0.1701 0.29444,0.27079 0.18164,0.09439 0.4322,0.09442 0.28187,8e-6 0.58252,-0.132245 0.30065,-0.132252 0.58875,-0.365218 0.29438,-0.232999 0.55745,-0.554149 0.26931,-0.327452 0.48225,-0.711587 0.21294,-0.384127 0.3507,-0.806054 0.14413,-0.428221 0.18785,-0.875317 -0.46351,0.01245 -0.92077,0.063 -0.45725,0.04404 -0.87064,0.144725 -0.40715,0.100657 -0.7579,0.264487 -0.35077,0.163668 -0.60756,0.409301 -0.25053,0.23929 -0.39457,0.573043 -0.14414,0.327461 -0.1441,0.761979 z" />
        <path
           inkscape:connector-curvature="0"
           id="path6088"
           style="font-style:normal;font-variant:normal;font-weight:normal;font-stretch:normal;font-size:14.45115471px;font-family:Gabriola;-inkscape-font-specification:'Gabriola, Normal';font-variant-ligatures:normal;font-variant-caps:normal;font-variant-numeric:normal;font-feature-settings:normal;text-align:start;writing-mode:lr-tb;text-anchor:start;stroke-width:2.11013222;fill:#0000d3;fill-opacity:1"
           d="m 198.26872,37.890363 q -2e-5,-0.258189 -0.0377,-0.434514 -0.0376,-0.176355 -0.11897,-0.277092 -0.0751,-0.1071 -0.1942,-0.151192 -0.11896,-0.04407 -0.28187,-0.04406 -0.2255,-4e-6 -0.53868,0.06295 -0.31319,0.063 -0.71406,0.170077 l -0.0939,-0.453398 q 0.44473,-0.157416 0.85187,-0.283368 0.41338,-0.132246 0.75789,-0.226678 0.34451,-0.09442 0.60759,-0.144917 0.26307,-0.05033 0.41339,-0.05033 0.36331,6e-6 0.56375,0.220416 0.20674,0.214126 0.20677,0.743094 1e-5,0.063 -0.0124,0.295977 -0.0123,0.226697 -0.0377,0.579361 -0.0188,0.352642 -0.05,0.81234 -0.0312,0.453419 -0.075,0.969795 -0.0376,0.516392 -0.0877,1.070553 -0.0501,0.547869 -0.10647,1.095725 l 0.0376,0.0067 q 0.47592,-1.624701 1.02078,-2.739318 0.54487,-1.120907 1.10855,-1.813599 0.56369,-0.69899 1.12113,-1.007549 0.55746,-0.308557 1.06483,-0.308535 0.35076,4e-6 0.6765,0.132282 0.32572,0.132269 0.57629,0.421928 0.25685,0.289702 0.4072,0.749403 0.15042,0.453411 0.15047,1.102049 2e-5,0.18891 -0.025,0.510084 -0.0188,0.314862 -0.05,0.705309 -0.0313,0.390429 -0.0751,0.831245 -0.0376,0.434513 -0.0688,0.856432 -0.0312,0.421909 -0.0564,0.806063 -0.0188,0.377841 -0.0188,0.66121 4e-5,0.491188 0.0377,0.799773 0.0439,0.308571 0.13782,0.491189 0.0939,0.176348 0.25057,0.245607 0.15659,0.063 0.38209,0.06305 0.32571,1e-5 0.67649,-0.08812 0.35075,-0.09443 0.70778,-0.258165 l 0.11897,0.327462 q -0.22548,0.182605 -0.56998,0.371526 -0.3445,0.188912 -0.72656,0.346328 -0.37583,0.157412 -0.75165,0.251883 -0.37581,0.100829 -0.66396,0.100824 -0.33822,-1.2e-5 -0.53241,-0.182645 -0.19421,-0.182625 -0.29445,-0.497499 -0.094,-0.314877 -0.1254,-0.736796 -0.0251,-0.421922 -0.025,-0.90682 1e-5,-0.591948 0.0376,-1.21538 0.0439,-0.629736 0.0938,-1.196506 0.05,-0.56676 0.0876,-1.026462 0.0438,-0.466007 0.0439,-0.743095 2.7e-4,-0.736769 -0.2757,-1.083139 -0.27561,-0.35267 -0.7329,-0.352685 -0.36329,-1.6e-5 -0.76414,0.308551 -0.40086,0.308558 -0.8017,0.850124 -0.39457,0.535263 -0.76407,1.272048 -0.36325,0.730481 -0.65758,1.586908 -0.29434,0.850137 -0.48843,1.782138 -0.19411,0.932002 -0.24415,1.864011 l -1.3091,0.163636 -0.10014,-0.0076 q 0.05,-0.598241 0.0938,-1.303546 0.0437,-0.705306 0.0814,-1.429497 0.0376,-0.730492 0.0626,-1.442096 0.0312,-0.717887 0.05,-1.335036 0.025,-0.623434 0.0312,-1.114617 0.0123,-0.491205 0.0124,-0.774575 z" />
        <path
           inkscape:connector-curvature="0"
           id="path6092"
           style="font-style:normal;font-variant:normal;font-weight:normal;font-stretch:normal;font-size:14.45115471px;font-family:Gabriola;-inkscape-font-specification:'Gabriola, Normal';font-variant-ligatures:normal;font-variant-caps:normal;font-variant-numeric:normal;font-feature-settings:normal;text-align:start;writing-mode:lr-tb;text-anchor:start;stroke-width:1.8244046"
           d="m 109.1184,48.534061 q -0.20901,1.304117 -0.40091,2.669838 -0.1919,1.36572 -0.33785,2.721131 -0.14592,1.355419 -0.23435,2.669742 -0.0884,1.314317 -0.0905,2.520768 -10e-4,0.580125 0.01,0.995966 0.0166,0.415839 0.0447,0.703314 0.034,0.287465 0.0853,0.456851 0.0572,0.169393 0.13744,0.261762 0.0859,0.09235 0.19506,0.123131 0.10904,0.02552 0.25843,0.02548 0.27569,-1.58e-4 0.59169,-0.07227 0.32178,-0.07716 0.64938,-0.210863 l 0.10861,0.266896 q -0.20702,0.14899 -0.52318,0.303203 -0.3104,0.154195 -0.65524,0.28274 -0.34483,0.128537 -0.67809,0.205753 -0.32752,0.08237 -0.56875,0.08251 -0.17804,9e-5 -0.31009,-0.0358 -0.13212,-0.03585 -0.2295,-0.128216 -0.0918,-0.08725 -0.16043,-0.236072 -0.0628,-0.148834 -0.10272,-0.379845 -0.0512,-0.307984 -0.0849,-0.718675 -0.028,-0.410693 -0.0271,-0.893276 0.001,-0.513394 0.042,-1.042196 0.0468,-0.533955 0.14543,-1.062789 l -0.0517,-0.01016 q -0.44407,1.042437 -0.96819,1.884693 -0.51837,0.842255 -1.07077,1.4381 -0.55238,0.595846 -1.11007,0.919607 -0.55767,0.318635 -1.06884,0.31893 -0.51691,2.97e-4 -0.88983,-0.235643 -0.37293,-0.230804 -0.6135,-0.610562 -0.23481,-0.384904 -0.34882,-0.877693 -0.11407,-0.497916 -0.11317,-1.021556 0.001,-0.631468 0.15729,-1.242495 0.15606,-0.616146 0.44427,-1.165638 0.29386,-0.549502 0.70246,-1.016918 0.40861,-0.472549 0.91461,-0.811683 0.50602,-0.339126 1.09218,-0.52942 0.59192,-0.195435 1.24092,-0.195812 0.45374,-2.61e-4 0.90155,0.102203 0.45356,0.102465 0.90114,0.338314 0.0301,-0.872769 0.072,-1.771215 0.0475,-0.903589 0.10642,-1.755848 0.059,-0.852243 0.12911,-1.612107 0.0701,-0.759849 0.15163,-1.355418 0.0175,-0.123258 0.0922,-0.210538 0.0749,-0.09245 0.18979,-0.143876 0.11503,-0.05657 0.2586,-0.08222 0.14362,-0.02569 0.29296,-0.02579 0.34461,-2.05e-4 0.72339,0.163852 z m -2.07443,7.234802 q -0.77479,-0.328119 -1.53867,-0.327671 -0.55713,3.26e-4 -1.02837,0.159765 -0.46548,0.159416 -0.83931,0.441988 -0.3738,0.277455 -0.6559,0.657522 -0.28206,0.374946 -0.46661,0.811421 -0.18454,0.431365 -0.28299,0.898586 -0.0926,0.467237 -0.0935,0.92928 -2.8e-4,0.16429 0.0166,0.379901 0.0169,0.210485 0.0625,0.441469 0.0514,0.225864 0.1314,0.446577 0.08,0.215578 0.20035,0.390048 0.12032,0.174478 0.28669,0.282195 0.17212,0.102639 0.40187,0.102494 0.41353,-2.36e-4 0.84477,-0.277722 0.43124,-0.277462 0.83981,-0.734629 0.41433,-0.457152 0.77718,-1.047753 0.36861,-0.590603 0.65111,-1.211968 0.28825,-0.626502 0.46735,-1.232392 0.18486,-0.611043 0.22592,-1.109057 z" />
        <path
           inkscape:connector-curvature="0"
           id="path6094"
           style="font-style:normal;font-variant:normal;font-weight:normal;font-stretch:normal;font-size:14.45115471px;font-family:Gabriola;-inkscape-font-specification:'Gabriola, Normal';font-variant-ligatures:normal;font-variant-caps:normal;font-variant-numeric:normal;font-feature-settings:normal;text-align:start;writing-mode:lr-tb;text-anchor:start;stroke-width:1.8244046"
           d="m 113.10889,55.883393 q -6.1e-4,0.349105 -0.0301,0.749574 -0.0237,0.395311 -0.0646,0.806039 -0.0352,0.410734 -0.0818,0.821472 -0.0409,0.405593 -0.0818,0.770113 -0.0351,0.364535 -0.0642,0.672582 -0.0235,0.302919 -0.0238,0.508257 -0.001,0.610936 0.2569,0.893139 0.25798,0.28222 0.68874,0.281963 0.4882,-2.89e-4 1.00017,-0.467771 0.51198,-0.472609 0.97877,-1.376429 0.46677,-0.903837 0.79612,-2.028347 0.32932,-1.129628 0.42347,-2.433694 l 1.21785,-0.134149 0.092,0.0062 q -0.0526,0.487744 -0.0995,1.037097 -0.0412,0.544213 -0.0766,1.093552 -0.0355,0.544214 -0.0536,1.067882 -0.0181,0.523653 -0.0189,0.965164 -0.001,0.83683 0.10669,1.370685 0.10816,0.528712 0.27999,0.836639 0.17178,0.302809 0.38982,0.420757 0.22381,0.112788 0.44779,0.112661 0.13219,-7.7e-5 0.25852,-0.031 0.13208,-0.03088 0.2471,-0.07201 0.115,-0.04634 0.20693,-0.09761 0.0977,-0.05138 0.16673,-0.0925 l 0.18911,0.236056 q -0.16682,0.154106 -0.37957,0.292852 -0.21274,0.133554 -0.4484,0.231275 -0.23566,0.102874 -0.4942,0.159446 -0.25857,0.05655 -0.52276,0.05679 -0.33312,2.06e-4 -0.64881,-0.117625 -0.30995,-0.117834 -0.55069,-0.394989 -0.24076,-0.277081 -0.38928,-0.739051 -0.14278,-0.461962 -0.14159,-1.149892 3.8e-4,-0.220759 0.0123,-0.446657 0.0117,-0.225898 0.0354,-0.477458 0.0234,-0.251576 0.0584,-0.539101 0.0407,-0.292654 0.093,-0.64178 l -0.0631,-0.01015 q -0.39281,1.288833 -0.85379,2.161858 -0.45525,0.873015 -0.93863,1.407213 -0.47762,0.534204 -0.96046,0.760369 -0.48287,0.23131 -0.91936,0.231569 -0.32737,1.87e-4 -0.63161,-0.102366 -0.29849,-0.09732 -0.53358,-0.323118 -0.23508,-0.230892 -0.37801,-0.605575 -0.13724,-0.374692 -0.13629,-0.924015 6.3e-4,-0.359366 0.0473,-0.831716 0.0467,-0.477461 0.0994,-1.011418 0.0584,-0.539093 0.1053,-1.108977 0.0469,-0.57502 0.0479,-1.134606 4e-4,-0.225894 -0.0166,-0.390172 -0.0169,-0.164274 -0.0742,-0.272046 -0.0573,-0.107795 -0.17203,-0.159052 -0.10898,-0.05131 -0.30431,-0.05116 -0.19527,1.17e-4 -0.51126,0.05164 -0.31024,0.05156 -0.655,0.139062 l -0.0855,-0.369584 q 0.47122,-0.149167 0.87345,-0.257205 0.40798,-0.113158 0.724,-0.18524 0.32175,-0.0721 0.54006,-0.108144 0.22407,-0.03609 0.32745,-0.03613 0.20677,-1.15e-4 0.33875,0.06657 0.13206,0.06674 0.21217,0.194957 0.0802,0.128289 0.10853,0.307965 0.0342,0.179678 0.0338,0.410691 z" />
        <path
           inkscape:connector-curvature="0"
           id="path6096"
           style="font-style:normal;font-variant:normal;font-weight:normal;font-stretch:normal;font-size:14.45115471px;font-family:Gabriola;-inkscape-font-specification:'Gabriola, Normal';font-variant-ligatures:normal;font-variant-caps:normal;font-variant-numeric:normal;font-feature-settings:normal;text-align:start;writing-mode:lr-tb;text-anchor:start;stroke-width:1.8244046"
           d="m 125.30027,57.031387 q 0.16132,-0.282457 0.16182,-0.575084 3.5e-4,-0.200222 -0.0798,-0.374722 -0.0744,-0.179654 -0.22921,-0.313039 -0.1549,-0.138583 -0.39018,-0.215396 -0.22958,-0.08193 -0.53974,-0.08175 -0.44798,2.62e-4 -0.80433,0.144238 -0.35634,0.138887 -0.63245,0.385409 -0.27036,0.246575 -0.46621,0.570136 -0.19008,0.323536 -0.31709,0.69324 -0.12126,0.369718 -0.17935,0.759918 -0.0581,0.385074 -0.0587,0.754726 -10e-4,0.662254 0.18744,1.206333 0.19435,0.538934 0.52107,0.923779 0.32671,0.37971 0.76285,0.589957 0.43615,0.210231 0.93007,0.20994 0.52267,-3.07e-4 1.05723,-0.2419 0.54031,-0.246747 1.04668,-0.791229 0.0345,0.01537 0.086,0.04628 0.0575,0.02553 0.10327,0.06149 0.0458,0.03596 0.0803,0.07184 0.0345,0.03596 0.0345,0.06681 -4e-5,0.02051 -0.007,0.02564 l -0.0114,0.02051 q -0.55851,0.806337 -1.3403,1.207235 -0.78181,0.400898 -1.71226,0.401439 -0.50542,2.94e-4 -0.93022,-0.127795 -0.42479,-0.123003 -0.76902,-0.343529 -0.34422,-0.225677 -0.6079,-0.528419 -0.25793,-0.307887 -0.43536,-0.66202 -0.17167,-0.35927 -0.2629,-0.74938 -0.0854,-0.395263 -0.0847,-0.795693 10e-4,-0.539062 0.13387,-1.0782 0.13314,-0.544265 0.38664,-1.042388 0.25932,-0.503277 0.6219,-0.934726 0.36834,-0.436599 0.82837,-0.755159 0.46579,-0.323703 1.02322,-0.503722 0.55741,-0.18514 1.18921,-0.185514 0.47096,-2.72e-4 0.87858,0.102223 0.40759,0.102487 0.70019,0.29223 0.29834,0.184641 0.46445,0.451498 0.17185,0.261724 0.17128,0.585156 -3.7e-4,0.210494 -0.0754,0.374826 -0.0691,0.159182 -0.2015,0.277333 -0.12652,0.11299 -0.3047,0.174734 -0.1724,0.05653 -0.37918,0.05675 -0.12632,7.5e-5 -0.26416,-0.02035 -0.13214,-0.02552 -0.26406,-0.07683 z" />
        <path
           inkscape:connector-curvature="0"
           id="path6098"
           style="font-style:normal;font-variant:normal;font-weight:normal;font-stretch:normal;font-size:14.45115471px;font-family:Gabriola;-inkscape-font-specification:'Gabriola, Normal';font-variant-ligatures:normal;font-variant-caps:normal;font-variant-numeric:normal;font-feature-settings:normal;text-align:start;writing-mode:lr-tb;text-anchor:start;stroke-width:1.8244046"
           d="m 132.5428,57.022016 q 7e-4,-0.405568 -0.14806,-0.703246 -0.14877,-0.297674 -0.38972,-0.487485 -0.2409,-0.189811 -0.54514,-0.282053 -0.30424,-0.09222 -0.60865,-0.09204 -0.40778,2.38e-4 -0.68934,0.07737 -0.28157,0.07713 -0.45985,0.210745 -0.17254,0.133538 -0.25327,0.318445 -0.075,0.17973 -0.0753,0.390224 -4.2e-4,0.246426 0.0968,0.49792 0.10294,0.246365 0.29782,0.482411 l -0.0231,0.05648 q -0.32764,0.143963 -0.66076,0.14416 -0.19527,1.03e-4 -0.36749,-0.05117 -0.16646,-0.05643 -0.29263,-0.158985 -0.12045,-0.102653 -0.19486,-0.251451 -0.0686,-0.148825 -0.0683,-0.333639 5.3e-4,-0.302901 0.16183,-0.569951 0.16704,-0.267077 0.43735,-0.487991 0.27033,-0.220899 0.62672,-0.395666 0.3564,-0.17476 0.73567,-0.293052 0.3793,-0.123475 0.75846,-0.185264 0.38494,-0.06703 0.71232,-0.06717 0.60305,-3.55e-4 1.02782,0.143168 0.43051,0.143509 0.69423,0.420557 0.26949,0.271936 0.38942,0.662047 0.12565,0.390107 0.12479,0.882943 -5.7e-4,0.338834 -0.0358,0.744433 -0.0293,0.405589 -0.0703,0.852263 -0.0409,0.441538 -0.0763,0.913861 -0.0295,0.472337 -0.0303,0.939524 -9e-4,0.739272 0.30247,1.113861 0.3095,0.369453 0.80919,0.369161 0.44224,-2.61e-4 0.98837,-0.293208 l 0.16619,0.220656 q -0.38542,0.344197 -0.83946,0.524148 -0.45404,0.17995 -0.95371,0.180243 -0.37333,2.17e-4 -0.68904,-0.112513 -0.31568,-0.112738 -0.54504,-0.333385 -0.22934,-0.22575 -0.35512,-0.564516 -0.12573,-0.33875 -0.12497,-0.785405 2.3e-4,-0.133429 0.007,-0.26696 0.0116,-0.133442 0.0407,-0.282384 l -0.0345,1.8e-5 q -0.24773,0.44166 -0.57585,0.873089 -0.32238,0.426292 -0.71353,0.765364 -0.38538,0.333927 -0.82799,0.539533 -0.43687,0.210756 -0.91932,0.211036 -0.3963,2.31e-4 -0.72346,-0.122823 -0.32717,-0.123063 -0.56229,-0.338516 -0.22935,-0.215488 -0.36096,-0.508029 -0.1258,-0.297694 -0.1252,-0.646789 7.8e-4,-0.451773 0.18519,-0.821533 0.19019,-0.369737 0.51808,-0.662568 0.33363,-0.292824 0.79346,-0.503578 0.45985,-0.21589 0.99999,-0.354816 0.54013,-0.144086 1.14331,-0.211154 0.60318,-0.07227 1.22923,-0.0726 0.0408,-0.323448 0.0642,-0.626358 0.0292,-0.302921 0.0298,-0.667414 z m -3.5326,3.529016 q -3.4e-4,0.200227 0.0453,0.38502 0.0513,0.179657 0.15458,0.318194 0.10884,0.138618 0.26956,0.220603 0.16644,0.07686 0.39617,0.07671 0.25847,-1.53e-4 0.53434,-0.108139 0.27586,-0.107986 0.5404,-0.298081 0.27027,-0.190105 0.51195,-0.452068 0.24743,-0.267101 0.44325,-0.580395 0.19582,-0.313269 0.32278,-0.657321 0.13262,-0.349173 0.17353,-0.713693 -0.42504,0.01045 -0.84438,0.05191 -0.41934,0.03617 -0.79855,0.118481 -0.37348,0.0823 -0.69533,0.216044 -0.32186,0.133616 -0.5577,0.334007 -0.23008,0.195229 -0.36264,0.4674 -0.13249,0.267028 -0.13311,0.621267 z" />
        <path
           inkscape:connector-curvature="0"
           id="path6100"
           style="font-style:normal;font-variant:normal;font-weight:normal;font-stretch:normal;font-size:14.45115471px;font-family:Gabriola;-inkscape-font-specification:'Gabriola, Normal';font-variant-ligatures:normal;font-variant-caps:normal;font-variant-numeric:normal;font-feature-settings:normal;text-align:start;writing-mode:lr-tb;text-anchor:start;stroke-width:1.8244046"
           d="m 139.12341,51.196388 q -0.24292,0.97557 -0.41128,2.017843 -0.16262,1.037122 -0.27922,2.048559 0.26991,0.01 0.52262,0.01508 0.25844,0.006 0.47669,0.0099 0.22399,0.006 0.40204,0.0058 0.18379,-1.11e-4 0.3044,-1.8e-4 0.52264,-3.02e-4 0.85588,-0.05696 0.0285,0.08729 0.0456,0.15912 0.0171,0.07187 0.017,0.13342 -3.9e-4,0.225886 -0.21301,0.29275 -0.20688,0.0669 -0.60318,0.06712 -0.37906,2.21e-4 -0.84997,-0.04054 -0.46514,-0.04075 -1.02219,-0.0764 -0.0641,0.549352 -0.11092,1.073033 -0.0411,0.518548 -0.0706,0.980607 -0.0237,0.462066 -0.036,0.857389 -0.0121,0.395306 -0.0125,0.687924 -0.001,0.549323 0.0614,0.98053 0.0624,0.431216 0.22273,0.73401 0.16032,0.297685 0.44144,0.456665 0.28116,0.158987 0.71193,0.15873 0.31014,-1.83e-4 0.68938,-0.0979 0.38497,-0.09771 0.87355,-0.31366 0.15489,0.138573 0.17747,0.33872 -0.35648,0.21071 -0.71861,0.385459 -0.36213,0.169631 -0.7127,0.293059 -0.35057,0.123453 -0.67805,0.190356 -0.32749,0.06699 -0.62042,0.06715 -0.38481,2.28e-4 -0.70623,-0.12793 -0.31566,-0.123066 -0.55059,-0.441188 -0.22919,-0.323308 -0.36035,-0.867411 -0.12539,-0.544112 -0.12395,-1.375799 8.3e-4,-0.467179 0.019,-0.960037 0.0181,-0.498001 0.0477,-1.00626 0.0298,-0.508275 0.0765,-1.016554 0.0467,-0.508273 0.10511,-1.001163 -0.45375,0.006 -0.84437,0.03641 -0.38485,0.02581 -0.66064,0.08769 -0.0172,-0.03081 -0.0172,-0.07187 2e-4,-0.107823 0.11529,-0.200293 0.12079,-0.09756 0.32767,-0.174735 0.21263,-0.07713 0.50563,-0.12864 0.29303,-0.05155 0.64341,-0.07224 0.13388,-1.07304 0.28494,-2.02803 0.15093,-0.954982 0.3016,-1.704621 0.0289,-0.13345 0.10376,-0.220816 0.0806,-0.08736 0.18403,-0.13878 0.10347,-0.0514 0.22412,-0.07199 0.12067,-0.02059 0.23552,-0.02065 0.18953,-1.1e-4 0.3388,0.03575 0.15508,0.03588 0.28699,0.102564 z" />
        <path
           inkscape:connector-curvature="0"
           id="path6102"
           style="font-style:normal;font-variant:normal;font-weight:normal;font-stretch:normal;font-size:14.45115471px;font-family:Gabriola;-inkscape-font-specification:'Gabriola, Normal';font-variant-ligatures:normal;font-variant-caps:normal;font-variant-numeric:normal;font-feature-settings:normal;text-align:start;writing-mode:lr-tb;text-anchor:start;stroke-width:1.8244046"
           d="m 143.61785,52.74932 q -0.20101,1.16e-4 -0.35597,-0.07171 -0.15501,-0.07686 -0.26385,-0.194936 -0.10887,-0.123182 -0.1661,-0.277114 -0.0572,-0.15913 -0.0569,-0.323417 4e-4,-0.231013 0.0868,-0.405625 0.0864,-0.179723 0.22452,-0.297891 0.1381,-0.123328 0.30471,-0.179853 0.16666,-0.06162 0.32748,-0.06173 0.19529,-1.17e-4 0.35023,0.06656 0.15504,0.06148 0.26391,0.174385 0.11474,0.112848 0.17185,0.26173 0.0629,0.143732 0.0626,0.313123 -3.1e-4,0.179694 -0.0695,0.359413 -0.0692,0.1746 -0.19582,0.318411 -0.12088,0.143835 -0.29906,0.231203 -0.17245,0.08741 -0.38496,0.08753 z m 0.49567,2.320191 q -0.0986,0.585325 -0.1686,1.175763 -0.0698,0.585296 -0.1169,1.134639 -0.0412,0.549351 -0.065,1.042211 -0.0181,0.487731 -0.0188,0.883043 -0.001,0.533918 0.0157,0.918938 0.0166,0.379901 0.0563,0.641698 0.0397,0.261813 0.0969,0.420927 0.0628,0.15397 0.14887,0.241202 0.0918,0.082 0.20657,0.107707 0.1206,0.02552 0.2699,0.02548 0.27569,-1.66e-4 0.59171,-0.07227 0.32176,-0.07715 0.64938,-0.210863 l 0.10861,0.266896 q -0.20702,0.14899 -0.52318,0.303203 -0.31042,0.154195 -0.65524,0.282732 -0.34483,0.128545 -0.67809,0.205761 -0.32752,0.08245 -0.56874,0.08251 -0.16083,9.3e-5 -0.29288,-0.02539 -0.13199,-0.02047 -0.24103,-0.112767 -0.10321,-0.09235 -0.18907,-0.271984 -0.0801,-0.179649 -0.13704,-0.487632 -0.0511,-0.308009 -0.0791,-0.770036 -0.0278,-0.462035 -0.0267,-1.119162 6.7e-4,-0.385042 0.008,-0.867627 0.0123,-0.48773 0.0304,-1.042193 0.0182,-0.559598 0.0479,-1.175685 0.0297,-0.621208 0.0769,-1.278376 0.0116,-0.143771 0.0865,-0.231066 0.0749,-0.09244 0.18404,-0.138781 0.10915,-0.05141 0.22984,-0.06693 0.12636,-0.0206 0.22978,-0.02064 0.38481,-2.27e-4 0.7234,0.158718 z" />
        <path
           inkscape:connector-curvature="0"
           id="path6104"
           style="font-style:normal;font-variant:normal;font-weight:normal;font-stretch:normal;font-size:14.45115471px;font-family:Gabriola;-inkscape-font-specification:'Gabriola, Normal';font-variant-ligatures:normal;font-variant-caps:normal;font-variant-numeric:normal;font-feature-settings:normal;text-align:start;writing-mode:lr-tb;text-anchor:start;stroke-width:1.8244046"
           d="m 146.29439,59.339603 q 0.001,-0.518529 0.12245,-1.052512 0.12155,-0.533984 0.35789,-1.032111 0.23635,-0.503254 0.58171,-0.939838 0.35111,-0.441706 0.80542,-0.77054 0.45429,-0.328833 1.01175,-0.519109 0.55745,-0.190283 1.2122,-0.19066 0.73516,-4.3e-4 1.29755,0.276467 0.56812,0.276882 0.95213,0.733586 0.38405,0.451548 0.57831,1.03157 0.20003,0.579996 0.19898,1.185789 -0.001,0.518521 -0.12245,1.052521 -0.12155,0.533992 -0.36364,1.037231 -0.23635,0.498126 -0.58746,0.939848 -0.34537,0.436585 -0.79966,0.76542 -0.45431,0.328827 -1.01177,0.519109 -0.55744,0.190273 -1.21218,0.190658 -0.73517,4.3e-4 -1.30329,-0.276471 -0.5624,-0.276903 -0.94642,-0.728448 -0.37828,-0.456681 -0.57829,-1.036694 -0.19428,-0.580015 -0.19323,-1.185816 z m 1.37354,-0.48852 q -6.1e-4,0.349096 0.0562,0.708438 0.0625,0.35934 0.18834,0.692971 0.12575,0.333624 0.30907,0.626142 0.18903,0.287382 0.44137,0.502847 0.25809,0.215472 0.57376,0.338513 0.32142,0.123056 0.70623,0.122827 0.41929,-2.45e-4 0.73544,-0.159569 0.32193,-0.164476 0.55212,-0.431563 0.23594,-0.267097 0.38587,-0.611156 0.15572,-0.344061 0.24819,-0.708603 0.0926,-0.369702 0.1276,-0.729094 0.0408,-0.359393 0.0413,-0.662281 6.2e-4,-0.354239 -0.0619,-0.708437 -0.0569,-0.359342 -0.18261,-0.687838 -0.12574,-0.333623 -0.31481,-0.621005 -0.18329,-0.292533 -0.44137,-0.502864 -0.25234,-0.215478 -0.57376,-0.338491 -0.31568,-0.123067 -0.70049,-0.12284 -0.41929,2.45e-4 -0.74119,0.15958 -0.31617,0.159345 -0.55212,0.426447 -0.23019,0.26709 -0.38585,0.611143 -0.14989,0.344067 -0.24246,0.708609 -0.0925,0.364567 -0.13328,0.729087 -0.0351,0.359384 -0.0356,0.657153 z" />
        <path
           inkscape:connector-curvature="0"
           id="path6106"
           style="font-style:normal;font-variant:normal;font-weight:normal;font-stretch:normal;font-size:14.45115471px;font-family:Gabriola;-inkscape-font-specification:'Gabriola, Normal';font-variant-ligatures:normal;font-variant-caps:normal;font-variant-numeric:normal;font-feature-settings:normal;text-align:start;writing-mode:lr-tb;text-anchor:start;stroke-width:1.8244046"
           d="m 155.79345,56.382089 q 3.6e-4,-0.210477 -0.0339,-0.354215 -0.0342,-0.14375 -0.10868,-0.22583 -0.0687,-0.08727 -0.17783,-0.123149 -0.10901,-0.03586 -0.25841,-0.03576 -0.20676,1.14e-4 -0.49401,0.05162 -0.28727,0.05154 -0.65501,0.139061 l -0.0855,-0.369584 q 0.40802,-0.128581 0.78152,-0.231489 0.37925,-0.108044 0.69528,-0.185222 0.31602,-0.07717 0.55731,-0.118482 0.24131,-0.04118 0.37915,-0.04126 0.33312,-2e-4 0.51661,0.179376 0.18923,0.174447 0.18849,0.605683 -9e-5,0.05136 -0.0118,0.241299 -0.0117,0.184819 -0.0353,0.472343 -0.0177,0.287498 -0.047,0.662286 -0.0294,0.36966 -0.0702,0.79065 -0.0353,0.421004 -0.082,0.872806 -0.0467,0.446675 -0.0993,0.893343 l 0.0344,0.0058 q 0.4388,-1.324783 0.94006,-2.233773 0.50125,-0.91411 1.01914,-1.479138 0.5179,-0.570153 1.02951,-0.822014 0.51161,-0.251861 0.97684,-0.252135 0.32162,-1.86e-4 0.62009,0.107462 0.29847,0.107649 0.5278,0.343649 0.23508,0.236033 0.37228,0.610716 0.13725,0.369558 0.13633,0.89835 -2.6e-4,0.154003 -0.0236,0.415858 -0.0177,0.256693 -0.0469,0.575019 -0.0292,0.31831 -0.0701,0.677711 -0.0351,0.354249 -0.0644,0.698234 -0.0292,0.343984 -0.0528,0.657165 -0.0178,0.308037 -0.0182,0.539066 -7e-4,0.40043 0.0333,0.651975 0.0397,0.251534 0.12564,0.400354 0.0858,0.143718 0.22938,0.200091 0.14349,0.05123 0.35027,0.05117 0.29866,-1.72e-4 0.62041,-0.07219 0.32177,-0.07715 0.64938,-0.210864 l 0.1086,0.266897 q -0.20702,0.14899 -0.52315,0.303203 -0.31617,0.154196 -0.66675,0.282743 -0.34481,0.128537 -0.68957,0.205764 -0.34476,0.08245 -0.60895,0.08252 -0.31015,1.83e-4 -0.48794,-0.148595 -0.17779,-0.148779 -0.26924,-0.405418 -0.0857,-0.256649 -0.11389,-0.600593 -0.0223,-0.343947 -0.0216,-0.739266 8.9e-4,-0.482575 0.0363,-0.990844 0.0412,-0.513405 0.0878,-0.975493 0.0467,-0.462072 0.0819,-0.836861 0.0409,-0.379934 0.0413,-0.605828 0.001,-0.600637 -0.25119,-0.882858 -0.25221,-0.287359 -0.67149,-0.287115 -0.33312,1.98e-4 -0.70115,0.251975 -0.36801,0.25178 -0.73636,0.693511 -0.36259,0.43659 -0.7025,1.037439 -0.33415,0.59572 -0.6053,1.294083 -0.27113,0.693229 -0.4505,1.453139 -0.17938,0.759919 -0.22663,1.519752 l -1.20062,0.134135 -0.092,-0.0058 q 0.0468,-0.487747 0.0879,-1.062765 0.0412,-0.57501 0.0768,-1.165423 0.0355,-0.59554 0.0595,-1.175688 0.0297,-0.585269 0.0478,-1.088405 0.0238,-0.508257 0.0303,-0.908697 0.0121,-0.400453 0.0126,-0.631467 z" />
        <path
           d="m 56.850385,32.119409 q 1.55e-4,-0.26333 -0.03984,-0.443173 -0.03999,-0.179862 -0.126785,-0.282589 -0.08013,-0.109216 -0.207054,-0.154158 -0.126945,-0.04492 -0.300669,-0.04487 -0.240556,4.3e-5 -0.574697,0.06434 -0.334143,0.06434 -0.761862,0.173664 l -0.09996,-0.462429 q 0.474524,-0.160672 0.908935,-0.289241 0.441099,-0.134991 0.808672,-0.231396 0.367573,-0.0964 0.64825,-0.147966 0.280679,-0.0514 0.44105,-0.05144 0.38756,-8.8e-5 0.601256,0.224668 0.220381,0.218344 0.220064,0.757875 -3.8e-5,0.06426 -0.01363,0.301875 -0.01358,0.231224 -0.04045,0.59093 -0.02026,0.359681 -0.05395,0.828569 -0.03368,0.462472 -0.08077,0.989151 -0.04041,0.526704 -0.09419,1.091933 -0.05379,0.558813 -0.11426,1.117622 l 0.0401,0.0068 q 0.508813,-1.657237 1.090824,-2.794231 0.582015,-1.143411 1.183821,-1.850066 0.601808,-0.713073 1.1967,-1.02793 0.594892,-0.314858 1.136142,-0.314976 0.374198,-7.6e-5 0.721589,0.134747 0.34739,0.134824 0.614499,0.430196 0.273792,0.295416 0.433887,0.764259 0.160091,0.462409 0.159702,1.123986 -1.14e-4,0.192679 -0.02703,0.520267 -0.02024,0.321148 -0.05389,0.719394 -0.03364,0.398226 -0.08069,0.847848 -0.04036,0.443191 -0.07402,0.873535 -0.03366,0.430344 -0.06062,0.822159 -0.02026,0.385384 -0.02043,0.674416 -2.95e-4,0.500988 0.03961,0.815709 0.0466,0.314715 0.146714,0.500953 0.100125,0.179851 0.267138,0.250442 0.167011,0.06421 0.407571,0.06421 0.347469,-7.5e-5 0.721718,-0.09005 0.374255,-0.0964 0.755233,-0.263499 l 0.126756,0.333965 q -0.240665,0.186306 -0.608293,0.379095 -0.367631,0.192759 -0.775333,0.353414 -0.40102,0.16066 -0.802002,0.257103 -0.400987,0.102946 -0.708363,0.103007 -0.360835,7.4e-5 -0.56787,-0.186153 -0.207037,-0.186207 -0.313759,-0.507347 -0.100035,-0.321136 -0.133196,-0.751463 -0.02647,-0.430323 -0.02618,-0.924905 2.98e-4,-0.603757 0.04083,-1.239637 0.04716,-0.6423 0.100946,-1.2204 0.05381,-0.57808 0.09416,-1.046964 0.04706,-0.475314 0.04723,-0.757931 4.52e-4,-0.751466 -0.293362,-1.104676 -0.293801,-0.359635 -0.781596,-0.359532 -0.387561,8.7e-5 -0.815401,0.314904 -0.427839,0.314826 -0.855817,0.867301 -0.421294,0.546042 -0.81598,1.297612 -0.388001,0.745149 -0.702574,1.618738 -0.314568,0.867182 -0.522272,1.817818 -0.207703,0.950645 -0.26172,1.90126 l -1.396657,0.167239 -0.106907,-0.0077 q 0.05382,-0.610198 0.101009,-1.329586 0.04721,-0.719387 0.08774,-1.458027 0.04053,-0.745074 0.06768,-1.47089 0.03384,-0.732219 0.05427,-1.361675 0.0271,-0.635878 0.03408,-1.136871 0.01375,-0.501008 0.01392,-0.790032 z"
           style="font-style:normal;font-variant:normal;font-weight:normal;font-stretch:normal;font-size:14.45115471px;font-family:Gabriola;-inkscape-font-specification:'Gabriola, Normal';font-variant-ligatures:normal;font-variant-caps:normal;font-variant-numeric:normal;font-feature-settings:normal;text-align:start;writing-mode:lr-tb;text-anchor:start;stroke-width:2.20108867"
           id="path6109"
           inkscape:connector-curvature="0" />
        <path
           d="m 70.627994,22.263604 q -0.134288,1.091937 -0.268603,2.241674 -0.127631,1.143336 -0.248607,2.318754 -0.114293,1.169017 -0.215211,2.350863 -0.100918,1.181857 -0.175096,2.331584 -0.07417,1.1433 -0.114923,2.248069 -0.04075,1.104759 -0.04134,2.119604 -3.83e-4,0.635866 0.01283,1.091884 0.01983,0.45604 0.05299,0.770757 0.03994,0.31472 0.09993,0.507398 0.06673,0.192662 0.160202,0.295413 0.09348,0.102662 0.220429,0.141227 0.126945,0.03203 0.300675,0.03198 0.320737,-7.2e-5 0.688303,-0.09012 0.37426,-0.0964 0.755242,-0.263499 l 0.126752,0.333965 q -0.240669,0.186306 -0.608297,0.379085 -0.360946,0.192764 -0.761969,0.353423 -0.401022,0.160649 -0.788638,0.257091 -0.380934,0.102939 -0.661587,0.103007 -0.360832,7.6e-5 -0.574556,-0.17975 -0.207041,-0.173444 -0.320402,-0.571568 -0.106678,-0.398217 -0.139716,-1.034084 -0.02635,-0.642288 -0.02581,-1.560771 1.97e-4,-0.333991 0.0206,-0.950607 0.0204,-0.62304 0.05429,-1.445187 0.04057,-0.822162 0.08793,-1.798454 0.04736,-0.976302 0.101409,-2.016846 0.05406,-1.04695 0.114843,-2.106756 0.06076,-1.066241 0.121495,-2.055377 0.06072,-0.99558 0.114704,-1.875534 0.05396,-0.879973 0.101144,-1.554392 0.0067,-0.154198 0.09369,-0.263359 0.08693,-0.115624 0.220616,-0.179913 0.140365,-0.07062 0.307432,-0.102742 0.173754,-0.03207 0.347494,-0.03212 0.400927,-8e-5 0.841825,0.205357 z"
           style="font-style:normal;font-variant:normal;font-weight:normal;font-stretch:normal;font-size:14.45115471px;font-family:Gabriola;-inkscape-font-specification:'Gabriola, Normal';font-variant-ligatures:normal;font-variant-caps:normal;font-variant-numeric:normal;font-feature-settings:normal;text-align:start;writing-mode:lr-tb;text-anchor:start;stroke-width:2.20108867"
           id="path6111"
           inkscape:connector-curvature="0" />
        <path
           d="m 74.700962,27.561713 q -0.233876,4.8e-5 -0.414244,-0.08989 -0.180354,-0.09623 -0.307229,-0.244014 -0.126862,-0.154166 -0.193585,-0.346789 -0.06673,-0.199107 -0.06657,-0.404646 1.74e-4,-0.289023 0.100523,-0.507438 0.100362,-0.224812 0.26082,-0.372586 0.160472,-0.15423 0.354284,-0.224876 0.193825,-0.07701 0.380931,-0.07707 0.227188,-5.2e-5 0.407552,0.08345 0.180377,0.07699 0.307258,0.218311 0.13355,0.141241 0.20026,0.327536 0.07335,0.179855 0.07328,0.391781 -1.26e-4,0.224815 -0.08052,0.44963 -0.08035,0.218408 -0.227428,0.39827 -0.140428,0.179895 -0.347644,0.289116 -0.20052,0.109274 -0.447754,0.109324 z m 0.579636,2.903044 q -0.114024,0.732255 -0.194659,1.470909 -0.08065,0.732246 -0.134465,1.419502 -0.04722,0.68728 -0.0743,1.303891 -0.02046,0.61019 -0.02066,1.104761 -5.82e-4,0.667984 0.01931,1.149707 0.01982,0.475298 0.06636,0.802855 0.04663,0.327577 0.113293,0.526674 0.07343,0.192666 0.173555,0.301837 0.106916,0.102651 0.240479,0.134844 0.140303,0.03201 0.314034,0.03197 0.320746,-6.2e-5 0.688311,-0.09012 0.374258,-0.0964 0.755232,-0.263499 l 0.126752,0.333964 q -0.24066,0.186317 -0.608286,0.379096 -0.360956,0.192754 -0.761969,0.353413 -0.401023,0.160659 -0.788639,0.2571 -0.380951,0.10294 -0.661596,0.102998 -0.187098,3.8e-5 -0.340758,-0.03194 -0.153684,-0.02565 -0.280566,-0.141207 -0.120221,-0.115579 -0.220313,-0.340371 -0.09341,-0.224796 -0.160018,-0.610147 -0.05989,-0.385376 -0.09298,-0.963432 -0.03305,-0.578066 -0.0326,-1.400214 2.85e-4,-0.481721 0.0069,-1.085483 0.01377,-0.610185 0.0342,-1.303877 0.02044,-0.700099 0.05433,-1.47088 0.03389,-0.777187 0.08782,-1.59934 0.01353,-0.179868 0.100393,-0.289047 0.08697,-0.115616 0.213927,-0.173541 0.126991,-0.06426 0.267342,-0.08362 0.147017,-0.02571 0.26729,-0.02571 0.447706,-8.9e-5 0.84183,0.198932 z"
           style="font-style:normal;font-variant:normal;font-weight:normal;font-stretch:normal;font-size:14.45115471px;font-family:Gabriola;-inkscape-font-specification:'Gabriola, Normal';font-variant-ligatures:normal;font-variant-caps:normal;font-variant-numeric:normal;font-feature-settings:normal;text-align:start;writing-mode:lr-tb;text-anchor:start;stroke-width:2.20108867"
           id="path6113"
           inkscape:connector-curvature="0" />
        <path
           d="m 79.141883,32.114651 q 1.46e-4,-0.26334 -0.03976,-0.443174 -0.04004,-0.179862 -0.126791,-0.282589 -0.0801,-0.109216 -0.207044,-0.154158 -0.126927,-0.04492 -0.300666,-0.04487 -0.240555,5.3e-5 -0.574706,0.06434 -0.334135,0.06434 -0.761852,0.173654 l -0.1,-0.462419 q 0.474508,-0.160672 0.908935,-0.289241 0.441086,-0.135001 0.808665,-0.231396 0.367571,-0.0964 0.648246,-0.147965 0.280676,-0.0514 0.441058,-0.05144 0.38756,-8.8e-5 0.601247,0.224668 0.22038,0.218334 0.220069,0.757865 -4e-5,0.06426 -0.01362,0.301885 -0.01357,0.231223 -0.04036,0.590929 -0.02027,0.359682 -0.05393,0.82856 -0.03366,0.462472 -0.08075,0.989162 -0.04049,0.526703 -0.09414,1.091922 -0.05382,0.558823 -0.114219,1.117622 l 0.04009,0.0068 q 0.508822,-1.657237 1.090824,-2.794241 0.582016,-1.1434 1.183827,-1.850056 0.601798,-0.713082 1.196695,-1.02794 0.594889,-0.314858 1.136152,-0.314965 0.374194,-8.7e-5 0.72158,0.134736 0.347385,0.134834 0.614494,0.430206 0.273796,0.295416 0.433894,0.76425 0.160085,0.462418 0.1597,1.123986 -1.11e-4,0.192689 -0.027,0.520277 -0.02024,0.321148 -0.05385,0.719384 -0.03369,0.398226 -0.08073,0.847857 -0.04034,0.443191 -0.07406,0.873535 -0.03363,0.430335 -0.06063,0.82215 -0.02029,0.385393 -0.02034,0.674415 -2.99e-4,0.500988 0.03965,0.815709 0.04655,0.314725 0.146725,0.500963 0.100152,0.179841 0.267133,0.250442 0.167012,0.06421 0.407567,0.06421 0.34747,-7.4e-5 0.721723,-0.09005 0.37425,-0.0964 0.755231,-0.263499 l 0.126762,0.333965 q -0.240678,0.186306 -0.608295,0.379085 -0.367626,0.19276 -0.775336,0.353424 -0.401022,0.16065 -0.801996,0.257093 -0.400997,0.102947 -0.708367,0.103017 -0.360836,7.5e-5 -0.567873,-0.186152 -0.207037,-0.186218 -0.313763,-0.507347 -0.10002,-0.321136 -0.133186,-0.751464 -0.02646,-0.430333 -0.02626,-0.924905 4.11e-4,-0.603757 0.04085,-1.239636 0.04718,-0.642311 0.100913,-1.220411 0.05383,-0.57808 0.09414,-1.046953 0.04715,-0.475315 0.04727,-0.757931 7.92e-4,-0.751477 -0.293371,-1.104676 -0.293802,-0.359635 -0.781591,-0.359533 -0.387561,7.8e-5 -0.815398,0.314904 -0.427845,0.314817 -0.855818,0.867291 -0.421306,0.546042 -0.81599,1.297622 -0.387992,0.745149 -0.702569,1.618728 -0.314564,0.867183 -0.522275,1.817828 -0.207702,0.950645 -0.26172,1.90126 l -1.396658,0.16724 -0.106927,-0.0077 q 0.05377,-0.610189 0.10096,-1.329577 0.04716,-0.719387 0.08772,-1.458037 0.04057,-0.745074 0.06764,-1.47088 0.03386,-0.732219 0.05425,-1.361684 0.02709,-0.635879 0.03408,-1.136862 0.01368,-0.501008 0.0139,-0.790032 z"
           style="font-style:normal;font-variant:normal;font-weight:normal;font-stretch:normal;font-size:14.45115471px;font-family:Gabriola;-inkscape-font-specification:'Gabriola, Normal';font-variant-ligatures:normal;font-variant-caps:normal;font-variant-numeric:normal;font-feature-settings:normal;text-align:start;writing-mode:lr-tb;text-anchor:start;stroke-width:2.20108867"
           id="path6115"
           inkscape:connector-curvature="0" />
        <path
           d="m 96.418602,37.506254 q 0.04008,0.01931 0.100132,0.05782 0.06685,0.03198 0.120232,0.07695 0.05337,0.03853 0.09349,0.08996 0.04014,0.04498 0.04011,0.0899 -2.8e-5,0.02568 -0.02013,0.05138 -0.374511,0.501065 -0.80907,0.873698 -0.427876,0.366191 -0.895755,0.616796 -0.461196,0.244172 -0.942393,0.359881 -0.481175,0.122075 -0.948927,0.122181 -0.801846,1.68e-4 -1.469876,-0.314422 -0.66803,-0.314588 -1.148807,-0.860439 -0.480793,-0.545849 -0.75433,-1.278007 -0.266841,-0.738599 -0.266354,-1.580004 6.31e-4,-0.68726 0.154508,-1.37454 0.160769,-0.687296 0.455147,-1.310389 0.301065,-0.623107 0.729032,-1.156295 0.427971,-0.539623 0.96946,-0.931543 0.548156,-0.398342 1.196451,-0.623276 0.654966,-0.22496 1.403372,-0.225114 0.494468,-1.08e-4 0.942103,0.128324 0.447618,0.128431 0.781589,0.372384 0.340647,0.237579 0.540888,0.590788 0.200267,0.353228 0.200006,0.802841 -5.45e-4,0.655133 -0.448385,1.143377 -0.441299,0.48825 -1.223304,0.828838 -0.781996,0.340579 -1.844585,0.552753 -1.055888,0.205763 -2.285463,0.308793 l -6.5e-5,0.109234 q -9.85e-4,0.822138 0.212941,1.502932 0.220118,0.680788 0.600693,1.168862 0.380623,0.481648 0.894976,0.751298 0.51437,0.269651 1.109074,0.269527 0.601391,-1.28e-4 1.229667,-0.282876 0.634961,-0.28916 1.28351,-0.931619 z m -1.253205,-5.157371 q 1.79e-4,-0.295459 -0.106551,-0.552362 -0.100078,-0.25689 -0.287052,-0.443124 -0.180377,-0.192646 -0.434164,-0.301787 -0.253848,-0.109179 -0.547869,-0.10911 -0.434322,8.7e-5 -0.788556,0.147808 -0.354251,0.14772 -0.635073,0.40478 -0.280782,0.250566 -0.494817,0.591025 -0.214021,0.334041 -0.367914,0.713032 -0.147204,0.378986 -0.241018,0.777233 -0.09384,0.398237 -0.134173,0.777202 0.948918,-0.06446 1.697388,-0.218747 0.755171,-0.160738 1.269859,-0.404917 0.521346,-0.2506 0.795499,-0.591079 0.274159,-0.346905 0.274424,-0.790092 z"
           style="font-style:normal;font-variant:normal;font-weight:normal;font-stretch:normal;font-size:14.45115471px;font-family:Gabriola;-inkscape-font-specification:'Gabriola, Normal';font-variant-ligatures:normal;font-variant-caps:normal;font-variant-numeric:normal;font-feature-settings:normal;text-align:start;writing-mode:lr-tb;text-anchor:start;stroke-width:2.20108867"
           id="path6117"
           inkscape:connector-curvature="0" />
      </g>
    </g>
    <flowRoot
       xml:space="preserve"
       id="flowRoot6052"
       style="fill:black;fill-opacity:1;stroke:none;font-family:sans-serif;font-style:normal;font-weight:normal;font-size:40px;line-height:1.25;letter-spacing:0px;word-spacing:0px"><flowRegion
         id="flowRegion6054"><rect
           id="rect6056"
           width="178"
           height="91"
           x="37"
           y="591.51971" /></flowRegion><flowPara
         id="flowPara6058"></flowPara></flowRoot>  </g>
</svg>
