<?xml version="1.0" encoding="UTF-8" standalone="no"?>
<!-- Created with Inkscape (http://www.inkscape.org/) -->

<svg
   xmlns:dc="http://purl.org/dc/elements/1.1/"
   xmlns:cc="http://creativecommons.org/ns#"
   xmlns:rdf="http://www.w3.org/1999/02/22-rdf-syntax-ns#"
   xmlns:svg="http://www.w3.org/2000/svg"
   xmlns="http://www.w3.org/2000/svg"
   xmlns:sodipodi="http://sodipodi.sourceforge.net/DTD/sodipodi-0.dtd"
   xmlns:inkscape="http://www.inkscape.org/namespaces/inkscape"
   width="210mm"
   height="297mm"
   viewBox="0 0 210 297"
   version="1.1"
   id="svg4556"
   inkscape:version="0.92.1 r15371"
   sodipodi:docname="Logo.svg">
  <defs
     id="defs4550" />
  <sodipodi:namedview
     id="base"
     pagecolor="#ffffff"
     bordercolor="#666666"
     borderopacity="1.0"
     inkscape:pageopacity="0.0"
     inkscape:pageshadow="2"
     inkscape:zoom="1.4142136"
     inkscape:cx="263.83611"
     inkscape:cy="873.74332"
     inkscape:document-units="mm"
     inkscape:current-layer="layer1"
     showgrid="false"
     inkscape:window-width="1920"
     inkscape:window-height="1018"
     inkscape:window-x="-8"
     inkscape:window-y="-8"
     inkscape:window-maximized="1" />
  <metadata
     id="metadata4553">
    <rdf:RDF>
      <cc:Work
         rdf:about="">
        <dc:format>image/svg+xml</dc:format>
        <dc:type
           rdf:resource="http://purl.org/dc/dcmitype/StillImage" />
        <dc:title></dc:title>
      </cc:Work>
    </rdf:RDF>
  </metadata>
  <g
     inkscape:label="Layer 1"
     inkscape:groupmode="layer"
     id="layer1">
    <g
       id="g5140"
       transform="matrix(0.92875989,0,0,0.95967742,-75.234606,15.242842)" />
    <g
       id="g5281"
       transform="matrix(0.14582045,-0.05206236,0.0385338,0.12000276,104.76691,42.306613)"
       style="fill:#d40000" />
    <g
       id="g5399">
      <path
         d="m 130.75725,75.991984 c 0.004,-0.155301 0.0131,-0.36493 0.0195,-0.465843 l 0.0117,-0.18347 5.09443,-7.195907 c 2.80193,-3.957748 5.10465,-7.212701 5.11716,-7.23322 0.0201,-0.0329 -0.5677,-0.911261 -5.04509,-7.538485 l -5.06784,-7.501185 -6e-5,-0.184151 c -4e-5,-0.101301 -0.005,-0.320731 -0.0118,-0.487678 l -0.0117,-0.303538 h 9.57997 9.57998 l 0.0111,0.122478 c 0.006,0.06734 0.12378,1.751964 0.26148,3.743559 0.13769,1.991595 0.25535,3.676197 0.26147,3.743559 l 0.0111,0.122477 h -0.35155 c -0.19336,0 -0.35156,-0.0071 -0.35156,-0.0161 0,-0.0094 -0.0122,-0.140646 -0.0271,-0.292879 C 149.71973,51.10806 149.3945,49.860226 149,49.104724 c -0.39121,-0.749203 -0.90244,-1.287284 -1.61892,-1.703957 -0.76612,-0.445548 -1.61797,-0.668997 -2.88803,-0.75757 -0.39374,-0.0275 -2.01637,-0.01586 -2.95979,0.02104 -0.29598,0.01175 -1.72273,0.02762 -3.17056,0.03561 -1.44783,0.0082 -2.63242,0.01927 -2.63242,0.02515 0,0.0059 1.88485,2.808372 4.18855,6.227744 2.3037,3.419362 4.18855,6.227087 4.18855,6.239391 0,0.01657 -6.20363,8.929632 -9.05436,13.008788 l -0.25716,0.367985 5.61096,-0.0071 c 5.95132,-0.0082 5.70896,-0.0035 6.33746,-0.110115 0.89694,-0.152268 1.613,-0.477183 2.20163,-0.999011 0.37218,-0.329945 0.7965,-0.891095 1.06527,-1.408799 0.27769,-0.534873 0.4454,-0.946892 0.85928,-2.111017 0.1495,-0.420504 0.27716,-0.77125 0.28369,-0.779441 0.0105,-0.01316 0.62251,0.157781 0.64017,0.178746 0.004,0.0047 -0.0808,0.554193 -0.1881,1.221509 -0.5904,3.673365 -0.80533,5.280135 -0.95141,7.112563 -0.0205,0.257213 -0.0395,0.470285 -0.0422,0.473482 -0.003,0.0035 -3.92343,0.02938 -8.71275,0.05829 -4.78931,0.02879 -9.25745,0.05782 -9.92919,0.06452 l -1.22135,0.0121 z m -6.89833,-19.601552 c -0.11123,-0.03664 -0.19196,-0.08311 -0.1794,-0.103257 0.0126,-0.02015 0.1302,-0.02836 0.26141,-0.01824 0.23448,0.01808 0.24044,0.01669 0.34766,-0.08105 0.06,-0.05469 0.20784,-0.213785 0.32853,-0.353538 0.24187,-0.280059 0.45514,-0.446111 0.67279,-0.523818 0.15302,-0.05463 0.27262,-0.02524 0.26148,0.06427 -0.005,0.04346 -0.062,0.071 -0.27383,0.133185 l -0.26701,0.0784 0.28955,-0.03917 c 0.3581,-0.04845 0.3933,-0.04408 0.42436,0.05265 0.0337,0.105073 -0.10062,0.150993 -0.39607,0.135364 -0.12796,-0.0068 -0.32046,0.01454 -0.44505,0.04927 l -0.21957,0.0612 -0.1495,0.251476 c -0.13196,0.221988 -0.16729,0.257829 -0.3013,0.305674 -0.12332,0.04403 -0.18977,0.0417 -0.35405,-0.01242 z m 1.87459,-0.963996 c -0.0326,-0.03745 -0.32188,-0.695184 -0.51141,-1.163001 -0.11754,-0.290098 -0.12533,-0.300035 -0.19617,-0.250126 -0.11802,0.08316 -0.29444,0.137871 -0.32623,0.101182 -0.0161,-0.01857 -7e-5,-0.05333 0.0356,-0.07723 0.0357,-0.02391 0.11484,-0.08376 0.17589,-0.133024 l 0.11101,-0.08956 -0.1708,-0.53239 c -0.17789,-0.554525 -0.36794,-1.343676 -0.36732,-1.525094 2.1e-4,-0.0593 0.0296,-0.121026 0.0674,-0.141549 0.0751,-0.04082 0.0814,-0.01625 0.15516,0.611807 0.0495,0.42123 0.34337,1.505382 0.40236,1.484323 0.0233,-0.0083 0.13076,-0.135275 0.2387,-0.282091 l 0.19627,-0.266938 -0.12411,-0.387011 c -0.11958,-0.372916 -0.18084,-0.627269 -0.43983,-1.826028 -0.12347,-0.571494 -0.1175,-0.690594 0.0349,-0.696301 0.0872,-0.0033 0.11189,0.08205 0.13754,0.475063 0.037,0.567631 0.12661,1.077107 0.29735,1.691343 0.16521,0.594368 0.16647,0.597261 0.22153,0.507229 0.0434,-0.07099 0.0399,-0.173504 -0.0162,-0.474584 -0.12667,-0.680059 -0.125,-1.285885 0.005,-1.892088 0.0606,-0.281962 0.1247,-0.393049 0.22915,-0.39696 0.11607,-0.0043 0.1729,0.09056 0.22502,0.375768 0.0694,0.379556 0.0189,1.119034 -0.11766,1.723068 l -0.11746,0.519714 0.17537,0.397467 c 0.18834,0.426851 0.36983,0.690944 0.47221,0.687112 0.1839,-0.0069 0.25661,-0.372345 0.20221,-1.016377 -0.052,-0.615177 -0.3355,-2.263319 -0.45172,-2.625745 -0.0553,-0.172423 -0.0542,-0.201837 0.008,-0.224135 0.0555,-0.01981 0.12021,0.02836 0.2839,0.211338 0.23949,0.267697 0.39651,0.341532 0.62927,0.295884 0.092,-0.01805 0.15093,-0.01301 0.14618,0.01251 -0.1452,0.780458 -0.15772,1.33233 -0.0386,1.703238 0.0669,0.208196 0.0969,0.256606 0.178,0.286483 0.12196,0.04494 0.14514,0.03643 0.24484,-0.08998 0.0534,-0.06772 0.0707,-0.132635 0.0514,-0.192781 -0.0493,-0.153491 -0.27374,-0.184482 -0.26205,-0.03618 0.003,0.03918 0.0308,0.04802 0.0872,0.02787 0.0637,-0.02273 0.0851,-0.01208 0.0933,0.04632 0.008,0.0594 -0.0145,0.0848 -0.10513,0.117165 -0.0982,0.03507 -0.12197,0.02848 -0.15689,-0.0436 -0.0587,-0.121168 0.008,-0.274805 0.13946,-0.321785 0.15795,-0.05639 0.2174,-0.01632 0.28413,0.191487 0.0529,0.16482 0.05,0.202472 -0.0249,0.322599 -0.10587,0.169799 -0.28482,0.231166 -0.43372,0.148727 -0.27281,-0.151033 -0.45526,-0.877612 -0.40347,-1.606723 l 0.0279,-0.39231 -0.10273,-0.01799 c -0.0565,-0.0099 -0.17305,-0.04692 -0.259,-0.08228 -0.19681,-0.08096 -0.19496,-0.105118 -0.0523,0.683613 0.11756,0.650163 0.17567,1.028038 0.27517,1.789353 0.12322,0.942833 0.10681,1.125392 -0.10997,1.223486 -0.25922,0.117295 -0.58292,-0.202006 -0.81555,-0.80446 -0.18296,-0.473804 -0.19461,-0.489666 -0.25931,-0.352937 -0.039,0.08243 -0.0352,0.138745 0.0171,0.254633 0.037,0.08184 0.14828,0.334846 0.24739,0.562235 0.0991,0.227389 0.26657,0.564222 0.3721,0.748518 0.19228,0.335764 0.20778,0.421537 0.077,0.426433 -0.073,0.0027 -0.28956,-0.421436 -0.49932,-0.977901 -0.0812,-0.215508 -0.18585,-0.477963 -0.23247,-0.583239 l -0.0848,-0.19141 -0.13819,0.19494 c -0.076,0.107217 -0.18012,0.233002 -0.23136,0.279523 l -0.0932,0.08458 0.11311,0.267498 c 0.10265,0.242775 0.17061,0.370486 0.50445,0.947981 0.0576,0.09964 0.10147,0.207408 0.0975,0.239478 -0.009,0.06977 -0.0776,0.10102 -0.11868,0.05385 z m 0.18715,-3.234334 c 0.14251,-0.676068 0.14853,-1.146026 0.0149,-1.163439 -0.0713,-0.0093 -0.1786,0.125809 -0.21495,0.270701 -0.0452,0.18015 -0.0445,0.389678 0.003,0.759767 0.0679,0.53358 0.10737,0.560165 0.19743,0.132971 z m -1.58742,3.535632 c -0.32589,-0.0515 -0.48356,-0.280755 -0.95045,-1.381971 -0.10752,-0.253587 -0.20466,-0.464596 -0.21587,-0.468911 -0.0112,-0.0043 -0.0435,0.03214 -0.0717,0.08101 -0.0394,0.06825 -0.034,0.164185 0.0234,0.413766 0.0411,0.178703 0.10193,0.498336 0.13522,0.710297 0.10617,0.675958 0.0926,0.887103 -0.0606,0.941781 -0.10569,0.03773 -0.12725,-0.05106 -0.12873,-0.530146 -0.001,-0.411083 -0.0657,-1.072231 -0.1095,-1.123838 -0.0326,-0.03834 -0.14971,0.485558 -0.20331,0.909161 -0.0473,0.37381 -0.0671,0.430967 -0.16129,0.46458 -0.20313,0.07252 -0.47773,-0.248223 -0.76565,-0.894297 -0.1907,-0.427931 -0.35092,-1.074376 -0.38283,-1.54462 -0.0353,-0.51981 0.16769,-1.427754 0.33797,-1.5119 0.12462,-0.06159 0.21032,0.03197 0.25715,0.280717 0.0875,0.465022 -0.0105,1.056265 -0.2635,1.589166 l -0.13071,0.275312 0.12651,0.373548 c 0.13123,0.387494 0.34465,0.750073 0.46834,0.795655 0.15005,0.0553 0.29821,-0.139253 0.56948,-0.747757 0.0803,-0.180145 0.12943,-0.347574 0.11599,-0.395323 -0.0128,-0.04556 -0.0252,-0.106043 -0.0275,-0.134416 -0.0204,-0.251127 -0.20029,-1.081948 -0.40481,-1.869827 -0.0944,-0.363718 -0.16021,-0.679679 -0.14621,-0.702135 0.0403,-0.06463 0.18891,0.306368 0.46177,1.152805 0.20194,0.626399 0.41515,1.198835 0.44198,1.186601 0.002,-0.0012 0.0931,-0.08126 0.20136,-0.178063 0.10825,-0.0968 0.22009,-0.184303 0.24852,-0.194455 0.0284,-0.01015 0.0483,-0.06103 0.0441,-0.113066 -0.0537,-0.667859 0.30557,-1.851106 0.56508,-1.860821 0.10926,-0.0041 0.1057,0.113743 -0.0106,0.350153 -0.29976,0.609358 -0.39299,0.968381 -0.39011,1.502346 0.002,0.296641 0.0254,0.423619 0.16379,0.873256 0.1617,0.525479 0.16213,0.52633 0.33882,0.675322 0.22694,0.191359 0.30253,0.178854 0.43627,-0.07218 0.0801,-0.150279 0.11214,-0.183838 0.15159,-0.158565 0.1253,0.08027 -0.0678,0.381268 -0.29707,0.463134 -0.15752,0.05624 -0.28899,9.18e-4 -0.45502,-0.191452 -0.10809,-0.125231 -0.15951,-0.2456 -0.32469,-0.760004 -0.21895,-0.68184 -0.19928,-0.661813 -0.44733,-0.455606 -0.23578,0.196003 -0.23586,0.200853 -0.0111,0.70933 0.31862,0.720853 0.51838,1.106799 0.63427,1.225436 0.0983,0.100584 0.29677,0.183587 0.37352,0.156184 0.0681,-0.02432 0.11808,-0.159496 0.0906,-0.245124 -0.0321,-0.10008 -0.11077,-0.12961 -0.15523,-0.0583 -0.0189,0.03035 -0.0121,0.04765 0.0204,0.05188 0.0268,0.0035 0.058,0.03504 0.0693,0.0701 0.0163,0.0508 -0.002,0.06939 -0.0889,0.09157 -0.0926,0.02359 -0.11664,0.01179 -0.15724,-0.07736 -0.0855,-0.18779 0.17399,-0.362804 0.38023,-0.256411 0.14797,0.07633 0.1896,0.233322 0.10536,0.397278 -0.0799,0.155595 -0.21063,0.216257 -0.40107,0.186159 z m -1.28585,-2.253165 c -0.0577,-0.135108 -0.1443,-0.359017 -0.19236,-0.497575 l -0.0874,-0.251926 0.0397,0.233545 c 0.0586,0.344525 0.19639,0.941765 0.21916,0.950156 0.0109,0.004 0.0436,-0.03678 0.0728,-0.09063 0.0467,-0.08623 0.0405,-0.127241 -0.0519,-0.343567 z m -1.30811,-0.101354 c 0.15352,-0.341768 0.23879,-0.786946 0.18464,-0.963941 -0.0407,-0.132937 -0.0526,-0.142771 -0.13717,-0.112596 -0.13815,0.04932 -0.22766,0.415034 -0.21462,0.876877 0.0105,0.372387 0.0188,0.449413 0.0472,0.439264 0.008,-0.0029 0.062,-0.1107 0.11993,-0.239604 z m -0.17958,1.840233 c -0.14713,-0.174571 -0.31384,-0.593382 -0.56278,-1.413795 -0.13589,-0.44784 -0.26969,-0.843575 -0.29733,-0.879415 -0.044,-0.05699 -0.0579,-0.03067 -0.11093,0.209949 -0.0702,0.318508 -0.11502,0.399645 -0.1817,0.329059 -0.0939,-0.0994 0.16579,-0.822005 0.46954,-1.30651 0.11083,-0.17678 0.17891,-0.249678 0.26031,-0.278742 0.14199,-0.05069 0.16646,0.01857 0.0505,0.142957 -0.22308,0.239314 -0.39469,0.515379 -0.38699,0.622538 0.0173,0.240282 0.52435,1.72267 0.71991,2.104511 0.24901,0.486233 0.25077,0.491429 0.17974,0.530775 -0.0416,0.02303 -0.0853,0.0039 -0.14028,-0.06133 z m 2.26308,-3.928704 c -0.22193,0.02018 -0.98907,-0.133802 -1.01128,-0.202986 -0.031,-0.0964 0.14155,-0.09917 0.4254,-0.0068 0.35376,0.115073 0.35514,0.08176 0.0123,-0.298439 -0.30077,-0.333592 -0.62821,-0.567594 -0.9595,-0.685703 -0.43134,-0.153776 -0.74008,-0.136448 -0.85508,0.04799 -0.12287,0.197063 -0.0141,0.448315 0.16623,0.383935 0.0845,-0.03016 0.0948,-0.05742 0.0896,-0.235477 -0.005,-0.157011 0.0101,-0.207092 0.0668,-0.227335 0.04,-0.01428 0.077,-0.01252 0.0823,0.0039 0.005,0.01643 0.11952,0.12906 0.25387,0.250291 0.23596,0.212915 0.24262,0.223384 0.1956,0.307487 -0.13252,0.237027 -0.47918,0.390488 -0.75989,0.336395 -0.34228,-0.06596 -0.55698,-0.418328 -0.46182,-0.757926 0.11436,-0.408104 0.67375,-0.668674 1.14742,-0.534482 0.22475,0.06367 0.64174,0.335603 0.89208,0.581744 0.19173,0.188515 0.55856,0.681127 0.59749,0.802362 0.0188,0.05868 0.0451,0.06849 0.1158,0.04326 0.10911,-0.03896 0.45623,-0.271065 0.63337,-0.423516 0.0996,-0.08567 0.13941,-0.104343 0.18608,-0.08715 0.10476,0.03861 0.0243,0.152767 -0.21187,0.300566 -0.32013,0.200347 -0.33293,0.221007 -0.0634,0.102337 0.2617,-0.115241 0.39883,-0.119167 0.34358,-0.0098 -0.0401,0.07938 -0.63238,0.286435 -0.88503,0.3094 z m 0.27062,-0.965261 c -0.0899,0.01465 -0.2808,0.04193 -0.4242,0.06064 -0.24817,0.03237 -0.26082,0.02964 -0.26276,-0.0567 -0.003,-0.134937 0.0993,-0.367651 0.2105,-0.478778 0.0539,-0.05389 0.18772,-0.161108 0.29729,-0.238269 0.10957,-0.07716 0.26653,-0.21203 0.34879,-0.299709 0.23282,-0.248146 0.44392,-0.274334 0.3589,-0.04452 -0.0499,0.135021 -0.21959,0.26569 -0.51899,0.399749 -0.14202,0.0636 -0.31713,0.168516 -0.38912,0.233156 -0.12373,0.111097 -0.23112,0.328964 -0.20413,0.414112 0.0219,0.06926 0.46157,-0.0023 0.71981,-0.117231 0.56227,-0.250128 0.77138,-0.588943 0.75768,-1.227679 -0.003,-0.132791 -0.0149,-0.245008 -0.0267,-0.249372 -0.0118,-0.0044 -0.0837,0.03043 -0.15974,0.07738 -0.076,0.04692 -0.32398,0.169752 -0.55102,0.272958 -0.6483,0.294699 -0.88373,0.51791 -0.98566,0.934493 -0.0385,0.157337 -0.0524,0.17898 -0.0737,0.114794 -0.0516,-0.155422 -0.0206,-0.365185 0.0754,-0.510041 0.0793,-0.119628 0.16391,-0.185317 0.45227,-0.350966 0.70463,-0.404779 1.08425,-0.692483 1.26103,-0.955708 0.0862,-0.128418 0.14078,-0.139424 0.10943,-0.02208 -0.0111,0.04149 -0.0298,0.304892 -0.0417,0.585328 -0.0331,0.785394 -0.0933,1.010009 -0.32765,1.223989 -0.0992,0.09056 -0.37363,0.193407 -0.62567,0.234473 z m -0.0632,6.120585 c -0.21656,-0.01638 -0.456,-0.163078 -0.33606,-0.205898 0.0224,-0.008 0.11597,-0.0016 0.20806,0.01419 0.24602,0.04217 0.3403,-0.0074 0.60121,-0.315996 0.28374,-0.335614 0.39445,-0.436252 0.62064,-0.564178 0.23479,-0.132791 0.39424,-0.142429 0.4316,-0.02608 0.0266,0.08295 0.0257,0.08357 -0.22029,0.150986 l -0.24704,0.06771 0.24691,-0.03463 c 0.26949,-0.03779 0.43541,-0.0016 0.4237,0.09252 -0.0134,0.107969 -0.11282,0.141123 -0.40631,0.135556 -0.15948,-0.003 -0.36822,0.01153 -0.46388,0.03235 -0.16843,0.03666 -0.17859,0.04513 -0.32227,0.268676 -0.2263,0.352094 -0.29709,0.402887 -0.53627,0.384795 z m 1.66524,-1.011794 c -0.0217,-0.02303 -0.0665,-0.125859 -0.0995,-0.228524 -0.033,-0.102664 -0.12153,-0.320573 -0.19681,-0.484241 -0.0753,-0.163669 -0.17823,-0.389426 -0.22877,-0.501684 l -0.0919,-0.204103 -0.18412,0.08638 c -0.16376,0.07684 -0.18627,0.07971 -0.20354,0.02591 -0.0141,-0.04388 0.0285,-0.09484 0.15539,-0.185729 l 0.1748,-0.125259 -0.2162,-0.67341 c -0.28047,-0.873574 -0.38106,-1.367325 -0.30387,-1.491486 0.049,-0.0788 0.0637,-0.08643 0.11007,-0.057 0.0294,0.01869 0.056,0.07292 0.0589,0.120522 0.029,0.464071 0.13495,1.025415 0.27701,1.468384 0.18375,0.572721 0.162,0.563476 0.42551,0.181734 l 0.14162,-0.205163 -0.1452,-0.493967 c -0.17053,-0.580173 -0.51781,-2.150895 -0.50287,-2.274414 0.0141,-0.116449 0.0962,-0.169685 0.19595,-0.127041 0.0774,0.03308 0.0846,0.06351 0.11069,0.46462 0.0344,0.529037 0.13978,1.138516 0.30719,1.776107 0.11683,0.444972 0.13128,0.479456 0.17365,0.414375 0.0318,-0.04892 0.0246,-0.200376 -0.0232,-0.487195 -0.12453,-0.746826 -0.11624,-1.346594 0.0263,-1.901391 0.0666,-0.25915 0.097,-0.319608 0.18043,-0.358511 0.15086,-0.07035 0.22709,0.01014 0.28644,0.302507 0.0929,0.457404 0.0289,1.311822 -0.14703,1.962932 -0.0944,0.349579 -0.0914,0.363972 0.20314,0.967657 0.16461,0.337355 0.27204,0.451431 0.38663,0.410521 0.21661,-0.07734 0.21504,-0.669463 -0.005,-2.033047 -0.15888,-0.982777 -0.27822,-1.58596 -0.32322,-1.633596 -0.0191,-0.02018 -0.0193,-0.07157 -6.2e-4,-0.114209 0.0301,-0.06866 0.042,-0.07429 0.10351,-0.04925 0.0382,0.01555 0.15297,0.12197 0.25502,0.236481 0.2319,0.260228 0.40922,0.340354 0.60137,0.27175 0.0811,-0.02895 0.14386,-0.03396 0.15089,-0.01205 0.007,0.02064 -0.0123,0.199739 -0.0422,0.397996 -0.11196,0.744298 -0.0559,1.435786 0.12833,1.582078 0.10024,0.07961 0.22603,0.04839 0.29221,-0.07253 0.0526,-0.09616 0.0526,-0.0962 -0.0199,-0.02985 -0.0963,0.08814 -0.13461,0.09927 -0.22596,0.0656 -0.11012,-0.04058 -0.12427,-0.126659 -0.0459,-0.279193 0.12606,-0.245334 0.37298,-0.232796 0.45515,0.02311 0.0918,0.285952 -0.10282,0.582307 -0.37179,0.56609 -0.20024,-0.01207 -0.28309,-0.126543 -0.4288,-0.592449 -0.13454,-0.430156 -0.14181,-0.504667 -0.10559,-1.080747 l 0.0219,-0.347651 -0.246,-0.08552 -0.24599,-0.08552 0.0425,0.267996 c 0.0234,0.147397 0.0731,0.432218 0.11068,0.632936 0.13403,0.717007 0.32769,2.200432 0.32607,2.497722 -8.9e-4,0.16272 -0.10345,0.342536 -0.21888,0.383748 -0.12599,0.04498 -0.3466,-0.06574 -0.50633,-0.254115 -0.0835,-0.09853 -0.22401,-0.347435 -0.33615,-0.595631 -0.17205,-0.380811 -0.19544,-0.416298 -0.21898,-0.332164 -0.0215,0.07692 0.012,0.184375 0.18258,0.585888 0.11491,0.270431 0.27653,0.612531 0.35916,0.760226 0.27064,0.48376 0.30759,0.579969 0.24164,0.629345 -0.0322,0.02413 -0.0818,0.03532 -0.1101,0.02488 -0.0684,-0.02523 -0.36249,-0.646482 -0.59371,-1.254419 l -0.18635,-0.489979 -0.10805,0.145327 c -0.0594,0.07993 -0.15596,0.197603 -0.2145,0.261495 l -0.10645,0.116164 0.12599,0.314921 c 0.0693,0.173208 0.22935,0.484481 0.35568,0.69172 0.12634,0.20724 0.22635,0.403742 0.22225,0.436671 -0.01,0.07682 -0.13325,0.121798 -0.18482,0.06719 z m 1.9889,-3.306075 c -0.0446,-0.03043 -0.15107,0.0038 -0.13805,0.04434 0.005,0.01618 0.0416,0.02414 0.0809,0.01768 0.0891,-0.01465 0.10356,-0.0303 0.0571,-0.06201 z m -1.78157,0.07564 c 0.13788,-0.672036 0.15233,-1.084094 0.0405,-1.153709 -0.0451,-0.02809 -0.062,-0.01951 -0.11642,0.05926 -0.0949,0.137382 -0.13107,0.332948 -0.11524,0.623685 0.0177,0.325024 0.09,0.747891 0.12217,0.714596 0.0133,-0.01374 0.0443,-0.123462 0.069,-0.24383 z m -1.66247,3.521167 c -0.27064,-0.0803 -0.41485,-0.296961 -0.79849,-1.199677 -0.11133,-0.261959 -0.22175,-0.507703 -0.24539,-0.546099 -0.0379,-0.06151 -0.0479,-0.06183 -0.0848,-0.0027 -0.0286,0.04583 -0.0142,0.196783 0.0453,0.475974 0.11591,0.54383 0.20382,1.237196 0.17776,1.402137 -0.0242,0.153062 -0.0968,0.222556 -0.20301,0.194172 -0.0863,-0.02306 -0.0893,-0.04305 -0.0937,-0.6184 -0.003,-0.403583 -0.0593,-1.022852 -0.0918,-1.011257 -0.0255,0.0091 -0.17577,0.772955 -0.20105,1.021987 -0.0406,0.39948 -0.23006,0.457461 -0.50949,0.155891 -0.46957,-0.506767 -0.8902,-1.934685 -0.80077,-2.718346 0.0696,-0.610199 0.21989,-1.077455 0.36288,-1.128508 0.23305,-0.08321 0.36221,0.572893 0.23902,1.214221 -0.0491,0.255866 -0.21589,0.692568 -0.32363,0.847596 -0.0565,0.08128 -0.0515,0.123184 0.0527,0.447805 0.11024,0.3433 0.3097,0.717116 0.43583,0.816809 0.14453,0.11424 0.27578,-0.03126 0.52331,-0.580143 0.18344,-0.406773 0.18749,-0.425362 0.14802,-0.67869 -0.0736,-0.472099 -0.37511,-1.831728 -0.47577,-2.145209 -0.10732,-0.334205 -0.11284,-0.414646 -0.0305,-0.444051 0.0432,-0.01543 0.0802,0.06311 0.18892,0.401479 0.0743,0.231367 0.26006,0.769971 0.4127,1.196897 l 0.27753,0.776231 0.10436,-0.107971 c 0.0574,-0.05938 0.16328,-0.1496 0.23528,-0.200482 0.12568,-0.0888 0.13124,-0.104611 0.1387,-0.394039 0.0116,-0.451848 0.17241,-1.123185 0.33325,-1.391489 0.13684,-0.228275 0.26119,-0.317334 0.33459,-0.239635 0.048,0.05075 0.0526,0.0358 -0.1713,0.544858 -0.34791,0.790861 -0.38116,1.250902 -0.15029,2.079515 0.14019,0.503161 0.16358,0.55908 0.29054,0.694677 0.076,0.08111 0.16941,0.165151 0.20771,0.186764 0.0972,0.05489 0.20854,-0.02889 0.26685,-0.20088 0.0501,-0.147647 0.13363,-0.205573 0.19812,-0.137305 0.0637,0.06746 -2.4e-4,0.217213 -0.15304,0.35825 -0.20294,0.187315 -0.33004,0.189925 -0.54124,0.01111 -0.22363,-0.189323 -0.42626,-0.614891 -0.52571,-1.104071 -0.0406,-0.199625 -0.0782,-0.364936 -0.0836,-0.367359 -0.0304,-0.01373 -0.2783,0.172879 -0.34942,0.263054 -0.0837,0.106063 -0.0836,0.10639 0.0401,0.41868 0.18138,0.457752 0.43925,1.021084 0.55115,1.203998 0.19084,0.311965 0.48717,0.433283 0.57279,0.234508 0.0405,-0.09391 -0.005,-0.195422 -0.084,-0.18916 -0.0458,0.0036 -0.0435,0.01472 0.0124,0.05888 0.0559,0.04416 0.0607,0.06747 0.0257,0.123625 -0.0969,0.155396 -0.34086,0.02736 -0.29253,-0.153516 0.0577,-0.215872 0.36636,-0.266668 0.51898,-0.0854 0.15226,0.180834 0.0697,0.425048 -0.17306,0.511707 -0.10882,0.03885 -0.18984,0.03977 -0.31194,0.0036 z m -1.27672,-2.404662 c -0.13745,-0.412198 -0.14912,-0.435519 -0.10704,-0.21403 0.026,0.136714 0.0765,0.370071 0.11225,0.518572 0.055,0.228464 0.0715,0.261389 0.10705,0.21403 0.0328,-0.04368 0.008,-0.157512 -0.11226,-0.518572 z m -1.09855,-0.360692 c 0.0828,-0.326274 0.0632,-0.655463 -0.0399,-0.668894 -0.16496,-0.02149 -0.25949,0.424954 -0.23063,1.089185 l 0.01,0.226526 0.091,-0.168573 c 0.0501,-0.09271 0.12642,-0.307925 0.16964,-0.478244 z m -0.25362,2.351903 c -0.0151,-0.01895 -0.0657,-0.07653 -0.11243,-0.127967 -0.0608,-0.06686 -0.19117,-0.408711 -0.45746,-1.199219 l -0.37246,-1.105699 -0.0721,0.300025 c -0.0696,0.289387 -0.14423,0.38964 -0.22586,0.30323 -0.0883,-0.09344 0.27183,-1.02422 0.55414,-1.432347 0.12194,-0.176282 0.20247,-0.228032 0.32236,-0.207161 0.0569,0.0099 0.049,0.0378 -0.0469,0.166619 -0.0634,0.0851 -0.1835,0.253428 -0.26693,0.374066 l -0.15169,0.219342 0.29906,0.93133 c 0.23965,0.74635 0.33809,1.003519 0.49558,1.294789 0.10809,0.199902 0.19342,0.388417 0.18963,0.418921 -0.008,0.0672 -0.11674,0.11202 -0.15492,0.06407 z m 2.293,-4.009657 c -0.19701,0.02211 -0.70662,-0.04316 -0.94596,-0.12115 -0.13495,-0.04397 -0.18574,-0.111734 -0.1283,-0.171166 0.0403,-0.0417 0.31097,-0.0098 0.43456,0.05127 0.0498,0.02461 0.12515,0.05301 0.16737,0.06311 0.0692,0.01655 0.0704,0.0087 0.012,-0.07986 -0.11853,-0.179659 -0.42639,-0.487285 -0.65646,-0.655961 -0.44207,-0.324088 -1.04456,-0.474369 -1.25963,-0.314195 -0.0497,0.037 -0.0996,0.102166 -0.11105,0.144816 -0.0302,0.113126 0.0384,0.293237 0.12006,0.315064 0.10569,0.02825 0.15798,-0.06513 0.13504,-0.241108 -0.023,-0.176375 0.0322,-0.274341 0.13863,-0.245899 0.0388,0.01038 0.0759,0.03493 0.0824,0.05456 0.007,0.01963 0.11649,0.125722 0.24444,0.23576 0.21934,0.188644 0.23002,0.204752 0.18699,0.282065 -0.0251,0.0451 -0.10457,0.134917 -0.17658,0.1996 -0.463,0.415845 -1.22354,0.03852 -1.10992,-0.550652 0.0573,-0.296908 0.31028,-0.532972 0.66246,-0.61805 0.20799,-0.05025 0.29401,-0.04986 0.51246,0.0023 0.15602,0.03727 0.52101,0.249927 0.73768,0.4298 0.1879,0.15598 0.51837,0.544031 0.67341,0.790748 0.078,0.124088 0.15039,0.22879 0.16092,0.232671 0.0294,0.01083 0.52115,-0.320578 0.65787,-0.443334 0.10085,-0.09056 0.13488,-0.106105 0.20209,-0.09232 0.12644,0.02593 0.0685,0.164057 -0.11607,0.276625 -0.23299,0.142107 -0.2359,0.1485 -0.0366,0.08036 0.18826,-0.06438 0.29738,-0.0345 0.23564,0.06451 -0.0464,0.07443 -0.60835,0.286286 -0.82336,0.310414 z m 0.2963,-0.976928 c -0.23747,0.04362 -0.82404,0.112281 -0.82893,0.09703 -0.002,-0.0065 0.0122,-0.08883 0.0318,-0.18296 0.0465,-0.224108 0.18472,-0.412918 0.4353,-0.594835 0.11186,-0.08121 0.25485,-0.198312 0.31776,-0.260221 0.23103,-0.227371 0.32716,-0.301078 0.39602,-0.303657 0.11627,-0.0044 0.11306,0.157931 -0.006,0.312415 -0.0863,0.111889 -0.16275,0.163834 -0.40732,0.276941 -0.32106,0.148485 -0.46197,0.255321 -0.55764,0.422803 -0.14566,0.254976 0.027,0.295813 0.52287,0.123658 0.36918,-0.128167 0.57114,-0.275244 0.70851,-0.515918 0.12592,-0.220633 0.15583,-0.364807 0.15255,-0.735365 -0.002,-0.227457 -0.009,-0.256046 -0.0559,-0.221107 -0.1216,0.09106 -0.37296,0.224665 -0.72144,0.383485 -0.57657,0.262772 -0.809,0.488645 -0.9067,0.88111 -0.0404,0.162254 -0.0975,0.230398 -0.12391,0.147987 -0.0278,-0.08647 0.005,-0.400184 0.0504,-0.488965 0.0741,-0.143441 0.23556,-0.272384 0.59864,-0.477952 0.58018,-0.328494 0.95602,-0.617388 1.15825,-0.89031 0.0527,-0.07107 0.10388,-0.126159 0.11383,-0.122422 0.01,0.0037 0.0132,0.104093 0.007,0.223012 -0.0505,1.007147 -0.0694,1.199082 -0.13444,1.368014 -0.11881,0.308442 -0.35644,0.484841 -0.75067,0.557253 z m -3.49229,25.294205 c 0,-0.603004 0.10054,-0.661459 1.13771,-0.661459 0.62574,0 1.28058,-0.142875 1.45521,-0.3175 0.23053,-0.230536 0.3175,-2.187223 0.3175,-7.14375 0,-6.473473 -0.0273,-6.853597 -0.52917,-7.355416 -0.37237,-0.372377 -0.88194,-0.529167 -1.71979,-0.529167 -1.09361,0 -1.19062,-0.0539 -1.19062,-0.661458 0,-0.648406 0.0405,-0.661517 2.05052,-0.664371 1.12778,-0.0016 2.497,-0.07671 3.04271,-0.16691 l 0.99218,-0.164 v 7.989512 c 0,5.0014 0.10244,8.180919 0.27389,8.501287 0.21433,0.400476 0.55957,0.511773 1.5875,0.511773 1.2248,0 1.31361,0.04472 1.31361,0.661459 v 0.661458 h -4.36562 -4.36563 z m -14.76349,2.1e-5 c 0,-0.605983 0.0983,-0.661458 1.17173,-0.661458 2.01753,0 2.00327,0.05184 2.00327,-7.282493 0,-4.164245 -0.10413,-6.679485 -0.29376,-7.095675 -0.32864,-0.72128 -1.25426,-1.232249 -2.23223,-1.232249 -0.45576,0 -0.64901,-0.146174 -0.64901,-0.490908 0,-0.413009 0.28339,-0.51767 1.78594,-0.659577 0.98227,-0.09277 2.17289,-0.169518 2.64583,-0.170553 l 0.8599,-0.0019 v 3.624792 c 0,1.993635 0.0969,3.511682 0.21525,3.373437 0.11839,-0.138245 0.4172,-0.906198 0.66402,-1.706562 1.27698,-4.140968 3.51365,-6.051474 5.8424,-4.990426 1.59803,0.728112 1.98726,4.113472 0.58091,5.052518 -1.11033,0.741384 -2.44073,-0.458348 -2.19389,-1.978403 0.077,-0.473999 0.1794,-1.095378 0.22761,-1.380845 0.12409,-0.734772 -0.60203,-0.801375 -1.45155,-0.133144 -1.98552,1.561804 -3.35558,6.141461 -3.35558,11.216516 0,2.152015 0.10533,3.325783 0.3175,3.53795 0.17462,0.174625 1.00806,0.3175 1.85208,0.3175 1.4605,0 1.53458,0.03193 1.53458,0.661458 v 0.661459 h -4.7625 -4.7625 z M 90.658309,75.98263 c -0.44021,-0.128077 -1.204,-0.649298 -1.69732,-1.158274 -1.71225,-1.766597 -1.33024,-4.813041 0.83245,-6.63852 1.27329,-1.074759 3.70776,-2.152095 6.00344,-2.656721 1.1065,-0.243226 2.16064,-0.483661 2.34254,-0.5343 0.50715,-0.141189 0.42732,-3.39703 -0.11112,-4.531704 -0.24301,-0.512114 -0.80856,-1.154742 -1.25677,-1.428059 -1.07695,-0.656722 -3.17609,-0.657154 -4.39093,-7.94e-4 -1.03256,0.557787 -1.16148,1.301668 -0.50009,2.885557 0.49855,1.193929 -0.0688,2.268685 -1.25938,2.385599 -1.21608,0.11942 -2.03698,-1.002416 -1.86435,-2.547786 0.2608,-2.334631 2.71378,-4.225991 5.79862,-4.471009 2.1534,-0.171037 3.69922,0.26253 4.9433,1.386488 1.469821,1.327891 1.617281,2.144493 1.617281,8.955815 0,5.685576 0.0275,6.01603 0.5427,6.531274 0.51731,0.517303 0.77893,0.526087 2.00285,0.06724 0.16312,-0.06116 0.36288,0.06157 0.44391,0.272725 0.22443,0.584856 -0.95997,1.525137 -2.11648,1.68026 -0.84324,0.113101 -1.17919,0.0137 -1.84377,-0.5455 -0.446961,-0.376089 -0.967711,-1.073163 -1.157221,-1.549053 -0.18951,-0.475887 -0.38223,-0.91354 -0.42826,-0.972558 -0.046,-0.05902 -0.72143,0.495848 -1.50089,1.233032 -1.88978,1.787269 -4.01467,2.330535 -6.40051,1.636395 z m 4.28888,-1.323745 c 1.01457,-0.38333 2.13632,-1.488622 2.80242,-2.761292 0.4065,-0.776692 0.58415,-1.702048 0.66754,-3.477233 l 0.11362,-2.4189 -1.28708,0.234796 c -3.23079,0.589375 -5.35323,1.837262 -6.07893,3.574087 -0.6963,1.666476 -0.24556,4.185073 0.86445,4.830307 0.63087,0.366716 1.97345,0.375105 2.91798,0.01823 z M 66.108657,75.86132 c -4.22359,-1.13661 -7.90219,-5.140717 -9.479336,-10.31812 -0.358396,-1.176531 -0.474384,-2.403237 -0.461317,-4.878988 0.01503,-2.846869 0.116634,-3.609864 0.729873,-5.480714 2.20562,-6.728833 8.20856,-10.990866 13.97094,-9.919243 4.01966,0.747536 7.45291,3.462624 9.35941,7.401645 0.84331,1.742358 1.16017,2.161193 1.640502,2.168464 0.59179,0.009 0.59531,-0.0149 0.59531,-4.035523 v -4.044534 l -1.653642,-0.834374 -1.65365,-0.834372 3.373442,-0.01588 3.37344,-0.01587 v 5.688542 5.688541 l -2.4474,0.0036 c -1.34607,0.0019 -2.685522,0.06378 -2.976562,0.137316 -0.4168,0.105315 -0.69772,-0.153257 -1.32292,-1.217689 -2.18674,-3.723011 -6.06411,-5.711092 -10.70559,-5.489181 -1.94339,0.09291 -2.58953,0.251558 -4.25934,1.045779 -2.39582,1.139544 -4.17779,2.816063 -5.24925,4.938598 -2.805043,5.556766 -0.52242,11.996865 5.20156,14.675432 2.2883,1.070827 5.52711,1.305902 8.16277,0.592458 2.95647,-0.800277 5.77397,-3.035887 7.08828,-5.624346 l 0.43662,-0.859896 h 3.035912 3.03592 v 5.820834 5.820833 l -3.37344,-0.004 c -3.605342,-0.0043 -3.610412,-0.0089 -1.322922,-1.201656 l 1.256772,-0.655291 v -3.964294 c 0,-3.935084 -0.004,-3.964284 -0.59531,-3.963096 -0.479332,0.0011 -0.815142,0.431628 -1.723632,2.210456 -2.94097,5.758495 -8.5751,8.634323 -14.03644,7.164621 z M 38.8442,76.256381 c -0.453244,-0.02121 -0.865799,-0.07965 -0.916778,-0.129777 -0.05099,-0.05019 -0.302265,-0.09117 -0.55838,-0.09117 -0.256115,0 -0.465662,-0.0429 -0.465662,-0.09539 0,-0.0525 -0.174625,-0.09539 -0.388064,-0.09539 -0.213429,0 -0.388054,-0.0429 -0.388054,-0.09539 0,-0.05249 -0.130964,-0.09539 -0.291036,-0.09539 -0.160072,0 -0.291046,-0.0429 -0.291046,-0.09539 0,-0.0525 -0.106566,-0.09539 -0.236806,-0.09539 -0.130249,0 -0.263795,-0.0429 -0.296766,-0.09539 -0.03297,-0.05249 -0.144701,-0.09539 -0.248267,-0.09539 -0.103566,0 -0.188297,-0.0429 -0.188297,-0.09539 0,-0.05249 -0.05675,-0.09539 -0.126181,-0.09539 -0.17848,0 -0.648265,-0.224392 -0.649175,-0.310081 -4.18e-4,-0.03935 -0.08805,-0.07159 -0.19478,-0.07159 -0.106715,0 -0.194027,-0.0429 -0.194027,-0.09539 0,-0.05249 -0.05721,-0.09539 -0.127231,-0.09539 -0.06994,0 -0.220952,-0.08589 -0.335496,-0.190822 -0.114544,-0.104951 -0.245508,-0.190823 -0.291036,-0.190823 -0.04551,0 -0.167409,-0.07629 -0.270845,-0.169555 -0.103436,-0.09328 -0.340864,-0.27466 -0.527619,-0.403113 -0.4125,-0.283729 -2.134309,-1.983989 -2.134309,-2.107595 0,-0.04866 -0.130965,-0.223154 -0.291036,-0.387883 -0.160072,-0.164738 -0.291046,-0.348075 -0.291046,-0.407421 0,-0.05931 -0.0873,-0.169786 -0.194027,-0.245438 -0.106715,-0.07562 -0.194027,-0.194248 -0.194027,-0.263575 0,-0.06929 -0.0873,-0.218212 -0.194028,-0.330859 -0.106714,-0.112656 -0.194027,-0.261128 -0.194027,-0.329946 0,-0.06881 -0.04365,-0.125133 -0.09702,-0.125133 -0.0534,0 -0.09701,-0.08589 -0.09701,-0.190822 0,-0.10495 -0.04365,-0.190813 -0.09702,-0.190813 -0.0534,0 -0.09701,-0.08589 -0.09701,-0.190822 0,-0.10495 -0.04365,-0.190822 -0.09702,-0.190822 -0.0534,0 -0.09701,-0.08589 -0.09701,-0.190822 0,-0.104951 -0.04365,-0.190823 -0.09702,-0.190823 -0.05331,0 -0.09701,-0.08589 -0.09701,-0.190822 0,-0.10495 -0.04365,-0.190813 -0.09702,-0.190813 -0.0534,0 -0.09701,-0.08647 -0.09701,-0.192117 0,-0.105661 -0.04365,-0.277405 -0.09702,-0.381645 -0.0534,-0.10424 -0.14067,-0.274813 -0.194027,-0.379053 -0.0534,-0.10424 -0.09701,-0.273441 -0.09701,-0.376011 0,-0.102561 -0.04365,-0.21302 -0.09702,-0.245448 -0.0534,-0.03244 -0.09701,-0.182703 -0.09701,-0.333939 0,-0.151226 -0.04365,-0.301501 -0.09702,-0.333929 -0.05331,-0.03244 -0.09702,-0.228173 -0.09702,-0.434983 0,-0.206801 -0.03975,-0.376011 -0.08842,-0.376011 -0.152958,0 -0.221082,-1.110175 -0.225419,-3.6733 -0.0028,-1.493325 0.04086,-2.727499 0.10912,-3.100833 0.06232,-0.341089 0.138487,-0.781437 0.169257,-0.978554 0.03074,-0.197112 0.09497,-0.382118 0.142695,-0.411123 0.04774,-0.02901 0.08675,-0.176475 0.08675,-0.327709 0,-0.151233 0.04365,-0.301504 0.09701,-0.333936 0.0534,-0.03243 0.09702,-0.161235 0.09702,-0.286231 0,-0.124995 0.04365,-0.253799 0.09701,-0.286231 0.0534,-0.03243 0.09702,-0.16377 0.09702,-0.291862 0,-0.128092 0.04365,-0.232894 0.09701,-0.232894 0.0534,0 0.09702,-0.08587 0.09702,-0.190822 0,-0.104951 0.04365,-0.19082 0.09701,-0.19082 0.05331,0 0.09702,-0.06034 0.09702,-0.1341 0,-0.158906 0.404521,-0.949116 0.509322,-0.994922 0.04003,-0.01749 0.07272,-0.114095 0.07272,-0.214674 0,-0.100578 0.03631,-0.18287 0.08062,-0.18287 0.0443,0 0.142574,-0.11807 0.218287,-0.262378 0.07569,-0.144308 0.214061,-0.34561 0.307429,-0.447338 0.09338,-0.101726 0.169777,-0.224038 0.169777,-0.271803 0,-0.04776 0.121742,-0.200675 0.270539,-0.339798 0.148796,-0.139125 0.376584,-0.403225 0.506192,-0.58689 0.275898,-0.390951 0.851469,-0.953723 1.346795,-1.316838 0.19268,-0.14125 0.46607,-0.375027 0.60753,-0.519504 0.141468,-0.144477 0.294259,-0.262786 0.339554,-0.262909 0.04532,-1.23e-4 0.235144,-0.128826 0.421889,-0.286007 0.186755,-0.157181 0.39412,-0.285884 0.460814,-0.286008 0.06668,-1.23e-4 0.121268,-0.04316 0.121268,-0.09563 0,-0.05248 0.05721,-0.09541 0.127231,-0.09541 0.06994,0 0.220952,-0.08587 0.335496,-0.190821 0.114544,-0.104951 0.275572,-0.19082 0.357842,-0.19082 0.08229,0 0.149577,-0.04294 0.149577,-0.09541 0,-0.05247 0.0873,-0.09541 0.194027,-0.09541 0.106714,0 0.194027,-0.04294 0.194027,-0.09541 0,-0.05248 0.0873,-0.09541 0.194027,-0.09541 0.106715,0 0.194027,-0.04294 0.194027,-0.09541 0,-0.05248 0.0847,-0.09541 0.188307,-0.09541 0.103566,0 0.215277,-0.04294 0.248257,-0.09541 0.03297,-0.05248 0.166517,-0.09541 0.296767,-0.09541 0.13024,0 0.236806,-0.04293 0.236806,-0.09541 0,-0.05247 0.130973,-0.09541 0.291045,-0.09541 0.160072,0 0.291036,-0.04294 0.291036,-0.09541 0,-0.05248 0.128392,-0.09541 0.285325,-0.09541 0.156923,0 0.309444,-0.0384 0.338932,-0.08534 0.02954,-0.04694 0.217608,-0.110086 0.418035,-0.140341 0.200426,-0.03026 0.648181,-0.103968 0.995008,-0.163807 0.871103,-0.150294 4.075473,-0.220267 4.206056,-0.09184 0.05573,0.05483 0.332738,0.09968 0.615527,0.09968 0.282798,0 0.51418,0.04294 0.51418,0.09541 0,0.05248 0.150217,0.09541 0.333815,0.09541 0.183606,0 0.360804,0.04293 0.393785,0.09541 0.03297,0.05248 0.188352,0.09541 0.345275,0.09541 0.156924,0 0.285315,0.04294 0.285315,0.09541 0,0.05248 0.130974,0.09541 0.291046,0.09541 0.160072,0 0.291036,0.04294 0.291036,0.09541 0,0.05248 0.06213,0.09541 0.137977,0.09541 0.164669,0 1.739697,0.777358 1.786135,0.88155 0.01783,0.0399 0.116011,0.07255 0.218277,0.07255 0.102275,0 0.185947,0.03568 0.185947,0.07929 0,0.04361 0.120052,0.139918 0.266786,0.214021 0.146735,0.07411 0.337391,0.210163 0.423691,0.302353 0.08628,0.0922 0.201086,0.16762 0.255084,0.16762 0.05396,0 0.267167,0.161216 0.473696,0.358259 0.206528,0.197043 0.528297,0.464804 0.715052,0.595024 0.438765,0.305952 1.05457,0.913033 1.355757,1.336565 0.130612,0.183665 0.359207,0.447765 0.508004,0.58689 0.148797,0.139123 0.270538,0.305826 0.270538,0.37045 0,0.06462 0.07672,0.186935 0.170437,0.271803 0.09374,0.08487 0.232088,0.272378 0.307438,0.416686 0.07532,0.144308 0.173279,0.262378 0.217618,0.262378 0.0443,0 0.08062,0.08587 0.08062,0.190821 0,0.104951 0.04365,0.190821 0.09702,0.190821 0.0534,0 0.09702,0.08587 0.09702,0.19082 0,0.104952 0.04365,0.190821 0.09701,0.190821 0.0534,0 0.09702,0.08587 0.09702,0.190821 0,0.104951 0.04365,0.19082 0.09701,0.19082 0.05331,0 0.09702,0.08587 0.09702,0.190822 0,0.104951 0.03576,0.19082 0.0795,0.19082 0.04375,0 0.139667,0.217394 0.213244,0.483098 0.07356,0.265704 0.168764,0.504378 0.211562,0.530388 0.04282,0.02601 0.07783,0.149559 0.07783,0.274554 0,0.124995 0.04365,0.253799 0.09701,0.28623 0.05331,0.03243 0.09702,0.206705 0.09702,0.387273 0,0.180568 0.04365,0.328305 0.09701,0.328305 0.05331,0 0.09702,0.184619 0.09702,0.410263 0,0.225649 0.03994,0.451058 0.08888,0.500904 0.149641,0.152675 0.220116,1.235623 0.220116,3.382296 0,2.146683 -0.07049,3.229631 -0.220116,3.382297 -0.04885,0.0499 -0.08888,0.275264 -0.08888,0.500904 0,0.225649 -0.04365,0.410271 -0.09702,0.410271 -0.0534,0 -0.09701,0.147733 -0.09701,0.328296 0,0.180573 -0.04365,0.354841 -0.09702,0.387278 -0.0534,0.03244 -0.09701,0.185237 -0.09701,0.339563 0,0.154335 -0.04365,0.2806 -0.09702,0.2806 -0.0534,0 -0.09701,0.104806 -0.09701,0.232894 0,0.128098 -0.04365,0.25944 -0.09702,0.291867 -0.0534,0.03244 -0.09701,0.142301 -0.09701,0.244161 0,0.101851 -0.04365,0.185189 -0.09702,0.185189 -0.05331,0 -0.09701,0.06036 -0.09701,0.134096 0,0.158903 -0.404531,0.949121 -0.509323,0.994926 -0.04003,0.01747 -0.07281,0.114096 -0.07281,0.214671 0,0.100583 -0.03854,0.182866 -0.08572,0.182866 -0.04709,0 -0.109928,0.07514 -0.139537,0.166974 -0.08201,0.254459 -0.375349,0.695037 -0.672143,1.009667 -0.146735,0.155545 -0.266787,0.317558 -0.266787,0.360014 0,0.09338 -0.952071,1.114492 -1.540896,1.652612 -0.23388,0.21374 -0.622817,0.571095 -0.864304,0.794124 -0.241487,0.223019 -0.48797,0.405492 -0.547736,0.405492 -0.05981,0 -0.171607,0.08589 -0.248517,0.190822 -0.0769,0.104951 -0.187461,0.190813 -0.245667,0.190813 -0.05814,0 -0.19229,0.07514 -0.297992,0.166974 -0.244181,0.212127 -0.66516,0.461557 -1.129837,0.669414 -0.200092,0.08954 -0.363795,0.195544 -0.363795,0.235639 0,0.04011 -0.06613,0.07294 -0.146846,0.07294 -0.0808,0 -0.222643,0.03791 -0.315286,0.08426 -0.637789,0.319083 -1.720658,0.67901 -2.042863,0.67901 -0.116272,0 -0.211395,0.0429 -0.211395,0.09539 0,0.0525 -0.209557,0.09539 -0.465671,0.09539 -0.256115,0 -0.50714,0.03964 -0.557832,0.08819 -0.10587,0.101284 -2.796255,0.190131 -4.020676,0.132781 z m 2.667334,-1.461282 c 0.03297,-0.05249 0.294918,-0.09539 0.582081,-0.09539 0.287173,0 0.549111,-0.0429 0.582091,-0.09539 0.03297,-0.05249 0.185771,-0.09539 0.339546,-0.09539 0.153775,0 0.306574,-0.0429 0.339545,-0.09539 0.03297,-0.0525 0.166527,-0.09539 0.296767,-0.09539 0.130249,0 0.236815,-0.0429 0.236815,-0.09539 0,-0.05249 0.06139,-0.09539 0.136351,-0.09539 0.161577,0 0.965065,-0.397834 1.011643,-0.500904 0.01774,-0.03935 0.08368,-0.07159 0.146539,-0.07159 0.272211,0 2.391994,-2.014785 2.391994,-2.273514 0,-0.04165 0.07644,-0.161187 0.169768,-0.265581 0.196497,-0.219699 0.3696,-0.502679 0.635429,-1.038793 0.104077,-0.209901 0.227426,-0.456193 0.274096,-0.547314 0.04672,-0.09107 0.08489,-0.230658 0.08489,-0.310091 0,-0.07946 0.04365,-0.144403 0.09702,-0.144403 0.05331,0 0.09701,-0.104806 0.09701,-0.232894 0,-0.128098 0.04365,-0.25943 0.09702,-0.291867 0.05331,-0.03244 0.09701,-0.185237 0.09701,-0.339562 0,-0.154336 0.04365,-0.280601 0.09702,-0.280601 0.05331,0 0.09701,-0.147742 0.09701,-0.328305 0,-0.180573 0.04365,-0.354841 0.09702,-0.387278 0.0534,-0.03244 0.09701,-0.219584 0.09701,-0.415895 0,-0.196312 0.03984,-0.39771 0.08851,-0.447565 0.09656,-0.09892 0.147422,-0.525184 0.3125,-2.619017 0.130249,-1.652085 0.128977,-2.367294 -0.0074,-4.198052 -0.164762,-2.211404 -0.210438,-2.618242 -0.304708,-2.714425 -0.04885,-0.04986 -0.08888,-0.272725 -0.08888,-0.495273 0,-0.222549 -0.04365,-0.43117 -0.09701,-0.463601 -0.05331,-0.03244 -0.09702,-0.206705 -0.09702,-0.387273 0,-0.180568 -0.04365,-0.328305 -0.09701,-0.328305 -0.0534,0 -0.09702,-0.129387 -0.09702,-0.287526 0,-0.158139 -0.04365,-0.372812 -0.09701,-0.477051 -0.0534,-0.10424 -0.14067,-0.274813 -0.194027,-0.379052 -0.0534,-0.10424 -0.09702,-0.275979 -0.09702,-0.381642 0,-0.105663 -0.04365,-0.192115 -0.09701,-0.192115 -0.0534,0 -0.09702,-0.06499 -0.09702,-0.14441 0,-0.153953 -0.06576,-0.305341 -0.330852,-0.761989 -0.09139,-0.157426 -0.190405,-0.361367 -0.220023,-0.453199 -0.02963,-0.09183 -0.09241,-0.166968 -0.139537,-0.166968 -0.04709,0 -0.08572,-0.08587 -0.08572,-0.190821 0,-0.104951 -0.04365,-0.19082 -0.09702,-0.19082 -0.05331,0 -0.09701,-0.05631 -0.09701,-0.125125 0,-0.06882 -0.07755,-0.208356 -0.172415,-0.310084 -0.09483,-0.101727 -0.27964,-0.33523 -0.410707,-0.518895 -0.303454,-0.425251 -0.73073,-0.84547 -1.163132,-1.143909 -0.186746,-0.128895 -0.424174,-0.310657 -0.52761,-0.403915 -0.103436,-0.09326 -0.245323,-0.169562 -0.315296,-0.169562 -0.07003,0 -0.12723,-0.04294 -0.12723,-0.09541 0,-0.05248 -0.0873,-0.09541 -0.194028,-0.09541 -0.106714,0 -0.194027,-0.04294 -0.194027,-0.09541 0,-0.05247 -0.0873,-0.09541 -0.194027,-0.09541 -0.106715,0 -0.194027,-0.04294 -0.194027,-0.09541 0,-0.05248 -0.106566,-0.09541 -0.236816,-0.09541 -0.13024,0 -0.263786,-0.04294 -0.296766,-0.09541 -0.03297,-0.05248 -0.188343,-0.09541 -0.345276,-0.09541 -0.156923,0 -0.285315,-0.03879 -0.285315,-0.0862 0,-0.138189 -0.909052,-0.219067 -2.473854,-0.220095 -1.532185,-0.0011 -2.376836,0.07735 -2.376836,0.220494 0,0.0472 -0.130974,0.08581 -0.291046,0.08581 -0.160071,0 -0.291036,0.04294 -0.291036,0.09541 0,0.05248 -0.06761,0.09541 -0.150208,0.09541 -0.247236,0 -1.177705,0.476628 -1.536633,0.787135 -0.106158,0.09183 -0.231131,0.166969 -0.277718,0.166969 -0.119476,0 -1.721967,1.618145 -1.721967,1.738792 0,0.05463 -0.07672,0.168764 -0.170437,0.253633 -0.09374,0.08487 -0.232088,0.272377 -0.307438,0.416686 -0.07532,0.144308 -0.173279,0.262378 -0.217618,0.262378 -0.0443,0 -0.08062,0.08587 -0.08062,0.190821 0,0.104951 -0.04365,0.19082 -0.09701,0.19082 -0.05331,0 -0.09702,0.08587 -0.09702,0.190821 0,0.104952 -0.04365,0.190821 -0.09701,0.190821 -0.05331,0 -0.09702,0.08587 -0.09702,0.190821 0,0.104951 -0.04365,0.19082 -0.09701,0.19082 -0.05331,0 -0.09702,0.08334 -0.09702,0.18519 0,0.101855 -0.04365,0.211725 -0.09701,0.244157 -0.05331,0.03243 -0.09702,0.163769 -0.09702,0.291861 0,0.128093 -0.04365,0.232896 -0.09701,0.232896 -0.05331,0 -0.09702,0.126269 -0.09702,0.2806 0,0.154331 -0.04365,0.307135 -0.09701,0.339567 -0.0534,0.03243 -0.09702,0.182703 -0.09702,0.333937 0,0.151232 -0.04365,0.301503 -0.09701,0.333936 -0.0534,0.03243 -0.09702,0.219584 -0.09702,0.415895 0,0.196311 -0.03966,0.397716 -0.08805,0.447568 -0.04839,0.04986 -0.114665,0.32678 -0.147172,0.615397 -0.03251,0.288616 -0.107643,0.93264 -0.166972,1.431154 -0.136082,1.143609 -0.134568,4.734098 0.0028,5.867737 0.05712,0.472286 0.13076,1.094838 0.163703,1.383451 0.03297,0.288614 0.09953,0.565548 0.147961,0.615393 0.04848,0.0499 0.08805,0.251263 0.08805,0.447575 0,0.196302 0.04365,0.383458 0.09702,0.415895 0.05331,0.03244 0.09701,0.182704 0.09701,0.33393 0,0.151235 0.04365,0.301501 0.09702,0.333939 0.05331,0.03244 0.09701,0.161235 0.09701,0.286233 0,0.124988 0.04365,0.253796 0.09702,0.286224 0.0534,0.03244 0.09701,0.142886 0.09701,0.245456 0,0.102561 0.04365,0.271771 0.09702,0.376012 0.0534,0.10424 0.14067,0.274813 0.194027,0.379053 0.0534,0.10424 0.09701,0.254506 0.09701,0.333929 0,0.07946 0.04365,0.144413 0.09702,0.144413 0.0534,0 0.09701,0.08589 0.09701,0.190822 0,0.10495 0.04365,0.190822 0.09702,0.190822 0.05331,0 0.09701,0.08589 0.09701,0.190822 0,0.104951 0.04365,0.190813 0.09702,0.190813 0.05331,0 0.09701,0.08589 0.09701,0.190822 0,0.104951 0.04365,0.190823 0.09702,0.190823 0.05331,0 0.09702,0.05633 0.09702,0.125122 0,0.06881 0.0873,0.2173 0.194027,0.329947 0.106715,0.112657 0.194027,0.249958 0.194027,0.30512 0,0.137829 1.919989,2.013557 2.279827,2.227267 0.160072,0.0951 0.367436,0.196676 0.460814,0.225803 0.09338,0.02908 0.169777,0.09088 0.169777,0.137234 0,0.04635 0.0847,0.08426 0.188297,0.08426 0.103566,0 0.215286,0.0429 0.248257,0.09539 0.03297,0.05249 0.166527,0.09539 0.296767,0.09539 0.130249,0 0.236815,0.0429 0.236815,0.09539 0,0.05249 0.128392,0.09539 0.285315,0.09539 0.156924,0 0.312296,0.0429 0.345276,0.09539 0.03297,0.05249 0.286578,0.09606 0.563553,0.09687 0.276975,7.58e-4 0.569079,0.04309 0.64912,0.09395 0.192597,0.122407 1.911861,0.122407 1.988781,0 z M 35.351153,61.151413 v -5.152154 h 0.379436 0.379444 l 0.0522,0.548609 c 0.08665,0.910102 0.174672,1.359596 0.266229,1.359596 0.04774,0 0.08684,0.07006 0.08684,0.155669 0,0.202291 0.800192,0.989255 1.005884,0.989255 0.08702,0 0.158289,0.0429 0.158289,0.09539 0,0.05249 0.128391,0.09539 0.285315,0.09539 0.156923,0 0.312295,0.0429 0.345275,0.09539 0.03697,0.05883 0.863747,0.09539 2.157398,0.09539 1.968219,0 2.458455,-0.04933 2.958769,-0.297942 0.09269,-0.04606 0.214163,-0.08368 0.270018,-0.08368 0.23767,0 0.968223,-0.898901 0.968223,-1.191334 0,-0.07946 0.03734,-0.144412 0.08303,-0.144412 0.04569,0 0.111414,-0.289813 0.146048,-0.64402 0.10051,-1.028184 0.124008,-1.073366 0.558296,-1.073366 h 0.376742 v 5.157647 5.157643 l -0.412304,-0.02937 -0.412314,-0.02937 -0.09701,-0.732445 c -0.05331,-0.402834 -0.129757,-0.7642 -0.169777,-0.803029 -0.04003,-0.03887 -0.07272,-0.151111 -0.07272,-0.249506 0,-0.09841 -0.0873,-0.271081 -0.194027,-0.383728 -0.106715,-0.112656 -0.194027,-0.257529 -0.194027,-0.321952 0,-0.06439 -0.130974,-0.174143 -0.291046,-0.243825 -0.160072,-0.06967 -0.291036,-0.154153 -0.291036,-0.187694 0,-0.165804 -2.01553,-0.458236 -3.152954,-0.457459 -0.990058,6.62e-4 -2.497045,0.174402 -2.627741,0.302932 -0.03984,0.03925 -0.152511,0.0713 -0.250337,0.0713 -0.09783,0 -0.177858,0.0429 -0.177858,0.09539 0,0.05249 -0.06752,0.09539 -0.14993,0.09539 -0.194073,0 -0.626179,0.424964 -0.626179,0.615825 0,0.08109 -0.04365,0.147454 -0.09702,0.147454 -0.05331,0 -0.09702,0.08589 -0.09702,0.190822 0,0.104951 -0.03892,0.190823 -0.08638,0.190823 -0.09318,0 -0.185641,0.419858 -0.267901,1.216477 l -0.05173,0.500904 h -0.379082 -0.379074 z"
         style="fill:#000000;stroke-width:0.01954712"
         id="path5366" />
      <path
         transform="scale(0.26458333)"
         inkscape:connector-curvature="0"
         id="path5369"
         d="m 251.82085,286.86058 c -16.13159,-3.68767 -31.13111,-19.26224 -37.17112,-38.59617 -1.4955,-4.78708 -1.65578,-6.61106 -1.64659,-18.73833 0.0117,-15.37281 0.70044,-18.61878 6.33315,-29.84548 11.19171,-22.30652 33.36235,-33.36183 53.77565,-26.81504 13.9991,4.48968 21.62887,11.7892 32.47531,31.06963 1.6305,2.89835 2.19213,3.36822 3.80327,3.18198 l 1.89028,-0.21851 0.5422,-8.48528 c 0.29821,-4.6669 0.45731,-11.50816 0.35356,-15.20279 l -0.18865,-6.71752 -5.65686,-2.98094 -5.65685,-2.98095 11.84404,-0.0243 11.84404,-0.0242 v 21.2132 21.2132 l -8.30851,0.008 c -4.56968,0.004 -9.47947,0.20139 -10.91064,0.43803 -2.58276,0.42706 -2.62572,0.39347 -5.76996,-4.51187 -8.66752,-13.52222 -21.89523,-20.63538 -38.43892,-20.67041 -7.7665,-0.0164 -12.13327,0.99339 -19.30347,4.464 -10.90482,5.2783 -19.25854,15.27238 -22.2913,26.66849 -1.34386,5.0498 -1.3239,15.56378 0.0395,20.7982 3.17798,12.20111 13.9718,23.77332 26.05033,27.92895 9.64673,3.31896 22.27179,3.31211 31.16935,-0.0169 9.17963,-3.43455 18.99242,-11.60398 23.02416,-19.1683 l 2.19497,-4.11819 h 11.27224 11.27225 v 21.56676 21.56676 h -11.35545 c -7.57413,0 -11.20629,-0.24133 -10.90754,-0.72472 0.24635,-0.39859 2.70053,-1.85911 5.45375,-3.24562 l 5.00586,-2.5209 -0.48511,-14.59631 c -0.26682,-8.02798 -0.76974,-14.88094 -1.11762,-15.22881 -1.63365,-1.63365 -4.05484,0.31777 -7.08799,5.71276 -8.89795,15.82655 -17.66232,23.91945 -30.93003,28.56039 -5.32179,1.86152 -15.36346,2.35672 -21.1173,1.04139 z"
         style="fill:#0000ff;fill-opacity:1;stroke-width:0.70710677" />
      <path
         transform="scale(0.26458333)"
         inkscape:connector-curvature="0"
         id="path5371"
         d="m 343.27595,286.89648 c -6.78774,-2.53219 -10.43299,-7.56399 -10.42148,-14.38549 0.0192,-11.40352 9.85754,-19.60029 29.29407,-24.40634 4.90336,-1.21244 8.93249,-2.60371 9.47782,-3.27272 0.69433,-0.85178 0.86499,-2.86956 0.63668,-7.52767 -0.49359,-10.07085 -3.43484,-14.32539 -11.0294,-15.95413 -4.64074,-0.99526 -10.61094,0.16562 -13.54391,2.63355 -2.4995,2.10319 -2.69718,4.27595 -0.906,9.95821 1.0812,3.42998 1.09749,4.03033 0.1549,5.70967 -2.16746,3.86159 -7.46411,3.82515 -9.90973,-0.0682 -3.12273,-4.97128 4.7e-4,-13.35767 6.686,-17.95319 7.06843,-4.85872 19.1113,-6.29681 26.32564,-3.14367 4.19388,1.833 8.8979,6.43526 10.19955,9.9789 0.63447,1.7273 1.04043,9.53911 1.34394,25.86142 0.38269,20.58043 0.58277,23.61228 1.66754,25.26784 1.48305,2.26342 3.75898,2.95276 6.41494,1.94297 2.72835,-1.03732 3.28512,-0.9427 3.28512,0.55829 0,2.40575 -5.55937,5.76645 -9.53903,5.76645 -2.42927,0 -7.5513,-4.80151 -9.22397,-8.64677 -0.72264,-1.66127 -1.39984,-3.14245 -1.50488,-3.29151 -0.10505,-0.14906 -2.49861,1.68589 -5.31904,4.07767 -2.82042,2.39178 -6.53653,5.03053 -8.25802,5.86388 -3.95298,1.9136 -12.0509,2.4409 -15.83074,1.03082 z m 17.0329,-4.98688 c 2.88205,-1.4939 7.74326,-6.72425 9.36686,-10.07815 1.73624,-3.58661 2.73615,-9.8867 2.75561,-17.36218 l 0.0142,-5.4624 -2.2981,0.43512 c -16.73666,3.16889 -24.80693,8.47423 -26.69021,17.54597 -1.4639,7.05156 1.49476,15.22485 5.8547,16.17361 2.50423,0.54494 8.94488,-0.18831 10.99692,-1.25197 z"
         style="fill:#0000ff;fill-opacity:1;stroke-width:0.70710677" />
      <path
         transform="scale(0.26458333)"
         inkscape:connector-curvature="0"
         id="path5373"
         d="m 400.85962,285.91785 c 0.21208,-1.84324 0.45218,-1.96297 4.60835,-2.2981 2.41154,-0.19445 4.71375,-0.68293 5.11602,-1.08551 1.56468,-1.56586 2.16521,-9.01105 2.13032,-26.41139 -0.0553,-27.56872 -0.7123,-30.54684 -6.97107,-31.59743 -4.12863,-0.69304 -5.01343,-1.05349 -5.01343,-2.0424 0,-1.27807 1.32679,-1.69136 6.90318,-2.15029 2.62024,-0.21565 6.43462,-0.54508 8.47639,-0.73207 l 3.71231,-0.33998 0.004,7.60757 c 0.005,9.14791 0.73225,19.27484 1.38401,19.27484 0.25935,0 1.21526,-2.14784 2.12425,-4.77297 3.94835,-11.4027 8.03758,-17.89194 12.83948,-20.3751 2.55693,-1.32223 7.21846,-1.29486 9.83412,0.0577 3.07781,1.5916 4.50746,4.85162 4.5428,10.35897 0.0259,4.03908 -0.21522,4.97565 -1.684,6.54074 -2.1981,2.34222 -4.95707,2.3661 -7.12201,0.0616 -1.33387,-1.41984 -1.62331,-2.42242 -1.48,-5.12652 0.45649,-8.61317 0.49312,-8.30105 -0.99745,-8.50029 -5.55255,-0.7422 -12.7127,11.18276 -15.46192,25.75124 -2.05928,10.91234 -2.33062,29.02083 -0.47973,32.01563 0.36854,0.59631 2.74602,1.10153 6.49376,1.37993 5.79992,0.43085 5.91661,0.47618 6.1361,2.38375 l 0.22374,1.94454 h -17.7716 -17.77161 z"
         style="fill:#0000ff;fill-opacity:1;stroke-width:0.70710677" />
      <path
         transform="scale(0.26458333)"
         inkscape:connector-curvature="0"
         id="path5375"
         d="m 456.72105,285.91785 c 0.20912,-1.81738 0.49799,-1.974 4.4174,-2.39491 2.89112,-0.31048 4.49097,-0.85697 5.15091,-1.75949 0.7728,-1.05687 0.9185,-6.31461 0.7561,-27.28467 -0.19818,-25.59008 -0.22397,-25.99833 -1.73762,-27.51126 -1.11911,-1.11858 -2.75167,-1.6519 -6.0104,-1.96345 -4.18676,-0.40028 -4.47396,-0.54122 -4.47396,-2.1955 v -1.76777 l 9.41132,-0.46426 c 5.17623,-0.25534 10.16954,-0.65455 11.09623,-0.88714 l 1.68491,-0.42288 0.21748,31.08134 c 0.16255,23.23142 0.43487,31.29855 1.07826,31.94138 0.47343,0.47303 3.01901,1.04545 5.65685,1.27206 4.5887,0.39419 4.80575,0.49608 5.01982,2.35655 l 0.22374,1.94454 H 472.8547 456.49731 Z"
         style="fill:#0000ff;fill-opacity:1;stroke-width:0.70710677" />
      <path
         transform="scale(0.26458333)"
         inkscape:connector-curvature="0"
         id="path5385"
         d="m 467.06334,193.81664 c -1.70844,-0.20313 -2.67823,-0.46219 -2.83636,-0.75767 -0.23356,-0.4364 0.69455,-0.43955 1.79111,-0.006 0.50212,0.19849 0.7015,0.22469 0.7015,0.0922 0,-0.27975 -1.55913,-1.94543 -2.43969,-2.60642 -1.36165,-1.02213 -2.91175,-1.60397 -4.11226,-1.54358 -0.64121,0.0323 -0.87172,0.1342 -1.14296,0.50542 -0.176,0.24088 -0.18972,0.29444 -0.16057,0.62692 0.0439,0.50081 0.27628,0.8556 0.55949,0.85426 0.39456,-0.002 0.4886,-0.18614 0.47509,-0.9309 -0.0122,-0.67222 0.0805,-0.88065 0.39161,-0.88065 0.14661,0 0.2549,0.0655 0.45169,0.27338 0.14237,0.15035 0.56119,0.54642 0.93072,0.88014 0.74995,0.67728 0.77881,0.74351 0.49423,1.13398 -0.51822,0.71105 -1.28351,1.15395 -2.07288,1.19965 -2.04855,0.11859 -3.29908,-1.87477 -2.23619,-3.56451 0.56835,-0.90352 1.83174,-1.54379 3.05171,-1.54657 0.58591,-0.001 1.07139,0.12017 1.71626,0.42952 1.6835,0.8076 3.21362,2.25134 4.64315,4.381 0.26502,0.39481 0.50006,0.74338 0.52232,0.77459 0.0822,0.11522 1.69687,-0.9231 2.56986,-1.65256 0.20348,-0.17002 0.43789,-0.32618 0.5209,-0.34702 0.14912,-0.0374 0.46252,0.11035 0.46252,0.2181 0,0.16352 -0.34937,0.52138 -0.81159,0.83129 -0.48045,0.32213 -0.70447,0.53278 -0.49051,0.46122 0.86846,-0.29047 1.23863,-0.34274 1.36331,-0.19251 0.17293,0.20837 -0.42627,0.56305 -1.71746,1.01657 -1.01766,0.35745 -1.74641,0.45467 -2.625,0.35021 z"
         style="fill:#ff0000;fill-opacity:1;stroke-width:0.0625" />
      <path
         transform="scale(0.26458333)"
         inkscape:connector-curvature="0"
         id="path5387"
         d="m 468.34459,213.20573 c -0.58857,-0.16377 -1.02959,-0.46848 -0.88595,-0.61212 0.0533,-0.0533 0.21082,-0.0527 0.62631,0.003 0.77221,0.10282 0.93356,0.0936 1.29394,-0.0743 0.23095,-0.10754 0.47393,-0.32086 0.90625,-0.79564 1.08249,-1.18878 1.955,-2.02702 2.36852,-2.27551 0.57689,-0.34666 1.05278,-0.5275 1.39261,-0.5292 0.24547,-0.001 0.31241,0.0244 0.3958,0.15169 0.0552,0.0842 0.091,0.20378 0.0796,0.26562 -0.0205,0.111 -0.11324,0.14776 -1.30205,0.51625 l -0.40625,0.12592 0.3125,-0.0324 c 0.17187,-0.0178 0.63734,-0.0492 1.03438,-0.0698 0.60079,-0.0312 0.75543,-0.0201 0.92188,0.066 0.2189,0.1132 0.25068,0.25002 0.10604,0.45652 -0.14461,0.20647 -0.40793,0.2544 -1.6248,0.29577 -1.19517,0.0406 -1.90098,0.1506 -2.15625,0.33595 -0.0859,0.0624 -0.36719,0.42281 -0.625,0.80093 -0.67067,0.98361 -0.84394,1.18486 -1.14609,1.33112 -0.3082,0.1492 -0.84072,0.16589 -1.29141,0.0405 z"
         style="fill:#ff0000;fill-opacity:1;stroke-width:0.0625" />
      <path
         transform="scale(0.26458333)"
         inkscape:connector-curvature="0"
         id="path5389"
         d="m 466.3487,190.40429 c 0.002,-0.27557 0.18981,-0.9289 0.36983,-1.28553 0.24829,-0.49184 0.71663,-0.98993 1.49801,-1.59313 0.35757,-0.27603 0.93415,-0.76815 1.28131,-1.09361 0.61603,-0.57753 1.10888,-0.94667 1.26395,-0.94667 0.26263,0 0.34862,0.41431 0.16668,0.80306 -0.22377,0.47811 -0.73578,0.89029 -1.67026,1.34459 -1.3034,0.63366 -1.83906,1.03328 -2.18967,1.6336 -0.22839,0.39104 -0.25526,0.62177 -0.0915,0.78554 0.12463,0.12463 0.18175,0.13428 0.61344,0.10364 0.53739,-0.0382 1.73058,-0.40484 2.38532,-0.73305 0.93018,-0.46628 1.42206,-0.92993 1.86695,-1.7598 0.38518,-0.71847 0.46176,-1.10221 0.46819,-2.34588 0.003,-0.64058 -0.0197,-1.09997 -0.0569,-1.13748 -0.0419,-0.0422 -0.18832,0.0171 -0.44367,0.17943 -0.37587,0.23899 -1.11565,0.62039 -2.90775,1.49911 -1.63505,0.80172 -2.45423,1.57381 -2.83292,2.67007 -0.30459,0.88177 -0.38088,1.05092 -0.47401,1.05092 -0.20875,0 -0.1128,-1.43477 0.12752,-1.90667 0.2416,-0.47443 0.91985,-1.00074 2.37458,-1.84265 2.10769,-1.2198 3.41247,-2.23358 4.24423,-3.29766 0.18142,-0.23209 0.35318,-0.40757 0.38169,-0.38995 0.0285,0.0176 0.0396,0.23564 0.0246,0.48449 -0.015,0.24884 -0.0696,1.21182 -0.12134,2.13994 -0.0518,0.92813 -0.12261,1.9125 -0.15742,2.1875 -0.17904,1.41453 -0.75703,2.29806 -1.83842,2.81029 -0.57945,0.27447 -1.01492,0.37415 -2.43961,0.55841 -1.89762,0.24542 -1.84391,0.24304 -1.84283,0.0815 z"
         style="fill:#88aa00;fill-opacity:1;stroke-width:0.0625" />
    </g>
  </g>
</svg>
